M48
; DRILL file {KiCad 7.0.7} date Thu Apr 25 11:27:16 2024
; FORMAT={-:-/ absolute / metric / decimal}
; #@! TF.CreationDate,2024-04-25T11:27:16-04:00
; #@! TF.GenerationSoftware,Kicad,Pcbnew,7.0.7
; #@! TF.FileFunction,Plated,1,2,PTH
FMAT,2
METRIC
; #@! TA.AperFunction,Plated,PTH,ViaDrill
T1C0.400
; #@! TA.AperFunction,Plated,PTH,ComponentDrill
T2C0.600
; #@! TA.AperFunction,Plated,PTH,ComponentDrill
T3C1.000
; #@! TA.AperFunction,Plated,PTH,ComponentDrill
T4C1.300
; #@! TA.AperFunction,Plated,PTH,ComponentDrill
T5C1.500
; #@! TA.AperFunction,Plated,PTH,ComponentDrill
T6C1.520
; #@! TA.AperFunction,Plated,PTH,ComponentDrill
T7C3.200
%
G90
G05
T1
X114.5Y-106.0
X115.7Y-112.3
X117.8Y-103.6
X118.3Y-77.2
X118.3Y-85.6
X118.3Y-108.9
X122.3Y-79.3
X122.4Y-82.0
X122.4Y-85.6
X125.2Y-74.4
X125.2Y-77.3
X134.9Y-83.0
X134.9Y-84.3
X134.9Y-85.5
X135.0Y-75.6
X135.0Y-76.8
X135.0Y-78.0
X135.6Y-79.1
X135.6Y-80.5
X135.6Y-81.9
X136.7Y-73.4
X136.7Y-75.6
X136.7Y-76.8
X136.7Y-78.0
X136.7Y-79.1
X136.7Y-81.9
X136.7Y-83.0
X136.7Y-84.3
X136.7Y-85.5
X137.7Y-79.1
X137.7Y-80.5
X137.7Y-81.9
X138.2Y-75.6
X138.2Y-76.8
X138.2Y-78.0
X138.2Y-83.0
X138.2Y-84.3
X138.2Y-85.5
X139.6Y-89.8
X139.6Y-90.9
X139.6Y-92.0
X139.9Y-68.3
X139.9Y-69.5
X139.9Y-70.7
X141.2Y-89.8
X141.2Y-90.9
X141.2Y-92.0
X141.5Y-68.3
X141.5Y-69.5
X141.5Y-70.7
X142.7Y-90.9
X142.7Y-92.0
X143.0Y-68.3
X143.0Y-69.5
X144.4Y-73.8
X144.7Y-65.6
X145.3Y-87.4
X145.3Y-89.2
X169.5Y-78.0
T3
X111.78Y-110.9
X114.32Y-110.9
X116.86Y-110.9
X119.4Y-110.9
T4
X129.46Y-104.6
X129.46Y-109.6
X141.96Y-104.6
X141.96Y-109.6
T5
X104.1Y-62.97
X104.1Y-74.4
X104.2Y-88.7
X104.2Y-100.13
X110.45Y-62.97
X110.45Y-74.4
X110.55Y-88.7
X110.55Y-100.13
X116.8Y-62.97
X116.8Y-74.4
X116.9Y-88.7
X116.9Y-100.13
X165.1Y-62.795
X165.1Y-74.225
X165.15Y-88.315
X165.15Y-99.745
X171.45Y-62.795
X171.45Y-74.225
X171.5Y-88.315
X171.5Y-99.745
X177.8Y-62.795
X177.8Y-74.225
X177.85Y-88.315
X177.85Y-99.745
T6
X159.3Y-66.06
X159.3Y-71.14
X159.4Y-91.66
X159.4Y-96.74
T7
X106.0Y-55.0
X106.0Y-109.3
X176.5Y-55.0
X176.5Y-109.3
T2
G00X102.75Y-79.582
M15
G01X103.35Y-79.582
M16
G05
G00X105.75Y-79.582
M15
G01X106.35Y-79.582
M16
G05
G00X109.75Y-79.582
M15
G01X110.35Y-79.582
M16
G05
G00X110.85Y-84.182
M15
G01X111.45Y-84.182
M16
G05
T3
G00X149.24Y-101.6
M15
G01X151.24Y-101.6
M16
G05
G00X149.24Y-107.6
M15
G01X151.24Y-107.6
M16
G05
G00X154.94Y-105.6
M15
G01X154.94Y-103.6
M16
G05
T0
M30
