%TF.GenerationSoftware,KiCad,Pcbnew,7.0.7*%
%TF.CreationDate,2024-04-25T11:27:23-04:00*%
%TF.ProjectId,TPA3116_breakout_v1,54504133-3131-4365-9f62-7265616b6f75,rev?*%
%TF.SameCoordinates,Original*%
%TF.FileFunction,Soldermask,Bot*%
%TF.FilePolarity,Negative*%
%FSLAX46Y46*%
G04 Gerber Fmt 4.6, Leading zero omitted, Abs format (unit mm)*
G04 Created by KiCad (PCBNEW 7.0.7) date 2024-04-25 11:27:23*
%MOMM*%
%LPD*%
G01*
G04 APERTURE LIST*
G04 Aperture macros list*
%AMRoundRect*
0 Rectangle with rounded corners*
0 $1 Rounding radius*
0 $2 $3 $4 $5 $6 $7 $8 $9 X,Y pos of 4 corners*
0 Add a 4 corners polygon primitive as box body*
4,1,4,$2,$3,$4,$5,$6,$7,$8,$9,$2,$3,0*
0 Add four circle primitives for the rounded corners*
1,1,$1+$1,$2,$3*
1,1,$1+$1,$4,$5*
1,1,$1+$1,$6,$7*
1,1,$1+$1,$8,$9*
0 Add four rect primitives between the rounded corners*
20,1,$1+$1,$2,$3,$4,$5,0*
20,1,$1+$1,$4,$5,$6,$7,0*
20,1,$1+$1,$6,$7,$8,$9,0*
20,1,$1+$1,$8,$9,$2,$3,0*%
G04 Aperture macros list end*
%ADD10C,5.600000*%
%ADD11O,1.700000X1.700000*%
%ADD12R,1.700000X1.700000*%
%ADD13C,3.000000*%
%ADD14C,2.000000*%
%ADD15R,3.000000X3.000000*%
%ADD16R,3.500000X3.500000*%
%ADD17RoundRect,0.750000X1.000000X-0.750000X1.000000X0.750000X-1.000000X0.750000X-1.000000X-0.750000X0*%
%ADD18RoundRect,0.875000X0.875000X-0.875000X0.875000X0.875000X-0.875000X0.875000X-0.875000X-0.875000X0*%
%ADD19O,3.048000X1.850000*%
%ADD20C,1.000000*%
%ADD21O,2.000000X1.400000*%
%ADD22R,2.000000X1.400000*%
G04 APERTURE END LIST*
D10*
%TO.C,H4*%
X176500000Y-55000000D03*
%TD*%
%TO.C,H1*%
X106000000Y-109300000D03*
%TD*%
D11*
%TO.C,J9*%
X119400000Y-110900000D03*
X116860000Y-110900000D03*
X114320000Y-110900000D03*
D12*
X111780000Y-110900000D03*
%TD*%
D13*
%TO.C,J2*%
X113650000Y-72270000D03*
D14*
X107300000Y-74400000D03*
X107300000Y-62970000D03*
D13*
X110450000Y-74400000D03*
X110450000Y-62970000D03*
X104100000Y-74400000D03*
X104100000Y-62970000D03*
X116800000Y-74400000D03*
X116800000Y-62970000D03*
%TD*%
D15*
%TO.C,J8*%
X159400000Y-91660000D03*
D13*
X159400000Y-96740000D03*
%TD*%
D15*
%TO.C,J7*%
X159300000Y-66060000D03*
D13*
X159300000Y-71140000D03*
%TD*%
D10*
%TO.C,H2*%
X176500000Y-109300000D03*
%TD*%
D13*
%TO.C,J6*%
X168300000Y-90445000D03*
D14*
X174650000Y-88315000D03*
X174650000Y-99745000D03*
D13*
X171500000Y-88315000D03*
X171500000Y-99745000D03*
X177850000Y-88315000D03*
X177850000Y-99745000D03*
X165150000Y-88315000D03*
X165150000Y-99745000D03*
%TD*%
D16*
%TO.C,J4*%
X150240000Y-101600000D03*
D17*
X150240000Y-107600000D03*
D18*
X154940000Y-104600000D03*
%TD*%
D10*
%TO.C,H3*%
X106000000Y-55000000D03*
%TD*%
D13*
%TO.C,J3*%
X113750000Y-98000000D03*
D14*
X107400000Y-100130000D03*
X107400000Y-88700000D03*
D13*
X110550000Y-100130000D03*
X110550000Y-88700000D03*
X104200000Y-100130000D03*
X104200000Y-88700000D03*
X116900000Y-100130000D03*
X116900000Y-88700000D03*
%TD*%
D19*
%TO.C,SW1*%
X141960000Y-109600000D03*
X129460000Y-109600000D03*
X141960000Y-104600000D03*
X129460000Y-104600000D03*
%TD*%
D13*
%TO.C,J5*%
X168250000Y-64925000D03*
D14*
X174600000Y-62795000D03*
X174600000Y-74225000D03*
D13*
X171450000Y-62795000D03*
X171450000Y-74225000D03*
X177800000Y-62795000D03*
X177800000Y-74225000D03*
X165100000Y-62795000D03*
X165100000Y-74225000D03*
%TD*%
D20*
%TO.C,J1*%
X101350000Y-81882500D03*
X108350000Y-81882500D03*
D21*
X111150000Y-84182500D03*
X106050000Y-79582500D03*
X103050000Y-79582500D03*
D22*
X110050000Y-79582500D03*
%TD*%
M02*
