%TF.GenerationSoftware,KiCad,Pcbnew,7.0.7*%
%TF.CreationDate,2024-04-25T11:27:23-04:00*%
%TF.ProjectId,TPA3116_breakout_v1,54504133-3131-4365-9f62-7265616b6f75,rev?*%
%TF.SameCoordinates,Original*%
%TF.FileFunction,Soldermask,Top*%
%TF.FilePolarity,Negative*%
%FSLAX46Y46*%
G04 Gerber Fmt 4.6, Leading zero omitted, Abs format (unit mm)*
G04 Created by KiCad (PCBNEW 7.0.7) date 2024-04-25 11:27:23*
%MOMM*%
%LPD*%
G01*
G04 APERTURE LIST*
G04 Aperture macros list*
%AMRoundRect*
0 Rectangle with rounded corners*
0 $1 Rounding radius*
0 $2 $3 $4 $5 $6 $7 $8 $9 X,Y pos of 4 corners*
0 Add a 4 corners polygon primitive as box body*
4,1,4,$2,$3,$4,$5,$6,$7,$8,$9,$2,$3,0*
0 Add four circle primitives for the rounded corners*
1,1,$1+$1,$2,$3*
1,1,$1+$1,$4,$5*
1,1,$1+$1,$6,$7*
1,1,$1+$1,$8,$9*
0 Add four rect primitives between the rounded corners*
20,1,$1+$1,$2,$3,$4,$5,0*
20,1,$1+$1,$4,$5,$6,$7,0*
20,1,$1+$1,$6,$7,$8,$9,0*
20,1,$1+$1,$8,$9,$2,$3,0*%
G04 Aperture macros list end*
%ADD10C,5.600000*%
%ADD11RoundRect,0.200000X0.275000X-0.200000X0.275000X0.200000X-0.275000X0.200000X-0.275000X-0.200000X0*%
%ADD12RoundRect,0.250000X0.625000X-0.375000X0.625000X0.375000X-0.625000X0.375000X-0.625000X-0.375000X0*%
%ADD13RoundRect,0.125000X-1.125000X-1.500000X1.125000X-1.500000X1.125000X1.500000X-1.125000X1.500000X0*%
%ADD14RoundRect,0.225000X-0.250000X0.225000X-0.250000X-0.225000X0.250000X-0.225000X0.250000X0.225000X0*%
%ADD15RoundRect,0.200000X0.200000X0.275000X-0.200000X0.275000X-0.200000X-0.275000X0.200000X-0.275000X0*%
%ADD16RoundRect,0.045000X-0.705000X-0.180000X0.705000X-0.180000X0.705000X0.180000X-0.705000X0.180000X0*%
%ADD17RoundRect,0.045000X0.705000X0.180000X-0.705000X0.180000X-0.705000X-0.180000X0.705000X-0.180000X0*%
%ADD18RoundRect,0.152000X-1.368000X-1.723000X1.368000X-1.723000X1.368000X1.723000X-1.368000X1.723000X0*%
%ADD19RoundRect,0.250000X1.950000X0.700000X-1.950000X0.700000X-1.950000X-0.700000X1.950000X-0.700000X0*%
%ADD20RoundRect,0.200000X-0.200000X-0.275000X0.200000X-0.275000X0.200000X0.275000X-0.200000X0.275000X0*%
%ADD21RoundRect,0.225000X-0.225000X-0.250000X0.225000X-0.250000X0.225000X0.250000X-0.225000X0.250000X0*%
%ADD22O,1.700000X1.700000*%
%ADD23R,1.700000X1.700000*%
%ADD24C,3.000000*%
%ADD25C,2.000000*%
%ADD26R,3.000000X3.000000*%
%ADD27RoundRect,0.225000X0.225000X0.250000X-0.225000X0.250000X-0.225000X-0.250000X0.225000X-0.250000X0*%
%ADD28RoundRect,0.225000X0.250000X-0.225000X0.250000X0.225000X-0.250000X0.225000X-0.250000X-0.225000X0*%
%ADD29RoundRect,0.250000X-0.325000X-0.650000X0.325000X-0.650000X0.325000X0.650000X-0.325000X0.650000X0*%
%ADD30RoundRect,0.250000X0.325000X0.650000X-0.325000X0.650000X-0.325000X-0.650000X0.325000X-0.650000X0*%
%ADD31R,3.500000X3.500000*%
%ADD32RoundRect,0.750000X1.000000X-0.750000X1.000000X0.750000X-1.000000X0.750000X-1.000000X-0.750000X0*%
%ADD33RoundRect,0.875000X0.875000X-0.875000X0.875000X0.875000X-0.875000X0.875000X-0.875000X-0.875000X0*%
%ADD34RoundRect,0.112500X-0.112500X0.187500X-0.112500X-0.187500X0.112500X-0.187500X0.112500X0.187500X0*%
%ADD35RoundRect,0.200000X-0.275000X0.200000X-0.275000X-0.200000X0.275000X-0.200000X0.275000X0.200000X0*%
%ADD36O,3.048000X1.850000*%
%ADD37C,1.000000*%
%ADD38O,2.000000X1.400000*%
%ADD39R,2.000000X1.400000*%
G04 APERTURE END LIST*
D10*
%TO.C,H4*%
X176500000Y-55000000D03*
%TD*%
D11*
%TO.C,R15*%
X157000000Y-112025000D03*
X157000000Y-110375000D03*
%TD*%
D12*
%TO.C,D2*%
X159800000Y-112600000D03*
X159800000Y-109800000D03*
%TD*%
D13*
%TO.C,L3*%
X147500000Y-81600000D03*
X153500000Y-81600000D03*
%TD*%
D14*
%TO.C,C14*%
X144100000Y-75000000D03*
X144100000Y-76550000D03*
%TD*%
D13*
%TO.C,L1*%
X147500000Y-64200000D03*
X153500000Y-64200000D03*
%TD*%
D15*
%TO.C,R8*%
X128525000Y-87200000D03*
X126875000Y-87200000D03*
%TD*%
%TO.C,R7*%
X128525000Y-84800000D03*
X126875000Y-84800000D03*
%TD*%
D13*
%TO.C,L4*%
X147500000Y-90800000D03*
X153500000Y-90800000D03*
%TD*%
D16*
%TO.C,U1*%
X132905000Y-75650000D03*
X132905000Y-76300000D03*
X132905000Y-76950000D03*
X132905000Y-77600000D03*
X132905000Y-78250000D03*
X132905000Y-78900000D03*
X132905000Y-79550000D03*
X132905000Y-80200000D03*
D17*
X132905000Y-80800000D03*
X132905000Y-81450000D03*
X132905000Y-82100000D03*
X132905000Y-82750000D03*
X132905000Y-83400000D03*
X132905000Y-84050000D03*
X132905000Y-84700000D03*
X132905000Y-85350000D03*
D16*
X140405000Y-85350000D03*
D17*
X140405000Y-84700000D03*
X140405000Y-84050000D03*
X140405000Y-83400000D03*
X140405000Y-82750000D03*
X140405000Y-82100000D03*
X140405000Y-81450000D03*
X140405000Y-80800000D03*
D16*
X140405000Y-80200000D03*
X140405000Y-79550000D03*
X140405000Y-78900000D03*
X140405000Y-78250000D03*
X140405000Y-77600000D03*
X140405000Y-76950000D03*
X140405000Y-76300000D03*
X140405000Y-75650000D03*
D18*
X136655000Y-80500000D03*
%TD*%
D19*
%TO.C,C1*%
X140125000Y-66100000D03*
X131425000Y-66100000D03*
%TD*%
D20*
%TO.C,R13*%
X173350000Y-78000000D03*
X175000000Y-78000000D03*
%TD*%
D21*
%TO.C,C27*%
X165050000Y-54800000D03*
X166600000Y-54800000D03*
%TD*%
D10*
%TO.C,H1*%
X106000000Y-109300000D03*
%TD*%
D22*
%TO.C,J9*%
X119400000Y-110900000D03*
X116860000Y-110900000D03*
X114320000Y-110900000D03*
D23*
X111780000Y-110900000D03*
%TD*%
D24*
%TO.C,J2*%
X113650000Y-72270000D03*
D25*
X107300000Y-74400000D03*
X107300000Y-62970000D03*
D24*
X110450000Y-74400000D03*
X110450000Y-62970000D03*
X104100000Y-74400000D03*
X104100000Y-62970000D03*
X116800000Y-74400000D03*
X116800000Y-62970000D03*
%TD*%
D20*
%TO.C,R4*%
X126875000Y-79300000D03*
X128525000Y-79300000D03*
%TD*%
D26*
%TO.C,J8*%
X159400000Y-91660000D03*
D24*
X159400000Y-96740000D03*
%TD*%
D27*
%TO.C,C5*%
X139900000Y-87200000D03*
X138350000Y-87200000D03*
%TD*%
D26*
%TO.C,J7*%
X159300000Y-66060000D03*
D24*
X159300000Y-71140000D03*
%TD*%
D28*
%TO.C,C8*%
X144700000Y-68500000D03*
X144700000Y-66950000D03*
%TD*%
%TO.C,C9*%
X120500000Y-80050000D03*
X120500000Y-78500000D03*
%TD*%
D29*
%TO.C,C18*%
X158250000Y-57000000D03*
X161200000Y-57000000D03*
%TD*%
D11*
%TO.C,R10*%
X156050000Y-56200000D03*
X156050000Y-54550000D03*
%TD*%
D27*
%TO.C,C4*%
X139700000Y-73400000D03*
X138150000Y-73400000D03*
%TD*%
D14*
%TO.C,C16*%
X144100000Y-81150000D03*
X144100000Y-82700000D03*
%TD*%
D29*
%TO.C,C20*%
X165500000Y-80200000D03*
X168450000Y-80200000D03*
%TD*%
D15*
%TO.C,R12*%
X166650000Y-53000000D03*
X165000000Y-53000000D03*
%TD*%
D10*
%TO.C,H2*%
X176500000Y-109300000D03*
%TD*%
D27*
%TO.C,C11*%
X128475000Y-77200000D03*
X126925000Y-77200000D03*
%TD*%
D11*
%TO.C,R2*%
X118300000Y-80050000D03*
X118300000Y-78400000D03*
%TD*%
D20*
%TO.C,R6*%
X126875000Y-74400000D03*
X128525000Y-74400000D03*
%TD*%
D21*
%TO.C,C7*%
X142525000Y-89200000D03*
X144075000Y-89200000D03*
%TD*%
D27*
%TO.C,C13*%
X125100000Y-79300000D03*
X123550000Y-79300000D03*
%TD*%
D21*
%TO.C,C29*%
X173400000Y-82600000D03*
X174950000Y-82600000D03*
%TD*%
D24*
%TO.C,J6*%
X168300000Y-90445000D03*
D25*
X174650000Y-88315000D03*
X174650000Y-99745000D03*
D24*
X171500000Y-88315000D03*
X171500000Y-99745000D03*
X177850000Y-88315000D03*
X177850000Y-99745000D03*
X165150000Y-88315000D03*
X165150000Y-99745000D03*
%TD*%
D28*
%TO.C,C17*%
X144100000Y-85800000D03*
X144100000Y-84250000D03*
%TD*%
D27*
%TO.C,C23*%
X160500000Y-52500000D03*
X158950000Y-52500000D03*
%TD*%
D30*
%TO.C,C21*%
X168450000Y-82700000D03*
X165500000Y-82700000D03*
%TD*%
D21*
%TO.C,C22*%
X158950000Y-59000000D03*
X160500000Y-59000000D03*
%TD*%
D15*
%TO.C,R5*%
X128525000Y-80940000D03*
X126875000Y-80940000D03*
%TD*%
D27*
%TO.C,C28*%
X174950000Y-80300000D03*
X173400000Y-80300000D03*
%TD*%
%TO.C,C12*%
X128475000Y-83200000D03*
X126925000Y-83200000D03*
%TD*%
D31*
%TO.C,J4*%
X150240000Y-101600000D03*
D32*
X150240000Y-107600000D03*
D33*
X154940000Y-104600000D03*
%TD*%
D14*
%TO.C,C10*%
X120500000Y-82900000D03*
X120500000Y-84450000D03*
%TD*%
D34*
%TO.C,D1*%
X159800000Y-104100000D03*
X159800000Y-106200000D03*
%TD*%
D19*
%TO.C,C2*%
X140375000Y-93800000D03*
X131675000Y-93800000D03*
%TD*%
D35*
%TO.C,R3*%
X118300000Y-82900000D03*
X118300000Y-84550000D03*
%TD*%
D20*
%TO.C,R11*%
X165000000Y-58500000D03*
X166650000Y-58500000D03*
%TD*%
D13*
%TO.C,L2*%
X147500000Y-72500000D03*
X153500000Y-72500000D03*
%TD*%
D10*
%TO.C,H3*%
X106000000Y-55000000D03*
%TD*%
D27*
%TO.C,C25*%
X167750000Y-84900000D03*
X166200000Y-84900000D03*
%TD*%
D35*
%TO.C,R9*%
X163500000Y-80600000D03*
X163500000Y-82250000D03*
%TD*%
D27*
%TO.C,C26*%
X166600000Y-56700000D03*
X165050000Y-56700000D03*
%TD*%
D21*
%TO.C,C6*%
X142550000Y-87400000D03*
X144100000Y-87400000D03*
%TD*%
D15*
%TO.C,R14*%
X175000000Y-84900000D03*
X173350000Y-84900000D03*
%TD*%
D24*
%TO.C,J3*%
X113750000Y-98000000D03*
D25*
X107400000Y-100130000D03*
X107400000Y-88700000D03*
D24*
X110550000Y-100130000D03*
X110550000Y-88700000D03*
X104200000Y-100130000D03*
X104200000Y-88700000D03*
X116900000Y-100130000D03*
X116900000Y-88700000D03*
%TD*%
D21*
%TO.C,C24*%
X166200000Y-78000000D03*
X167750000Y-78000000D03*
%TD*%
D20*
%TO.C,R1*%
X142550000Y-70900000D03*
X144200000Y-70900000D03*
%TD*%
D21*
%TO.C,C3*%
X142650000Y-72500000D03*
X144200000Y-72500000D03*
%TD*%
D36*
%TO.C,SW1*%
X141960000Y-109600000D03*
X129460000Y-109600000D03*
X141960000Y-104600000D03*
X129460000Y-104600000D03*
%TD*%
D28*
%TO.C,C15*%
X144100000Y-78100000D03*
X144100000Y-79650000D03*
%TD*%
D24*
%TO.C,J5*%
X168250000Y-64925000D03*
D25*
X174600000Y-62795000D03*
X174600000Y-74225000D03*
D24*
X171450000Y-62795000D03*
X171450000Y-74225000D03*
X177800000Y-62795000D03*
X177800000Y-74225000D03*
X165100000Y-62795000D03*
X165100000Y-74225000D03*
%TD*%
D37*
%TO.C,J1*%
X101350000Y-81882500D03*
X108350000Y-81882500D03*
D38*
X111150000Y-84182500D03*
X106050000Y-79582500D03*
X103050000Y-79582500D03*
D39*
X110050000Y-79582500D03*
%TD*%
D30*
%TO.C,C19*%
X161200000Y-54500000D03*
X158250000Y-54500000D03*
%TD*%
M02*
