%TF.GenerationSoftware,KiCad,Pcbnew,7.0.7*%
%TF.CreationDate,2024-04-25T11:27:23-04:00*%
%TF.ProjectId,TPA3116_breakout_v1,54504133-3131-4365-9f62-7265616b6f75,rev?*%
%TF.SameCoordinates,Original*%
%TF.FileFunction,Copper,L2,Bot*%
%TF.FilePolarity,Positive*%
%FSLAX46Y46*%
G04 Gerber Fmt 4.6, Leading zero omitted, Abs format (unit mm)*
G04 Created by KiCad (PCBNEW 7.0.7) date 2024-04-25 11:27:23*
%MOMM*%
%LPD*%
G01*
G04 APERTURE LIST*
G04 Aperture macros list*
%AMRoundRect*
0 Rectangle with rounded corners*
0 $1 Rounding radius*
0 $2 $3 $4 $5 $6 $7 $8 $9 X,Y pos of 4 corners*
0 Add a 4 corners polygon primitive as box body*
4,1,4,$2,$3,$4,$5,$6,$7,$8,$9,$2,$3,0*
0 Add four circle primitives for the rounded corners*
1,1,$1+$1,$2,$3*
1,1,$1+$1,$4,$5*
1,1,$1+$1,$6,$7*
1,1,$1+$1,$8,$9*
0 Add four rect primitives between the rounded corners*
20,1,$1+$1,$2,$3,$4,$5,0*
20,1,$1+$1,$4,$5,$6,$7,0*
20,1,$1+$1,$6,$7,$8,$9,0*
20,1,$1+$1,$8,$9,$2,$3,0*%
G04 Aperture macros list end*
%TA.AperFunction,ComponentPad*%
%ADD10C,5.600000*%
%TD*%
%TA.AperFunction,ComponentPad*%
%ADD11O,1.700000X1.700000*%
%TD*%
%TA.AperFunction,ComponentPad*%
%ADD12R,1.700000X1.700000*%
%TD*%
%TA.AperFunction,ComponentPad*%
%ADD13C,3.000000*%
%TD*%
%TA.AperFunction,ComponentPad*%
%ADD14R,3.000000X3.000000*%
%TD*%
%TA.AperFunction,ComponentPad*%
%ADD15R,3.500000X3.500000*%
%TD*%
%TA.AperFunction,ComponentPad*%
%ADD16RoundRect,0.750000X1.000000X-0.750000X1.000000X0.750000X-1.000000X0.750000X-1.000000X-0.750000X0*%
%TD*%
%TA.AperFunction,ComponentPad*%
%ADD17RoundRect,0.875000X0.875000X-0.875000X0.875000X0.875000X-0.875000X0.875000X-0.875000X-0.875000X0*%
%TD*%
%TA.AperFunction,ComponentPad*%
%ADD18O,3.048000X1.850000*%
%TD*%
%TA.AperFunction,ComponentPad*%
%ADD19O,2.000000X1.400000*%
%TD*%
%TA.AperFunction,ComponentPad*%
%ADD20R,2.000000X1.400000*%
%TD*%
%TA.AperFunction,ViaPad*%
%ADD21C,0.800000*%
%TD*%
%TA.AperFunction,Conductor*%
%ADD22C,0.250000*%
%TD*%
G04 APERTURE END LIST*
D10*
%TO.P,H4,1*%
%TO.N,N/C*%
X176500000Y-55000000D03*
%TD*%
%TO.P,H1,1*%
%TO.N,N/C*%
X106000000Y-109300000D03*
%TD*%
D11*
%TO.P,J9,4,Pin_4*%
%TO.N,SYNC*%
X119400000Y-110900000D03*
%TO.P,J9,3,Pin_3*%
%TO.N,MUTE*%
X116860000Y-110900000D03*
%TO.P,J9,2,Pin_2*%
%TO.N,GVCC*%
X114320000Y-110900000D03*
D12*
%TO.P,J9,1,Pin_1*%
%TO.N,GND*%
X111780000Y-110900000D03*
%TD*%
D13*
%TO.P,J2,R*%
%TO.N,unconnected-(J2-PadR)*%
X110450000Y-74400000D03*
%TO.P,J2,RN*%
%TO.N,unconnected-(J2-PadRN)*%
X110450000Y-62970000D03*
%TO.P,J2,S*%
%TO.N,GND*%
X104100000Y-74400000D03*
%TO.P,J2,SN*%
X104100000Y-62970000D03*
%TO.P,J2,T*%
%TO.N,Net-(C9-Pad1)*%
X116800000Y-74400000D03*
%TO.P,J2,TN*%
X116800000Y-62970000D03*
%TD*%
D14*
%TO.P,J8,1,Pin_1*%
%TO.N,LEFTPOUT*%
X159400000Y-91660000D03*
D13*
%TO.P,J8,2,Pin_2*%
%TO.N,LEFTNOUT*%
X159400000Y-96740000D03*
%TD*%
D14*
%TO.P,J7,1,Pin_1*%
%TO.N,RIGHTPOUT*%
X159300000Y-66060000D03*
D13*
%TO.P,J7,2,Pin_2*%
%TO.N,RIGHTNOUT*%
X159300000Y-71140000D03*
%TD*%
D10*
%TO.P,H2,1*%
%TO.N,N/C*%
X176500000Y-109300000D03*
%TD*%
D13*
%TO.P,J6,R*%
%TO.N,unconnected-(J6-PadR)*%
X171500000Y-88315000D03*
%TO.P,J6,RN*%
%TO.N,unconnected-(J6-PadRN)*%
X171500000Y-99745000D03*
%TO.P,J6,S*%
%TO.N,LEFTNOUT*%
X177850000Y-88315000D03*
%TO.P,J6,SN*%
X177850000Y-99745000D03*
%TO.P,J6,T*%
%TO.N,LEFTPOUT*%
X165150000Y-88315000D03*
%TO.P,J6,TN*%
%TO.N,unconnected-(J6-PadTN)*%
X165150000Y-99745000D03*
%TD*%
D15*
%TO.P,J4,1*%
%TO.N,+24V*%
X150240000Y-101600000D03*
D16*
%TO.P,J4,2*%
%TO.N,GND*%
X150240000Y-107600000D03*
D17*
%TO.P,J4,3*%
X154940000Y-104600000D03*
%TD*%
D10*
%TO.P,H3,1*%
%TO.N,N/C*%
X106000000Y-55000000D03*
%TD*%
D13*
%TO.P,J3,R*%
%TO.N,unconnected-(J3-PadR)*%
X110550000Y-100130000D03*
%TO.P,J3,RN*%
%TO.N,unconnected-(J3-PadRN)*%
X110550000Y-88700000D03*
%TO.P,J3,S*%
%TO.N,GND*%
X104200000Y-100130000D03*
%TO.P,J3,SN*%
X104200000Y-88700000D03*
%TO.P,J3,T*%
%TO.N,Net-(C10-Pad1)*%
X116900000Y-100130000D03*
%TO.P,J3,TN*%
X116900000Y-88700000D03*
%TD*%
D18*
%TO.P,SW1,2,2*%
%TO.N,MUTE*%
X141960000Y-109600000D03*
X129460000Y-109600000D03*
%TO.P,SW1,1,1*%
%TO.N,GVCC*%
X141960000Y-104600000D03*
X129460000Y-104600000D03*
%TD*%
D13*
%TO.P,J5,R*%
%TO.N,unconnected-(J5-PadR)*%
X171450000Y-62795000D03*
%TO.P,J5,RN*%
%TO.N,unconnected-(J5-PadRN)*%
X171450000Y-74225000D03*
%TO.P,J5,S*%
%TO.N,RIGHTNOUT*%
X177800000Y-62795000D03*
%TO.P,J5,SN*%
X177800000Y-74225000D03*
%TO.P,J5,T*%
%TO.N,RIGHTPOUT*%
X165100000Y-62795000D03*
%TO.P,J5,TN*%
%TO.N,unconnected-(J5-PadTN)*%
X165100000Y-74225000D03*
%TD*%
D19*
%TO.P,J1,G*%
%TO.N,GND*%
X111150000Y-84182500D03*
%TO.P,J1,R*%
%TO.N,Net-(C9-Pad1)*%
X106050000Y-79582500D03*
%TO.P,J1,S*%
%TO.N,GND*%
X103050000Y-79582500D03*
D20*
%TO.P,J1,T*%
%TO.N,Net-(C10-Pad1)*%
X110050000Y-79582500D03*
%TD*%
D21*
%TO.N,GND*%
X117800000Y-103600000D03*
X114500000Y-106000000D03*
X115700000Y-112300000D03*
X118300000Y-108900000D03*
X136700000Y-73400000D03*
%TO.N,GVCC*%
X125200000Y-77300000D03*
X125200000Y-74400000D03*
%TO.N,GND*%
X144700000Y-65600000D03*
X145300000Y-89200000D03*
X145300000Y-87400000D03*
%TO.N,GVCC*%
X122400000Y-85600000D03*
X122400000Y-82000000D03*
%TO.N,GND*%
X144400000Y-73800000D03*
X134900000Y-85500000D03*
X134900000Y-84300000D03*
X134900000Y-83000000D03*
X138200000Y-83000000D03*
X138200000Y-84300000D03*
X138200000Y-85500000D03*
X136700000Y-85500000D03*
X136700000Y-84300000D03*
X136700000Y-83000000D03*
X136700000Y-78000000D03*
X136700000Y-76800000D03*
X136700000Y-75600000D03*
X138200000Y-75600000D03*
X138200000Y-76800000D03*
X138200000Y-78000000D03*
X135000000Y-75600000D03*
X135000000Y-76800000D03*
X135000000Y-78000000D03*
X136700000Y-79100000D03*
X137700000Y-79100000D03*
X137700000Y-80500000D03*
X137700000Y-81900000D03*
X136700000Y-81900000D03*
X135600000Y-81900000D03*
X135600000Y-80500000D03*
X135600000Y-79100000D03*
X169500000Y-78000000D03*
%TO.N,+24V*%
X143000000Y-68300000D03*
X139900000Y-70700000D03*
X142700000Y-92000000D03*
X141200000Y-92000000D03*
X141500000Y-68300000D03*
X143000000Y-69500000D03*
X139600000Y-92000000D03*
X139600000Y-90900000D03*
X139900000Y-69500000D03*
X141500000Y-70700000D03*
X141200000Y-90900000D03*
X142700000Y-90900000D03*
X139900000Y-68300000D03*
X141200000Y-89800000D03*
X141500000Y-69500000D03*
X139600000Y-89800000D03*
%TO.N,GND*%
X118300000Y-85600000D03*
X122300000Y-79300000D03*
X118300000Y-77200000D03*
%TD*%
D22*
%TO.N,GVCC*%
X125200000Y-74400000D02*
X125200000Y-77300000D01*
X122400000Y-85600000D02*
X122400000Y-82000000D01*
%TD*%
%TA.AperFunction,Conductor*%
%TO.N,+24V*%
G36*
X143481694Y-67518306D02*
G01*
X143500000Y-67562500D01*
X143500000Y-92937500D01*
X143481694Y-92981694D01*
X143437500Y-93000000D01*
X139062500Y-93000000D01*
X139018306Y-92981694D01*
X139000000Y-92937500D01*
X139000000Y-67562500D01*
X139018306Y-67518306D01*
X139062500Y-67500000D01*
X143437500Y-67500000D01*
X143481694Y-67518306D01*
G37*
%TD.AperFunction*%
%TD*%
%TA.AperFunction,Conductor*%
%TO.N,GND*%
G36*
X177890016Y-50517528D02*
G01*
X177894291Y-50517902D01*
X178279195Y-50568577D01*
X178283425Y-50569322D01*
X178662453Y-50653350D01*
X178666601Y-50654461D01*
X178871273Y-50718994D01*
X179036857Y-50771203D01*
X179040913Y-50772678D01*
X179220245Y-50846960D01*
X179399574Y-50921241D01*
X179403490Y-50923067D01*
X179747833Y-51102321D01*
X179751568Y-51104478D01*
X180078988Y-51313067D01*
X180082519Y-51315539D01*
X180247315Y-51441991D01*
X180390511Y-51551869D01*
X180393804Y-51554631D01*
X180680049Y-51816927D01*
X180683072Y-51819950D01*
X180945366Y-52106193D01*
X180948128Y-52109486D01*
X181168812Y-52397087D01*
X181184454Y-52417471D01*
X181186932Y-52421011D01*
X181395521Y-52748431D01*
X181397682Y-52752173D01*
X181576932Y-53096509D01*
X181578758Y-53100425D01*
X181727319Y-53459082D01*
X181728796Y-53463142D01*
X181845534Y-53833386D01*
X181846652Y-53837560D01*
X181930673Y-54216554D01*
X181931423Y-54220809D01*
X181982095Y-54605695D01*
X181982472Y-54609999D01*
X181999500Y-55000000D01*
X181999500Y-109300000D01*
X181982472Y-109690000D01*
X181982095Y-109694304D01*
X181931423Y-110079190D01*
X181930673Y-110083445D01*
X181846652Y-110462439D01*
X181845534Y-110466613D01*
X181728796Y-110836857D01*
X181727319Y-110840917D01*
X181578758Y-111199574D01*
X181576932Y-111203490D01*
X181397682Y-111547826D01*
X181395521Y-111551568D01*
X181186932Y-111878988D01*
X181184454Y-111882528D01*
X180948130Y-112190511D01*
X180945356Y-112193817D01*
X180847600Y-112300500D01*
X180683088Y-112480033D01*
X180680033Y-112483088D01*
X180393821Y-112745353D01*
X180390511Y-112748130D01*
X180082528Y-112984454D01*
X180078988Y-112986932D01*
X179751568Y-113195521D01*
X179747826Y-113197682D01*
X179403490Y-113376932D01*
X179399574Y-113378758D01*
X179040917Y-113527319D01*
X179036857Y-113528796D01*
X178666613Y-113645534D01*
X178662439Y-113646652D01*
X178283445Y-113730673D01*
X178279190Y-113731423D01*
X177894304Y-113782095D01*
X177890000Y-113782472D01*
X177500000Y-113799500D01*
X104060000Y-113799500D01*
X103669999Y-113782472D01*
X103665695Y-113782095D01*
X103280809Y-113731423D01*
X103276554Y-113730673D01*
X102897560Y-113646652D01*
X102893386Y-113645534D01*
X102523142Y-113528796D01*
X102519082Y-113527319D01*
X102160425Y-113378758D01*
X102156509Y-113376932D01*
X101812173Y-113197682D01*
X101808431Y-113195521D01*
X101481011Y-112986932D01*
X101477471Y-112984454D01*
X101169488Y-112748130D01*
X101166193Y-112745366D01*
X100879950Y-112483072D01*
X100876927Y-112480049D01*
X100614631Y-112193804D01*
X100611869Y-112190511D01*
X100556253Y-112118031D01*
X100375539Y-111882519D01*
X100373067Y-111878988D01*
X100164478Y-111551568D01*
X100162317Y-111547826D01*
X100130228Y-111486184D01*
X99983067Y-111203490D01*
X99981241Y-111199574D01*
X99857153Y-110900000D01*
X99832678Y-110840913D01*
X99831203Y-110836857D01*
X99758078Y-110604935D01*
X99714461Y-110466601D01*
X99713350Y-110462453D01*
X99629322Y-110083425D01*
X99628576Y-110079190D01*
X99622140Y-110030302D01*
X99577902Y-109694291D01*
X99577528Y-109690016D01*
X99560500Y-109300000D01*
X99560500Y-109299999D01*
X102994415Y-109299999D01*
X103014738Y-109648929D01*
X103075430Y-109993133D01*
X103075430Y-109993134D01*
X103175672Y-110327965D01*
X103175674Y-110327972D01*
X103245017Y-110488727D01*
X103314111Y-110648904D01*
X103488870Y-110951596D01*
X103697588Y-111231953D01*
X103873970Y-111418907D01*
X103937443Y-111486184D01*
X103952717Y-111499000D01*
X104205189Y-111710849D01*
X104402553Y-111840658D01*
X104483942Y-111894189D01*
X104497207Y-111902913D01*
X104809549Y-112059777D01*
X105137989Y-112179319D01*
X105137992Y-112179319D01*
X105137993Y-112179320D01*
X105478075Y-112259921D01*
X105478080Y-112259921D01*
X105478086Y-112259923D01*
X105825241Y-112300500D01*
X105825244Y-112300500D01*
X106174756Y-112300500D01*
X106174759Y-112300500D01*
X106521914Y-112259923D01*
X106521920Y-112259921D01*
X106521924Y-112259921D01*
X106814788Y-112190511D01*
X106862011Y-112179319D01*
X107190451Y-112059777D01*
X107502793Y-111902913D01*
X107705333Y-111769700D01*
X110730000Y-111769700D01*
X110741603Y-111828036D01*
X110785806Y-111894189D01*
X110785810Y-111894193D01*
X110851963Y-111938396D01*
X110910299Y-111949999D01*
X110910303Y-111950000D01*
X111679999Y-111950000D01*
X111680000Y-111949999D01*
X111680000Y-111499000D01*
X111698907Y-111440809D01*
X111748407Y-111404845D01*
X111779000Y-111400000D01*
X111781000Y-111400000D01*
X111839191Y-111418907D01*
X111875155Y-111468407D01*
X111880000Y-111499000D01*
X111880000Y-111949999D01*
X111880001Y-111950000D01*
X112649697Y-111950000D01*
X112649700Y-111949999D01*
X112708036Y-111938396D01*
X112774189Y-111894193D01*
X112774193Y-111894189D01*
X112818396Y-111828036D01*
X112829999Y-111769700D01*
X112830000Y-111769697D01*
X112830000Y-111000001D01*
X112829999Y-111000000D01*
X112379000Y-111000000D01*
X112320809Y-110981093D01*
X112284845Y-110931593D01*
X112280000Y-110901000D01*
X112280000Y-110900003D01*
X113264417Y-110900003D01*
X113284698Y-111105929D01*
X113284699Y-111105934D01*
X113344768Y-111303954D01*
X113442316Y-111486452D01*
X113573585Y-111646404D01*
X113573590Y-111646410D01*
X113573595Y-111646414D01*
X113733547Y-111777683D01*
X113733548Y-111777683D01*
X113733550Y-111777685D01*
X113916046Y-111875232D01*
X114053997Y-111917078D01*
X114114065Y-111935300D01*
X114114070Y-111935301D01*
X114319997Y-111955583D01*
X114320000Y-111955583D01*
X114320003Y-111955583D01*
X114525929Y-111935301D01*
X114525934Y-111935300D01*
X114525933Y-111935299D01*
X114723954Y-111875232D01*
X114906450Y-111777685D01*
X115066410Y-111646410D01*
X115197685Y-111486450D01*
X115295232Y-111303954D01*
X115355300Y-111105934D01*
X115355301Y-111105929D01*
X115375583Y-110900003D01*
X115804417Y-110900003D01*
X115824698Y-111105929D01*
X115824699Y-111105934D01*
X115884768Y-111303954D01*
X115982316Y-111486452D01*
X116113585Y-111646404D01*
X116113590Y-111646410D01*
X116113595Y-111646414D01*
X116273547Y-111777683D01*
X116273548Y-111777683D01*
X116273550Y-111777685D01*
X116456046Y-111875232D01*
X116593996Y-111917078D01*
X116654065Y-111935300D01*
X116654070Y-111935301D01*
X116859997Y-111955583D01*
X116860000Y-111955583D01*
X116860003Y-111955583D01*
X117065929Y-111935301D01*
X117065934Y-111935300D01*
X117065933Y-111935299D01*
X117263954Y-111875232D01*
X117446450Y-111777685D01*
X117606410Y-111646410D01*
X117737685Y-111486450D01*
X117835232Y-111303954D01*
X117895300Y-111105934D01*
X117895301Y-111105929D01*
X117915583Y-110900003D01*
X118344417Y-110900003D01*
X118364698Y-111105929D01*
X118364699Y-111105934D01*
X118424768Y-111303954D01*
X118522316Y-111486452D01*
X118653585Y-111646404D01*
X118653590Y-111646410D01*
X118653595Y-111646414D01*
X118813547Y-111777683D01*
X118813548Y-111777683D01*
X118813550Y-111777685D01*
X118996046Y-111875232D01*
X119133996Y-111917078D01*
X119194065Y-111935300D01*
X119194070Y-111935301D01*
X119399997Y-111955583D01*
X119400000Y-111955583D01*
X119400003Y-111955583D01*
X119605929Y-111935301D01*
X119605934Y-111935300D01*
X119605933Y-111935299D01*
X119803954Y-111875232D01*
X119986450Y-111777685D01*
X120146410Y-111646410D01*
X120277685Y-111486450D01*
X120375232Y-111303954D01*
X120435300Y-111105934D01*
X120435301Y-111105929D01*
X120455583Y-110900003D01*
X120455583Y-110899996D01*
X120435301Y-110694070D01*
X120435300Y-110694065D01*
X120391944Y-110551139D01*
X120375232Y-110496046D01*
X120277685Y-110313550D01*
X120146410Y-110153590D01*
X120060938Y-110083445D01*
X119986452Y-110022316D01*
X119803954Y-109924768D01*
X119605934Y-109864699D01*
X119605929Y-109864698D01*
X119400003Y-109844417D01*
X119399997Y-109844417D01*
X119194070Y-109864698D01*
X119194065Y-109864699D01*
X118996045Y-109924768D01*
X118813547Y-110022316D01*
X118653595Y-110153585D01*
X118653585Y-110153595D01*
X118522316Y-110313547D01*
X118424768Y-110496045D01*
X118364699Y-110694065D01*
X118364698Y-110694070D01*
X118344417Y-110899996D01*
X118344417Y-110900003D01*
X117915583Y-110900003D01*
X117915583Y-110899996D01*
X117895301Y-110694070D01*
X117895300Y-110694065D01*
X117851944Y-110551139D01*
X117835232Y-110496046D01*
X117737685Y-110313550D01*
X117606410Y-110153590D01*
X117520938Y-110083445D01*
X117446452Y-110022316D01*
X117263954Y-109924768D01*
X117065934Y-109864699D01*
X117065929Y-109864698D01*
X116860003Y-109844417D01*
X116859997Y-109844417D01*
X116654070Y-109864698D01*
X116654065Y-109864699D01*
X116456045Y-109924768D01*
X116273547Y-110022316D01*
X116113595Y-110153585D01*
X116113585Y-110153595D01*
X115982316Y-110313547D01*
X115884768Y-110496045D01*
X115824699Y-110694065D01*
X115824698Y-110694070D01*
X115804417Y-110899996D01*
X115804417Y-110900003D01*
X115375583Y-110900003D01*
X115375583Y-110899996D01*
X115355301Y-110694070D01*
X115355300Y-110694065D01*
X115311944Y-110551139D01*
X115295232Y-110496046D01*
X115197685Y-110313550D01*
X115066410Y-110153590D01*
X114980938Y-110083445D01*
X114906452Y-110022316D01*
X114723954Y-109924768D01*
X114525934Y-109864699D01*
X114525929Y-109864698D01*
X114320003Y-109844417D01*
X114319997Y-109844417D01*
X114114070Y-109864698D01*
X114114065Y-109864699D01*
X113916045Y-109924768D01*
X113733547Y-110022316D01*
X113573595Y-110153585D01*
X113573585Y-110153595D01*
X113442316Y-110313547D01*
X113344768Y-110496045D01*
X113284699Y-110694065D01*
X113284698Y-110694070D01*
X113264417Y-110899996D01*
X113264417Y-110900003D01*
X112280000Y-110900003D01*
X112280000Y-110899000D01*
X112298907Y-110840809D01*
X112348407Y-110804845D01*
X112379000Y-110800000D01*
X112829999Y-110800000D01*
X112830000Y-110799999D01*
X112830000Y-110030302D01*
X112829999Y-110030299D01*
X112818396Y-109971963D01*
X112774193Y-109905810D01*
X112774189Y-109905806D01*
X112708036Y-109861603D01*
X112649700Y-109850000D01*
X111880001Y-109850000D01*
X111880000Y-109850001D01*
X111880000Y-110301000D01*
X111861093Y-110359191D01*
X111811593Y-110395155D01*
X111781000Y-110400000D01*
X111779000Y-110400000D01*
X111720809Y-110381093D01*
X111684845Y-110331593D01*
X111680000Y-110301000D01*
X111680000Y-109850001D01*
X111679999Y-109850000D01*
X110910299Y-109850000D01*
X110851963Y-109861603D01*
X110785810Y-109905806D01*
X110785806Y-109905810D01*
X110741603Y-109971963D01*
X110730000Y-110030299D01*
X110730000Y-110799999D01*
X110730001Y-110800000D01*
X111181000Y-110800000D01*
X111239191Y-110818907D01*
X111275155Y-110868407D01*
X111280000Y-110899000D01*
X111280000Y-110901000D01*
X111261093Y-110959191D01*
X111211593Y-110995155D01*
X111181000Y-111000000D01*
X110730001Y-111000000D01*
X110730000Y-111000001D01*
X110730000Y-111769700D01*
X107705333Y-111769700D01*
X107794811Y-111710849D01*
X108062558Y-111486183D01*
X108302412Y-111231953D01*
X108511130Y-110951596D01*
X108685889Y-110648904D01*
X108824326Y-110327971D01*
X108924569Y-109993136D01*
X108985262Y-109648927D01*
X108991245Y-109546205D01*
X127731661Y-109546205D01*
X127741888Y-109760904D01*
X127741889Y-109760911D01*
X127792561Y-109969785D01*
X127792562Y-109969788D01*
X127792563Y-109969790D01*
X127803224Y-109993134D01*
X127881852Y-110165307D01*
X127881855Y-110165312D01*
X128006531Y-110340396D01*
X128006533Y-110340398D01*
X128006534Y-110340399D01*
X128162097Y-110488727D01*
X128342920Y-110604935D01*
X128542468Y-110684822D01*
X128753528Y-110725500D01*
X128753531Y-110725500D01*
X130112618Y-110725500D01*
X130272971Y-110710188D01*
X130479209Y-110649631D01*
X130670259Y-110551138D01*
X130839217Y-110418268D01*
X130979976Y-110255824D01*
X131087448Y-110069677D01*
X131157750Y-109866554D01*
X131188339Y-109653797D01*
X131183214Y-109546205D01*
X140231661Y-109546205D01*
X140241888Y-109760904D01*
X140241889Y-109760911D01*
X140292561Y-109969785D01*
X140292562Y-109969788D01*
X140292563Y-109969790D01*
X140303224Y-109993134D01*
X140381852Y-110165307D01*
X140381855Y-110165312D01*
X140506531Y-110340396D01*
X140506533Y-110340398D01*
X140506534Y-110340399D01*
X140662097Y-110488727D01*
X140842920Y-110604935D01*
X141042468Y-110684822D01*
X141253528Y-110725500D01*
X141253531Y-110725500D01*
X142612618Y-110725500D01*
X142772971Y-110710188D01*
X142979209Y-110649631D01*
X143170259Y-110551138D01*
X143339217Y-110418268D01*
X143479976Y-110255824D01*
X143587448Y-110069677D01*
X143657750Y-109866554D01*
X143688339Y-109653797D01*
X143678112Y-109439096D01*
X143627437Y-109230210D01*
X143538146Y-109034690D01*
X143478601Y-108951070D01*
X143413468Y-108859603D01*
X143413466Y-108859601D01*
X143257903Y-108711273D01*
X143077080Y-108595065D01*
X143077077Y-108595064D01*
X143077076Y-108595063D01*
X142965435Y-108550369D01*
X142877532Y-108515178D01*
X142666472Y-108474500D01*
X141307382Y-108474500D01*
X141147028Y-108489812D01*
X140940786Y-108550370D01*
X140749743Y-108648860D01*
X140749740Y-108648862D01*
X140580782Y-108781731D01*
X140440023Y-108944176D01*
X140332550Y-109130327D01*
X140262251Y-109333441D01*
X140262249Y-109333447D01*
X140231661Y-109546197D01*
X140231661Y-109546205D01*
X131183214Y-109546205D01*
X131178112Y-109439096D01*
X131127437Y-109230210D01*
X131038146Y-109034690D01*
X130978601Y-108951070D01*
X130913468Y-108859603D01*
X130913466Y-108859601D01*
X130757903Y-108711273D01*
X130577080Y-108595065D01*
X130577077Y-108595064D01*
X130577076Y-108595063D01*
X130465435Y-108550369D01*
X130377532Y-108515178D01*
X130166472Y-108474500D01*
X128807382Y-108474500D01*
X128647028Y-108489812D01*
X128440786Y-108550370D01*
X128249743Y-108648860D01*
X128249740Y-108648862D01*
X128080782Y-108781731D01*
X127940023Y-108944176D01*
X127832550Y-109130327D01*
X127762251Y-109333441D01*
X127762249Y-109333447D01*
X127731661Y-109546197D01*
X127731661Y-109546205D01*
X108991245Y-109546205D01*
X109005585Y-109300000D01*
X108985262Y-108951073D01*
X108924569Y-108606864D01*
X108824326Y-108272029D01*
X108685889Y-107951096D01*
X108511130Y-107648404D01*
X108400647Y-107499999D01*
X148290000Y-107499999D01*
X148290001Y-107500000D01*
X148641000Y-107500000D01*
X148699191Y-107518907D01*
X148735155Y-107568407D01*
X148740000Y-107599000D01*
X148740000Y-107601000D01*
X148721093Y-107659191D01*
X148671593Y-107695155D01*
X148641000Y-107700000D01*
X148290002Y-107700000D01*
X148290001Y-107700001D01*
X148290001Y-108405095D01*
X148300079Y-108518461D01*
X148300080Y-108518468D01*
X148353229Y-108704216D01*
X148442684Y-108875471D01*
X148564781Y-109025212D01*
X148564787Y-109025218D01*
X148714528Y-109147315D01*
X148885783Y-109236770D01*
X149071533Y-109289920D01*
X149184903Y-109300000D01*
X149184904Y-109300000D01*
X150139998Y-109299999D01*
X150140000Y-109299997D01*
X150140000Y-108199000D01*
X150158907Y-108140809D01*
X150208407Y-108104845D01*
X150239000Y-108100000D01*
X150241000Y-108100000D01*
X150299191Y-108118907D01*
X150335155Y-108168407D01*
X150340000Y-108199000D01*
X150340000Y-109299998D01*
X150340001Y-109299999D01*
X151295095Y-109299999D01*
X173494415Y-109299999D01*
X173514738Y-109648929D01*
X173575430Y-109993133D01*
X173575430Y-109993134D01*
X173675672Y-110327965D01*
X173675674Y-110327972D01*
X173745017Y-110488727D01*
X173814111Y-110648904D01*
X173988870Y-110951596D01*
X174197588Y-111231953D01*
X174373970Y-111418907D01*
X174437443Y-111486184D01*
X174452717Y-111499000D01*
X174705189Y-111710849D01*
X174902553Y-111840658D01*
X174983942Y-111894189D01*
X174997207Y-111902913D01*
X175309549Y-112059777D01*
X175637989Y-112179319D01*
X175637992Y-112179319D01*
X175637993Y-112179320D01*
X175978075Y-112259921D01*
X175978080Y-112259921D01*
X175978086Y-112259923D01*
X176325241Y-112300500D01*
X176325244Y-112300500D01*
X176674756Y-112300500D01*
X176674759Y-112300500D01*
X177021914Y-112259923D01*
X177021920Y-112259921D01*
X177021924Y-112259921D01*
X177314788Y-112190511D01*
X177362011Y-112179319D01*
X177690451Y-112059777D01*
X178002793Y-111902913D01*
X178294811Y-111710849D01*
X178562558Y-111486183D01*
X178802412Y-111231953D01*
X179011130Y-110951596D01*
X179185889Y-110648904D01*
X179324326Y-110327971D01*
X179424569Y-109993136D01*
X179485262Y-109648927D01*
X179505585Y-109300000D01*
X179485262Y-108951073D01*
X179424569Y-108606864D01*
X179324326Y-108272029D01*
X179185889Y-107951096D01*
X179011130Y-107648404D01*
X178802412Y-107368047D01*
X178562558Y-107113817D01*
X178540317Y-107095155D01*
X178464567Y-107031593D01*
X178294811Y-106889151D01*
X178200157Y-106826896D01*
X178002794Y-106697087D01*
X177690453Y-106540224D01*
X177690452Y-106540223D01*
X177690451Y-106540223D01*
X177362011Y-106420681D01*
X177362012Y-106420681D01*
X177362006Y-106420679D01*
X177021924Y-106340078D01*
X176888885Y-106324528D01*
X176674759Y-106299500D01*
X176325241Y-106299500D01*
X176133950Y-106321858D01*
X175978075Y-106340078D01*
X175637993Y-106420679D01*
X175441191Y-106492309D01*
X175309549Y-106540223D01*
X175309548Y-106540223D01*
X175309546Y-106540224D01*
X174997205Y-106697087D01*
X174705190Y-106889150D01*
X174437443Y-107113815D01*
X174197591Y-107368043D01*
X173988871Y-107648402D01*
X173988869Y-107648405D01*
X173814111Y-107951095D01*
X173814108Y-107951102D01*
X173675674Y-108272027D01*
X173675672Y-108272034D01*
X173575430Y-108606865D01*
X173575430Y-108606866D01*
X173514738Y-108951070D01*
X173494415Y-109299999D01*
X151295095Y-109299999D01*
X151408461Y-109289920D01*
X151408468Y-109289919D01*
X151594216Y-109236770D01*
X151765471Y-109147315D01*
X151915212Y-109025218D01*
X151915218Y-109025212D01*
X152037315Y-108875471D01*
X152126770Y-108704216D01*
X152179920Y-108518466D01*
X152190000Y-108405097D01*
X152190000Y-107700001D01*
X152189999Y-107700000D01*
X151839000Y-107700000D01*
X151780809Y-107681093D01*
X151744845Y-107631593D01*
X151740000Y-107601000D01*
X151740000Y-107599000D01*
X151758907Y-107540809D01*
X151808407Y-107504845D01*
X151839000Y-107500000D01*
X152189998Y-107500000D01*
X152189999Y-107499999D01*
X152189999Y-106794905D01*
X152179920Y-106681538D01*
X152179919Y-106681531D01*
X152126770Y-106495783D01*
X152037315Y-106324528D01*
X151915218Y-106174787D01*
X151915212Y-106174781D01*
X151765471Y-106052684D01*
X151594216Y-105963229D01*
X151408466Y-105910079D01*
X151295097Y-105900000D01*
X150340001Y-105900000D01*
X150340000Y-105900001D01*
X150340000Y-107001000D01*
X150321093Y-107059191D01*
X150271593Y-107095155D01*
X150241000Y-107100000D01*
X150239000Y-107100000D01*
X150180809Y-107081093D01*
X150144845Y-107031593D01*
X150140000Y-107001000D01*
X150140000Y-105900001D01*
X150139999Y-105900000D01*
X149184905Y-105900001D01*
X149071538Y-105910079D01*
X149071531Y-105910080D01*
X148885783Y-105963229D01*
X148714528Y-106052684D01*
X148564787Y-106174781D01*
X148564781Y-106174787D01*
X148442684Y-106324528D01*
X148353229Y-106495783D01*
X148300079Y-106681533D01*
X148290000Y-106794903D01*
X148290000Y-107499999D01*
X108400647Y-107499999D01*
X108302412Y-107368047D01*
X108062558Y-107113817D01*
X108040317Y-107095155D01*
X107964567Y-107031593D01*
X107794811Y-106889151D01*
X107700157Y-106826896D01*
X107502794Y-106697087D01*
X107190453Y-106540224D01*
X107190452Y-106540223D01*
X107190451Y-106540223D01*
X106862011Y-106420681D01*
X106862012Y-106420681D01*
X106862006Y-106420679D01*
X106521924Y-106340078D01*
X106388885Y-106324528D01*
X106174759Y-106299500D01*
X105825241Y-106299500D01*
X105633950Y-106321858D01*
X105478075Y-106340078D01*
X105137993Y-106420679D01*
X104941191Y-106492309D01*
X104809549Y-106540223D01*
X104809548Y-106540223D01*
X104809546Y-106540224D01*
X104497205Y-106697087D01*
X104205190Y-106889150D01*
X103937443Y-107113815D01*
X103697591Y-107368043D01*
X103488871Y-107648402D01*
X103488869Y-107648405D01*
X103314111Y-107951095D01*
X103314108Y-107951102D01*
X103175674Y-108272027D01*
X103175672Y-108272034D01*
X103075430Y-108606865D01*
X103075430Y-108606866D01*
X103014738Y-108951070D01*
X102994415Y-109299999D01*
X99560500Y-109299999D01*
X99560500Y-109234108D01*
X99560500Y-104546205D01*
X127731661Y-104546205D01*
X127741888Y-104760904D01*
X127741889Y-104760911D01*
X127792561Y-104969785D01*
X127881852Y-105165307D01*
X127881855Y-105165312D01*
X128006531Y-105340396D01*
X128006533Y-105340398D01*
X128006534Y-105340399D01*
X128162097Y-105488727D01*
X128342920Y-105604935D01*
X128542468Y-105684822D01*
X128753528Y-105725500D01*
X128753531Y-105725500D01*
X130112618Y-105725500D01*
X130272971Y-105710188D01*
X130479209Y-105649631D01*
X130670259Y-105551138D01*
X130839217Y-105418268D01*
X130979976Y-105255824D01*
X131087448Y-105069677D01*
X131157750Y-104866554D01*
X131188339Y-104653797D01*
X131183214Y-104546205D01*
X140231661Y-104546205D01*
X140241888Y-104760904D01*
X140241889Y-104760911D01*
X140292561Y-104969785D01*
X140381852Y-105165307D01*
X140381855Y-105165312D01*
X140506531Y-105340396D01*
X140506533Y-105340398D01*
X140506534Y-105340399D01*
X140662097Y-105488727D01*
X140842920Y-105604935D01*
X141042468Y-105684822D01*
X141253528Y-105725500D01*
X141253531Y-105725500D01*
X142612618Y-105725500D01*
X142772971Y-105710188D01*
X142979209Y-105649631D01*
X143158725Y-105557084D01*
X152990000Y-105557084D01*
X152992747Y-105603204D01*
X152992748Y-105603214D01*
X153036384Y-105803804D01*
X153036387Y-105803811D01*
X153117202Y-105992534D01*
X153232276Y-106162554D01*
X153377445Y-106307723D01*
X153547465Y-106422797D01*
X153736188Y-106503612D01*
X153736195Y-106503615D01*
X153936785Y-106547251D01*
X153936795Y-106547252D01*
X153982916Y-106550000D01*
X154839999Y-106550000D01*
X154840000Y-106549999D01*
X154840000Y-106199000D01*
X154858907Y-106140809D01*
X154908407Y-106104845D01*
X154939000Y-106100000D01*
X154941000Y-106100000D01*
X154999191Y-106118907D01*
X155035155Y-106168407D01*
X155040000Y-106199000D01*
X155040000Y-106549999D01*
X155040001Y-106550000D01*
X155897084Y-106550000D01*
X155943204Y-106547252D01*
X155943214Y-106547251D01*
X156143804Y-106503615D01*
X156143811Y-106503612D01*
X156332534Y-106422797D01*
X156502554Y-106307723D01*
X156647723Y-106162554D01*
X156762797Y-105992534D01*
X156843612Y-105803811D01*
X156843615Y-105803804D01*
X156887251Y-105603214D01*
X156887252Y-105603204D01*
X156890000Y-105557084D01*
X156890000Y-104700001D01*
X156889999Y-104700000D01*
X155539000Y-104700000D01*
X155480809Y-104681093D01*
X155444845Y-104631593D01*
X155440000Y-104601000D01*
X155440000Y-104599000D01*
X155458907Y-104540809D01*
X155508407Y-104504845D01*
X155539000Y-104500000D01*
X156889999Y-104500000D01*
X156890000Y-104499998D01*
X156890000Y-103642916D01*
X156887252Y-103596795D01*
X156887251Y-103596785D01*
X156843615Y-103396195D01*
X156843612Y-103396188D01*
X156762797Y-103207465D01*
X156647723Y-103037445D01*
X156502554Y-102892276D01*
X156332534Y-102777202D01*
X156143811Y-102696387D01*
X156143804Y-102696384D01*
X155943214Y-102652748D01*
X155943204Y-102652747D01*
X155897084Y-102650000D01*
X155040000Y-102650000D01*
X155040000Y-103001000D01*
X155021093Y-103059191D01*
X154971593Y-103095155D01*
X154941000Y-103100000D01*
X154939000Y-103100000D01*
X154880809Y-103081093D01*
X154844845Y-103031593D01*
X154840000Y-103001000D01*
X154840000Y-102650001D01*
X154839999Y-102650000D01*
X153982916Y-102650000D01*
X153936795Y-102652747D01*
X153936785Y-102652748D01*
X153736195Y-102696384D01*
X153736188Y-102696387D01*
X153547465Y-102777202D01*
X153377445Y-102892276D01*
X153232276Y-103037445D01*
X153117202Y-103207465D01*
X153036387Y-103396188D01*
X153036384Y-103396195D01*
X152992748Y-103596785D01*
X152992747Y-103596795D01*
X152990000Y-103642916D01*
X152990000Y-104499999D01*
X152990001Y-104500000D01*
X154341000Y-104500000D01*
X154399191Y-104518907D01*
X154435155Y-104568407D01*
X154440000Y-104599000D01*
X154440000Y-104601000D01*
X154421093Y-104659191D01*
X154371593Y-104695155D01*
X154341000Y-104700000D01*
X152990001Y-104700000D01*
X152990000Y-104700001D01*
X152990000Y-105557084D01*
X143158725Y-105557084D01*
X143170259Y-105551138D01*
X143339217Y-105418268D01*
X143479976Y-105255824D01*
X143587448Y-105069677D01*
X143657750Y-104866554D01*
X143688339Y-104653797D01*
X143678112Y-104439096D01*
X143627437Y-104230210D01*
X143538146Y-104034690D01*
X143538144Y-104034687D01*
X143413468Y-103859603D01*
X143413466Y-103859601D01*
X143257903Y-103711273D01*
X143077080Y-103595065D01*
X143077077Y-103595064D01*
X143077076Y-103595063D01*
X142936699Y-103538865D01*
X142877532Y-103515178D01*
X142666472Y-103474500D01*
X141307382Y-103474500D01*
X141147028Y-103489812D01*
X140940786Y-103550370D01*
X140749743Y-103648860D01*
X140749740Y-103648862D01*
X140580782Y-103781731D01*
X140440023Y-103944176D01*
X140332550Y-104130327D01*
X140262251Y-104333441D01*
X140262249Y-104333447D01*
X140231661Y-104546197D01*
X140231661Y-104546205D01*
X131183214Y-104546205D01*
X131178112Y-104439096D01*
X131127437Y-104230210D01*
X131038146Y-104034690D01*
X131038144Y-104034687D01*
X130913468Y-103859603D01*
X130913466Y-103859601D01*
X130757903Y-103711273D01*
X130577080Y-103595065D01*
X130577077Y-103595064D01*
X130577076Y-103595063D01*
X130436699Y-103538865D01*
X130377532Y-103515178D01*
X130166472Y-103474500D01*
X128807382Y-103474500D01*
X128647028Y-103489812D01*
X128440786Y-103550370D01*
X128249743Y-103648860D01*
X128249740Y-103648862D01*
X128080782Y-103781731D01*
X127940023Y-103944176D01*
X127832550Y-104130327D01*
X127762251Y-104333441D01*
X127762249Y-104333447D01*
X127731661Y-104546197D01*
X127731661Y-104546205D01*
X99560500Y-104546205D01*
X99560500Y-103369746D01*
X148289500Y-103369746D01*
X148289501Y-103369758D01*
X148301132Y-103428227D01*
X148301134Y-103428233D01*
X148345445Y-103494548D01*
X148345448Y-103494552D01*
X148411769Y-103538867D01*
X148456231Y-103547711D01*
X148470241Y-103550498D01*
X148470246Y-103550498D01*
X148470252Y-103550500D01*
X148470253Y-103550500D01*
X152009747Y-103550500D01*
X152009748Y-103550500D01*
X152068231Y-103538867D01*
X152134552Y-103494552D01*
X152178867Y-103428231D01*
X152190500Y-103369748D01*
X152190500Y-99830252D01*
X152178867Y-99771769D01*
X152160982Y-99745002D01*
X163444732Y-99745002D01*
X163463777Y-99999152D01*
X163463779Y-99999161D01*
X163520492Y-100247639D01*
X163594687Y-100436681D01*
X163613607Y-100484888D01*
X163741041Y-100705612D01*
X163741045Y-100705618D01*
X163741047Y-100705620D01*
X163899940Y-100904866D01*
X163899951Y-100904878D01*
X164086776Y-101078226D01*
X164086778Y-101078227D01*
X164086783Y-101078232D01*
X164297366Y-101221805D01*
X164526996Y-101332389D01*
X164770542Y-101407513D01*
X165022565Y-101445500D01*
X165022570Y-101445500D01*
X165277430Y-101445500D01*
X165277435Y-101445500D01*
X165529458Y-101407513D01*
X165773004Y-101332389D01*
X166002634Y-101221805D01*
X166213217Y-101078232D01*
X166400050Y-100904877D01*
X166422907Y-100876216D01*
X166482636Y-100801318D01*
X166558959Y-100705612D01*
X166686393Y-100484888D01*
X166779508Y-100247637D01*
X166836222Y-99999157D01*
X166853262Y-99771766D01*
X166855268Y-99745002D01*
X169794732Y-99745002D01*
X169813777Y-99999152D01*
X169813779Y-99999161D01*
X169870492Y-100247639D01*
X169944687Y-100436681D01*
X169963607Y-100484888D01*
X170091041Y-100705612D01*
X170091045Y-100705618D01*
X170091047Y-100705620D01*
X170249940Y-100904866D01*
X170249951Y-100904878D01*
X170436776Y-101078226D01*
X170436778Y-101078227D01*
X170436783Y-101078232D01*
X170647366Y-101221805D01*
X170876996Y-101332389D01*
X171120542Y-101407513D01*
X171372565Y-101445500D01*
X171372570Y-101445500D01*
X171627430Y-101445500D01*
X171627435Y-101445500D01*
X171879458Y-101407513D01*
X172123004Y-101332389D01*
X172352634Y-101221805D01*
X172563217Y-101078232D01*
X172750050Y-100904877D01*
X172772907Y-100876216D01*
X172832636Y-100801318D01*
X172908959Y-100705612D01*
X173036393Y-100484888D01*
X173129508Y-100247637D01*
X173186222Y-99999157D01*
X173199992Y-99815404D01*
X173221058Y-99764003D01*
X173374957Y-99764003D01*
X173382931Y-99770762D01*
X173396818Y-99809516D01*
X173425925Y-100024387D01*
X173495483Y-100238466D01*
X173602148Y-100436681D01*
X173602148Y-100436682D01*
X173742491Y-100612665D01*
X173742492Y-100612666D01*
X173912004Y-100760765D01*
X174105236Y-100876215D01*
X174315976Y-100955307D01*
X174537453Y-100995500D01*
X174537457Y-100995500D01*
X174706151Y-100995500D01*
X174706155Y-100995500D01*
X174753560Y-100991233D01*
X174874180Y-100980378D01*
X174874183Y-100980377D01*
X174874188Y-100980377D01*
X175091170Y-100920493D01*
X175293973Y-100822829D01*
X175476078Y-100690522D01*
X175631632Y-100527825D01*
X175755635Y-100339968D01*
X175844103Y-100132988D01*
X175894191Y-99913537D01*
X175901760Y-99745002D01*
X176144732Y-99745002D01*
X176163777Y-99999152D01*
X176163779Y-99999161D01*
X176220492Y-100247639D01*
X176294687Y-100436681D01*
X176313607Y-100484888D01*
X176441041Y-100705612D01*
X176441045Y-100705618D01*
X176441047Y-100705620D01*
X176599940Y-100904866D01*
X176599951Y-100904878D01*
X176786776Y-101078226D01*
X176786778Y-101078227D01*
X176786783Y-101078232D01*
X176997366Y-101221805D01*
X177226996Y-101332389D01*
X177470542Y-101407513D01*
X177722565Y-101445500D01*
X177722570Y-101445500D01*
X177977430Y-101445500D01*
X177977435Y-101445500D01*
X178229458Y-101407513D01*
X178473004Y-101332389D01*
X178702634Y-101221805D01*
X178913217Y-101078232D01*
X179100050Y-100904877D01*
X179122907Y-100876216D01*
X179182636Y-100801318D01*
X179258959Y-100705612D01*
X179386393Y-100484888D01*
X179479508Y-100247637D01*
X179536222Y-99999157D01*
X179553262Y-99771766D01*
X179555268Y-99745002D01*
X179555268Y-99744997D01*
X179542426Y-99573629D01*
X179536222Y-99490843D01*
X179479508Y-99242363D01*
X179386393Y-99005112D01*
X179258959Y-98784388D01*
X179214976Y-98729235D01*
X179100059Y-98585133D01*
X179100048Y-98585121D01*
X178913223Y-98411773D01*
X178913220Y-98411771D01*
X178913217Y-98411768D01*
X178702634Y-98268195D01*
X178473004Y-98157611D01*
X178387333Y-98131185D01*
X178229462Y-98082488D01*
X178229459Y-98082487D01*
X178229458Y-98082487D01*
X178229453Y-98082486D01*
X178229452Y-98082486D01*
X177977438Y-98044500D01*
X177977435Y-98044500D01*
X177722565Y-98044500D01*
X177722561Y-98044500D01*
X177470547Y-98082486D01*
X177470537Y-98082488D01*
X177226995Y-98157611D01*
X176997373Y-98268191D01*
X176997369Y-98268193D01*
X176997366Y-98268195D01*
X176817818Y-98390609D01*
X176786776Y-98411773D01*
X176599951Y-98585121D01*
X176599940Y-98585133D01*
X176441047Y-98784379D01*
X176441043Y-98784384D01*
X176441041Y-98784388D01*
X176386129Y-98879500D01*
X176313608Y-99005109D01*
X176313604Y-99005118D01*
X176220492Y-99242360D01*
X176163779Y-99490838D01*
X176163777Y-99490847D01*
X176144732Y-99744997D01*
X176144732Y-99745002D01*
X175901760Y-99745002D01*
X175904290Y-99688670D01*
X175874075Y-99465613D01*
X175804517Y-99251536D01*
X175804516Y-99251535D01*
X175804516Y-99251533D01*
X175697851Y-99053318D01*
X175697851Y-99053317D01*
X175557508Y-98877334D01*
X175557507Y-98877333D01*
X175387997Y-98729236D01*
X175387996Y-98729235D01*
X175194764Y-98613785D01*
X175118394Y-98585123D01*
X174984032Y-98534696D01*
X174984031Y-98534695D01*
X174984024Y-98534693D01*
X174923920Y-98523785D01*
X174762551Y-98494500D01*
X174762547Y-98494500D01*
X174593845Y-98494500D01*
X174593842Y-98494500D01*
X174593823Y-98494501D01*
X174425819Y-98509621D01*
X174425808Y-98509623D01*
X174208831Y-98569506D01*
X174208824Y-98569509D01*
X174006029Y-98667169D01*
X173823920Y-98799479D01*
X173668371Y-98962170D01*
X173668371Y-98962171D01*
X173668369Y-98962173D01*
X173668368Y-98962175D01*
X173640028Y-99005109D01*
X173544363Y-99150035D01*
X173544362Y-99150036D01*
X173455896Y-99357012D01*
X173405810Y-99576459D01*
X173405808Y-99576474D01*
X173400065Y-99704338D01*
X173378566Y-99761622D01*
X173374957Y-99764003D01*
X173221058Y-99764003D01*
X173223194Y-99758792D01*
X173223651Y-99758509D01*
X173218542Y-99754434D01*
X173202442Y-99707294D01*
X173202303Y-99705445D01*
X173186222Y-99490843D01*
X173129508Y-99242363D01*
X173036393Y-99005112D01*
X172908959Y-98784388D01*
X172864976Y-98729235D01*
X172750059Y-98585133D01*
X172750048Y-98585121D01*
X172563223Y-98411773D01*
X172563220Y-98411771D01*
X172563217Y-98411768D01*
X172352634Y-98268195D01*
X172123004Y-98157611D01*
X172037333Y-98131185D01*
X171879462Y-98082488D01*
X171879459Y-98082487D01*
X171879458Y-98082487D01*
X171879453Y-98082486D01*
X171879452Y-98082486D01*
X171627438Y-98044500D01*
X171627435Y-98044500D01*
X171372565Y-98044500D01*
X171372561Y-98044500D01*
X171120547Y-98082486D01*
X171120537Y-98082488D01*
X170876995Y-98157611D01*
X170647373Y-98268191D01*
X170647369Y-98268193D01*
X170647366Y-98268195D01*
X170467818Y-98390609D01*
X170436776Y-98411773D01*
X170249951Y-98585121D01*
X170249940Y-98585133D01*
X170091047Y-98784379D01*
X170091043Y-98784384D01*
X170091041Y-98784388D01*
X170036129Y-98879500D01*
X169963608Y-99005109D01*
X169963604Y-99005118D01*
X169870492Y-99242360D01*
X169813779Y-99490838D01*
X169813777Y-99490847D01*
X169794732Y-99744997D01*
X169794732Y-99745002D01*
X166855268Y-99745002D01*
X166855268Y-99744997D01*
X166842426Y-99573629D01*
X166836222Y-99490843D01*
X166779508Y-99242363D01*
X166686393Y-99005112D01*
X166558959Y-98784388D01*
X166514976Y-98729235D01*
X166400059Y-98585133D01*
X166400048Y-98585121D01*
X166213223Y-98411773D01*
X166213220Y-98411771D01*
X166213217Y-98411768D01*
X166002634Y-98268195D01*
X165773004Y-98157611D01*
X165687333Y-98131185D01*
X165529462Y-98082488D01*
X165529459Y-98082487D01*
X165529458Y-98082487D01*
X165529453Y-98082486D01*
X165529452Y-98082486D01*
X165277438Y-98044500D01*
X165277435Y-98044500D01*
X165022565Y-98044500D01*
X165022561Y-98044500D01*
X164770547Y-98082486D01*
X164770537Y-98082488D01*
X164526995Y-98157611D01*
X164297373Y-98268191D01*
X164297369Y-98268193D01*
X164297366Y-98268195D01*
X164117818Y-98390609D01*
X164086776Y-98411773D01*
X163899951Y-98585121D01*
X163899940Y-98585133D01*
X163741047Y-98784379D01*
X163741043Y-98784384D01*
X163741041Y-98784388D01*
X163686129Y-98879500D01*
X163613608Y-99005109D01*
X163613604Y-99005118D01*
X163520492Y-99242360D01*
X163463779Y-99490838D01*
X163463777Y-99490847D01*
X163444732Y-99744997D01*
X163444732Y-99745002D01*
X152160982Y-99745002D01*
X152134552Y-99705448D01*
X152132891Y-99704338D01*
X152068233Y-99661134D01*
X152068231Y-99661133D01*
X152068228Y-99661132D01*
X152068227Y-99661132D01*
X152009758Y-99649501D01*
X152009748Y-99649500D01*
X148470252Y-99649500D01*
X148470251Y-99649500D01*
X148470241Y-99649501D01*
X148411772Y-99661132D01*
X148411766Y-99661134D01*
X148345451Y-99705445D01*
X148345445Y-99705451D01*
X148301134Y-99771766D01*
X148301132Y-99771772D01*
X148289501Y-99830241D01*
X148289500Y-99830253D01*
X148289500Y-103369746D01*
X99560500Y-103369746D01*
X99560500Y-100130002D01*
X102495233Y-100130002D01*
X102514273Y-100384076D01*
X102514275Y-100384086D01*
X102570970Y-100632487D01*
X102570970Y-100632489D01*
X102664055Y-100869664D01*
X102664064Y-100869683D01*
X102791451Y-101090322D01*
X102791461Y-101090337D01*
X102927567Y-101261009D01*
X103526600Y-100661977D01*
X103581117Y-100634200D01*
X103641549Y-100643771D01*
X103660268Y-100656167D01*
X103661322Y-100657051D01*
X103661809Y-100657460D01*
X103694210Y-100709363D01*
X103689915Y-100770397D01*
X103668144Y-100803274D01*
X103070432Y-101400986D01*
X103070433Y-101400987D01*
X103137092Y-101462838D01*
X103347624Y-101606375D01*
X103577176Y-101716922D01*
X103820649Y-101792023D01*
X103820659Y-101792025D01*
X104072599Y-101829999D01*
X104072608Y-101830000D01*
X104327392Y-101830000D01*
X104327400Y-101829999D01*
X104579340Y-101792025D01*
X104579350Y-101792023D01*
X104822823Y-101716921D01*
X105052376Y-101606375D01*
X105262900Y-101462843D01*
X105329565Y-101400986D01*
X104729897Y-100801318D01*
X104702120Y-100746801D01*
X104711691Y-100686369D01*
X104727887Y-100663382D01*
X104729273Y-100661912D01*
X104782956Y-100632569D01*
X104843641Y-100640384D01*
X104871277Y-100659856D01*
X105472431Y-101261009D01*
X105608543Y-101090330D01*
X105608548Y-101090322D01*
X105735935Y-100869683D01*
X105735944Y-100869664D01*
X105829029Y-100632489D01*
X105829029Y-100632487D01*
X105885724Y-100384086D01*
X105885726Y-100384076D01*
X105900546Y-100186328D01*
X106145709Y-100186328D01*
X106175925Y-100409387D01*
X106245483Y-100623466D01*
X106352148Y-100821681D01*
X106352148Y-100821682D01*
X106492491Y-100997665D01*
X106492492Y-100997666D01*
X106662004Y-101145765D01*
X106855236Y-101261215D01*
X107065976Y-101340307D01*
X107287453Y-101380500D01*
X107287457Y-101380500D01*
X107456151Y-101380500D01*
X107456155Y-101380500D01*
X107503560Y-101376233D01*
X107624180Y-101365378D01*
X107624183Y-101365377D01*
X107624188Y-101365377D01*
X107841170Y-101305493D01*
X108043973Y-101207829D01*
X108226078Y-101075522D01*
X108381632Y-100912825D01*
X108505635Y-100724968D01*
X108594103Y-100517988D01*
X108644191Y-100298537D01*
X108649933Y-100170662D01*
X108670265Y-100116489D01*
X108826347Y-100116489D01*
X108831457Y-100120564D01*
X108847557Y-100167705D01*
X108863777Y-100384151D01*
X108863779Y-100384161D01*
X108920492Y-100632639D01*
X109013604Y-100869881D01*
X109013607Y-100869888D01*
X109141041Y-101090612D01*
X109141045Y-101090618D01*
X109141047Y-101090620D01*
X109299940Y-101289866D01*
X109299951Y-101289878D01*
X109486776Y-101463226D01*
X109486778Y-101463227D01*
X109486783Y-101463232D01*
X109697366Y-101606805D01*
X109926996Y-101717389D01*
X110170542Y-101792513D01*
X110422565Y-101830500D01*
X110422570Y-101830500D01*
X110677430Y-101830500D01*
X110677435Y-101830500D01*
X110929458Y-101792513D01*
X111173004Y-101717389D01*
X111402634Y-101606805D01*
X111613217Y-101463232D01*
X111800050Y-101289877D01*
X111822907Y-101261216D01*
X111865481Y-101207829D01*
X111958959Y-101090612D01*
X112086393Y-100869888D01*
X112179508Y-100632637D01*
X112236222Y-100384157D01*
X112252221Y-100170662D01*
X112255268Y-100130002D01*
X115194732Y-100130002D01*
X115213777Y-100384152D01*
X115213779Y-100384161D01*
X115270492Y-100632639D01*
X115363604Y-100869881D01*
X115363607Y-100869888D01*
X115491041Y-101090612D01*
X115491045Y-101090618D01*
X115491047Y-101090620D01*
X115649940Y-101289866D01*
X115649951Y-101289878D01*
X115836776Y-101463226D01*
X115836778Y-101463227D01*
X115836783Y-101463232D01*
X116047366Y-101606805D01*
X116276996Y-101717389D01*
X116520542Y-101792513D01*
X116772565Y-101830500D01*
X116772570Y-101830500D01*
X117027430Y-101830500D01*
X117027435Y-101830500D01*
X117279458Y-101792513D01*
X117523004Y-101717389D01*
X117752634Y-101606805D01*
X117963217Y-101463232D01*
X118150050Y-101289877D01*
X118172907Y-101261216D01*
X118215481Y-101207829D01*
X118308959Y-101090612D01*
X118436393Y-100869888D01*
X118529508Y-100632637D01*
X118586222Y-100384157D01*
X118602221Y-100170662D01*
X118605268Y-100130002D01*
X118605268Y-100129997D01*
X118595463Y-99999157D01*
X118586222Y-99875843D01*
X118529508Y-99627363D01*
X118525137Y-99616227D01*
X118455313Y-99438319D01*
X118436393Y-99390112D01*
X118308959Y-99169388D01*
X118308952Y-99169379D01*
X118150059Y-98970133D01*
X118150048Y-98970121D01*
X117963223Y-98796773D01*
X117963220Y-98796771D01*
X117963217Y-98796768D01*
X117752634Y-98653195D01*
X117670798Y-98613785D01*
X117523004Y-98542611D01*
X117279462Y-98467488D01*
X117279459Y-98467487D01*
X117279458Y-98467487D01*
X117279453Y-98467486D01*
X117279452Y-98467486D01*
X117027438Y-98429500D01*
X117027435Y-98429500D01*
X116772565Y-98429500D01*
X116772561Y-98429500D01*
X116520547Y-98467486D01*
X116520537Y-98467488D01*
X116276995Y-98542611D01*
X116047373Y-98653191D01*
X116047369Y-98653193D01*
X116047366Y-98653195D01*
X115836783Y-98796768D01*
X115836776Y-98796773D01*
X115649951Y-98970121D01*
X115649940Y-98970133D01*
X115491047Y-99169379D01*
X115491043Y-99169384D01*
X115491041Y-99169388D01*
X115448911Y-99242360D01*
X115363608Y-99390109D01*
X115363604Y-99390118D01*
X115270492Y-99627360D01*
X115213779Y-99875838D01*
X115213777Y-99875847D01*
X115194732Y-100129997D01*
X115194732Y-100130002D01*
X112255268Y-100130002D01*
X112255268Y-100129997D01*
X112245463Y-99999157D01*
X112236222Y-99875843D01*
X112179508Y-99627363D01*
X112175137Y-99616227D01*
X112105313Y-99438319D01*
X112086393Y-99390112D01*
X111958959Y-99169388D01*
X111958952Y-99169379D01*
X111800059Y-98970133D01*
X111800048Y-98970121D01*
X111613223Y-98796773D01*
X111613220Y-98796771D01*
X111613217Y-98796768D01*
X111402634Y-98653195D01*
X111320798Y-98613785D01*
X111173004Y-98542611D01*
X110929462Y-98467488D01*
X110929459Y-98467487D01*
X110929458Y-98467487D01*
X110929453Y-98467486D01*
X110929452Y-98467486D01*
X110677438Y-98429500D01*
X110677435Y-98429500D01*
X110422565Y-98429500D01*
X110422561Y-98429500D01*
X110170547Y-98467486D01*
X110170537Y-98467488D01*
X109926995Y-98542611D01*
X109697373Y-98653191D01*
X109697369Y-98653193D01*
X109697366Y-98653195D01*
X109486783Y-98796768D01*
X109486776Y-98796773D01*
X109299951Y-98970121D01*
X109299940Y-98970133D01*
X109141047Y-99169379D01*
X109141043Y-99169384D01*
X109141041Y-99169388D01*
X109098911Y-99242360D01*
X109013608Y-99390109D01*
X109013604Y-99390118D01*
X108920492Y-99627360D01*
X108863779Y-99875838D01*
X108863777Y-99875847D01*
X108850008Y-100059592D01*
X108826805Y-100116207D01*
X108826347Y-100116489D01*
X108670265Y-100116489D01*
X108671433Y-100113378D01*
X108675041Y-100110995D01*
X108667068Y-100104237D01*
X108653181Y-100065483D01*
X108644197Y-99999161D01*
X108624075Y-99850613D01*
X108554517Y-99636536D01*
X108554516Y-99636535D01*
X108554516Y-99636533D01*
X108493627Y-99523383D01*
X108447852Y-99438319D01*
X108447851Y-99438317D01*
X108307508Y-99262334D01*
X108307507Y-99262333D01*
X108137997Y-99114236D01*
X108137996Y-99114235D01*
X107944764Y-98998785D01*
X107868394Y-98970123D01*
X107734032Y-98919696D01*
X107734031Y-98919695D01*
X107734024Y-98919693D01*
X107673920Y-98908785D01*
X107512551Y-98879500D01*
X107512547Y-98879500D01*
X107343845Y-98879500D01*
X107343842Y-98879500D01*
X107343823Y-98879501D01*
X107175819Y-98894621D01*
X107175808Y-98894623D01*
X106958831Y-98954506D01*
X106958824Y-98954509D01*
X106756029Y-99052169D01*
X106573920Y-99184479D01*
X106418371Y-99347170D01*
X106418371Y-99347171D01*
X106418369Y-99347173D01*
X106418368Y-99347175D01*
X106340189Y-99465612D01*
X106294363Y-99535035D01*
X106294362Y-99535036D01*
X106205896Y-99742012D01*
X106155810Y-99961459D01*
X106155808Y-99961473D01*
X106145709Y-100186328D01*
X105900546Y-100186328D01*
X105904767Y-100130002D01*
X105904767Y-100129997D01*
X105885726Y-99875923D01*
X105885724Y-99875913D01*
X105829029Y-99627512D01*
X105829029Y-99627510D01*
X105735944Y-99390335D01*
X105735935Y-99390316D01*
X105608548Y-99169677D01*
X105608538Y-99169662D01*
X105472431Y-98998989D01*
X105472430Y-98998988D01*
X104873397Y-99598021D01*
X104818881Y-99625798D01*
X104758449Y-99616227D01*
X104739749Y-99603848D01*
X104738212Y-99602558D01*
X104705795Y-99550666D01*
X104710070Y-99489630D01*
X104731853Y-99456723D01*
X105329565Y-98859011D01*
X105262907Y-98797161D01*
X105052376Y-98653624D01*
X104822823Y-98543078D01*
X104579350Y-98467976D01*
X104579340Y-98467974D01*
X104327400Y-98430000D01*
X104072599Y-98430000D01*
X103820659Y-98467974D01*
X103820649Y-98467976D01*
X103577176Y-98543077D01*
X103347624Y-98653624D01*
X103137092Y-98797161D01*
X103070433Y-98859011D01*
X103670101Y-99458680D01*
X103697878Y-99513197D01*
X103688307Y-99573629D01*
X103672102Y-99596628D01*
X103670730Y-99598082D01*
X103617042Y-99627429D01*
X103556357Y-99619614D01*
X103528721Y-99600142D01*
X102927567Y-98998989D01*
X102791455Y-99169670D01*
X102791451Y-99169677D01*
X102664064Y-99390316D01*
X102664055Y-99390335D01*
X102570970Y-99627510D01*
X102570970Y-99627512D01*
X102514275Y-99875913D01*
X102514273Y-99875923D01*
X102495233Y-100129997D01*
X102495233Y-100130002D01*
X99560500Y-100130002D01*
X99560500Y-98131185D01*
X111999500Y-98131185D01*
X112038603Y-98390609D01*
X112038605Y-98390619D01*
X112115937Y-98641325D01*
X112220770Y-98859011D01*
X112229772Y-98877704D01*
X112377567Y-99094479D01*
X112377570Y-99094482D01*
X112377572Y-99094485D01*
X112556017Y-99286803D01*
X112556029Y-99286814D01*
X112746009Y-99438317D01*
X112761143Y-99450386D01*
X112761147Y-99450388D01*
X112761148Y-99450389D01*
X112988344Y-99581561D01*
X112988348Y-99581563D01*
X112988357Y-99581568D01*
X113030279Y-99598021D01*
X113232580Y-99677419D01*
X113232583Y-99677419D01*
X113232584Y-99677420D01*
X113488370Y-99735802D01*
X113566824Y-99741681D01*
X113684500Y-99750500D01*
X113684506Y-99750500D01*
X113815500Y-99750500D01*
X113928761Y-99742012D01*
X114011630Y-99735802D01*
X114267416Y-99677420D01*
X114511643Y-99581568D01*
X114738857Y-99450386D01*
X114943981Y-99286805D01*
X115122433Y-99094479D01*
X115270228Y-98877704D01*
X115384063Y-98641323D01*
X115461396Y-98390615D01*
X115500500Y-98131182D01*
X115500500Y-97868818D01*
X115461396Y-97609385D01*
X115384063Y-97358677D01*
X115270228Y-97122296D01*
X115122433Y-96905521D01*
X114968854Y-96740002D01*
X157694732Y-96740002D01*
X157713777Y-96994152D01*
X157713779Y-96994161D01*
X157770492Y-97242639D01*
X157863604Y-97479881D01*
X157863607Y-97479888D01*
X157991041Y-97700612D01*
X157991045Y-97700618D01*
X157991047Y-97700620D01*
X158149940Y-97899866D01*
X158149951Y-97899878D01*
X158336776Y-98073226D01*
X158336778Y-98073227D01*
X158336783Y-98073232D01*
X158547366Y-98216805D01*
X158776996Y-98327389D01*
X159020542Y-98402513D01*
X159272565Y-98440500D01*
X159272570Y-98440500D01*
X159527430Y-98440500D01*
X159527435Y-98440500D01*
X159779458Y-98402513D01*
X160023004Y-98327389D01*
X160252634Y-98216805D01*
X160463217Y-98073232D01*
X160650050Y-97899877D01*
X160808959Y-97700612D01*
X160936393Y-97479888D01*
X161029508Y-97242637D01*
X161086222Y-96994157D01*
X161105268Y-96740000D01*
X161103259Y-96713196D01*
X161091001Y-96549614D01*
X161086222Y-96485843D01*
X161029508Y-96237363D01*
X160936393Y-96000112D01*
X160808959Y-95779388D01*
X160808952Y-95779379D01*
X160650059Y-95580133D01*
X160650048Y-95580121D01*
X160463223Y-95406773D01*
X160463220Y-95406771D01*
X160463217Y-95406768D01*
X160252634Y-95263195D01*
X160023004Y-95152611D01*
X160023004Y-95152610D01*
X159779462Y-95077488D01*
X159779459Y-95077487D01*
X159779458Y-95077487D01*
X159779453Y-95077486D01*
X159779452Y-95077486D01*
X159527438Y-95039500D01*
X159527435Y-95039500D01*
X159272565Y-95039500D01*
X159272561Y-95039500D01*
X159020547Y-95077486D01*
X159020537Y-95077488D01*
X158776995Y-95152611D01*
X158547373Y-95263191D01*
X158547369Y-95263193D01*
X158547366Y-95263195D01*
X158336783Y-95406768D01*
X158336776Y-95406773D01*
X158149951Y-95580121D01*
X158149940Y-95580133D01*
X157991047Y-95779379D01*
X157991043Y-95779384D01*
X157991041Y-95779388D01*
X157929181Y-95886533D01*
X157863608Y-96000109D01*
X157863604Y-96000118D01*
X157770492Y-96237360D01*
X157713779Y-96485838D01*
X157713777Y-96485847D01*
X157694732Y-96739997D01*
X157694732Y-96740002D01*
X114968854Y-96740002D01*
X114943981Y-96713195D01*
X114943980Y-96713194D01*
X114943970Y-96713185D01*
X114738865Y-96549620D01*
X114738851Y-96549610D01*
X114511655Y-96418438D01*
X114511646Y-96418433D01*
X114511643Y-96418432D01*
X114511639Y-96418430D01*
X114511636Y-96418429D01*
X114267419Y-96322580D01*
X114011631Y-96264198D01*
X114011625Y-96264197D01*
X113815500Y-96249500D01*
X113815494Y-96249500D01*
X113684506Y-96249500D01*
X113684500Y-96249500D01*
X113488374Y-96264197D01*
X113488368Y-96264198D01*
X113232580Y-96322580D01*
X112988363Y-96418429D01*
X112988344Y-96418438D01*
X112761148Y-96549610D01*
X112761134Y-96549620D01*
X112556029Y-96713185D01*
X112556017Y-96713196D01*
X112377572Y-96905514D01*
X112377567Y-96905520D01*
X112377567Y-96905521D01*
X112229772Y-97122296D01*
X112229770Y-97122299D01*
X112229768Y-97122303D01*
X112115937Y-97358674D01*
X112038605Y-97609380D01*
X112038603Y-97609390D01*
X111999500Y-97868814D01*
X111999500Y-98131185D01*
X99560500Y-98131185D01*
X99560500Y-92937502D01*
X138794500Y-92937502D01*
X138810142Y-93016139D01*
X138810144Y-93016145D01*
X138828449Y-93060337D01*
X138865075Y-93118626D01*
X138865076Y-93118627D01*
X138939664Y-93171551D01*
X138983858Y-93189857D01*
X139062500Y-93205500D01*
X139062501Y-93205500D01*
X143437499Y-93205500D01*
X143437500Y-93205500D01*
X143516142Y-93189857D01*
X143540552Y-93179746D01*
X157699500Y-93179746D01*
X157699501Y-93179758D01*
X157704622Y-93205499D01*
X157711133Y-93238231D01*
X157755448Y-93304552D01*
X157821769Y-93348867D01*
X157866231Y-93357711D01*
X157880241Y-93360498D01*
X157880246Y-93360498D01*
X157880252Y-93360500D01*
X157880253Y-93360500D01*
X160919747Y-93360500D01*
X160919748Y-93360500D01*
X160978231Y-93348867D01*
X161044552Y-93304552D01*
X161088867Y-93238231D01*
X161100500Y-93179748D01*
X161100500Y-90576185D01*
X166549500Y-90576185D01*
X166588603Y-90835609D01*
X166588605Y-90835619D01*
X166665937Y-91086325D01*
X166779768Y-91322696D01*
X166779772Y-91322704D01*
X166927567Y-91539479D01*
X166927570Y-91539482D01*
X166927572Y-91539485D01*
X167106017Y-91731803D01*
X167106029Y-91731814D01*
X167311134Y-91895379D01*
X167311143Y-91895386D01*
X167311147Y-91895388D01*
X167311148Y-91895389D01*
X167538344Y-92026561D01*
X167538348Y-92026563D01*
X167538357Y-92026568D01*
X167632072Y-92063348D01*
X167782580Y-92122419D01*
X167782583Y-92122419D01*
X167782584Y-92122420D01*
X168038370Y-92180802D01*
X168116824Y-92186681D01*
X168234500Y-92195500D01*
X168234506Y-92195500D01*
X168365500Y-92195500D01*
X168472477Y-92187482D01*
X168561630Y-92180802D01*
X168817416Y-92122420D01*
X169061643Y-92026568D01*
X169288857Y-91895386D01*
X169493981Y-91731805D01*
X169672433Y-91539479D01*
X169820228Y-91322704D01*
X169934063Y-91086323D01*
X170011396Y-90835615D01*
X170050500Y-90576182D01*
X170050500Y-90313818D01*
X170011396Y-90054385D01*
X169934063Y-89803677D01*
X169928347Y-89791808D01*
X169820406Y-89567666D01*
X169820228Y-89567296D01*
X169672433Y-89350521D01*
X169663039Y-89340397D01*
X169493982Y-89158196D01*
X169493970Y-89158185D01*
X169288865Y-88994620D01*
X169288851Y-88994610D01*
X169061655Y-88863438D01*
X169061646Y-88863433D01*
X169061643Y-88863432D01*
X169061639Y-88863430D01*
X169061636Y-88863429D01*
X168817419Y-88767580D01*
X168561631Y-88709198D01*
X168561625Y-88709197D01*
X168365500Y-88694500D01*
X168365494Y-88694500D01*
X168234506Y-88694500D01*
X168234500Y-88694500D01*
X168038374Y-88709197D01*
X168038368Y-88709198D01*
X167782580Y-88767580D01*
X167538363Y-88863429D01*
X167538344Y-88863438D01*
X167311148Y-88994610D01*
X167311134Y-88994620D01*
X167106029Y-89158185D01*
X167106017Y-89158196D01*
X166927572Y-89350514D01*
X166927567Y-89350520D01*
X166927567Y-89350521D01*
X166779772Y-89567296D01*
X166779770Y-89567299D01*
X166779768Y-89567303D01*
X166665937Y-89803674D01*
X166588605Y-90054380D01*
X166588603Y-90054390D01*
X166549500Y-90313814D01*
X166549500Y-90576185D01*
X161100500Y-90576185D01*
X161100500Y-90140252D01*
X161088867Y-90081769D01*
X161044552Y-90015448D01*
X161044548Y-90015445D01*
X160978233Y-89971134D01*
X160978231Y-89971133D01*
X160978228Y-89971132D01*
X160978227Y-89971132D01*
X160919758Y-89959501D01*
X160919748Y-89959500D01*
X157880252Y-89959500D01*
X157880251Y-89959500D01*
X157880241Y-89959501D01*
X157821772Y-89971132D01*
X157821766Y-89971134D01*
X157755451Y-90015445D01*
X157755445Y-90015451D01*
X157711134Y-90081766D01*
X157711132Y-90081772D01*
X157699501Y-90140241D01*
X157699500Y-90140253D01*
X157699500Y-93179746D01*
X143540552Y-93179746D01*
X143560336Y-93171551D01*
X143618627Y-93134924D01*
X143671551Y-93060336D01*
X143689857Y-93016142D01*
X143705500Y-92937500D01*
X143705500Y-88315002D01*
X163444732Y-88315002D01*
X163463777Y-88569152D01*
X163463779Y-88569161D01*
X163520492Y-88817639D01*
X163594687Y-89006681D01*
X163613607Y-89054888D01*
X163741041Y-89275612D01*
X163741045Y-89275618D01*
X163741047Y-89275620D01*
X163899940Y-89474866D01*
X163899951Y-89474878D01*
X164086776Y-89648226D01*
X164086778Y-89648227D01*
X164086783Y-89648232D01*
X164297366Y-89791805D01*
X164526996Y-89902389D01*
X164770542Y-89977513D01*
X165022565Y-90015500D01*
X165022570Y-90015500D01*
X165277430Y-90015500D01*
X165277435Y-90015500D01*
X165529458Y-89977513D01*
X165773004Y-89902389D01*
X166002634Y-89791805D01*
X166213217Y-89648232D01*
X166400050Y-89474877D01*
X166422907Y-89446216D01*
X166499226Y-89350514D01*
X166558959Y-89275612D01*
X166686393Y-89054888D01*
X166779508Y-88817637D01*
X166836222Y-88569157D01*
X166851047Y-88371330D01*
X166855268Y-88315002D01*
X169794732Y-88315002D01*
X169813777Y-88569152D01*
X169813779Y-88569161D01*
X169870492Y-88817639D01*
X169944687Y-89006681D01*
X169963607Y-89054888D01*
X170091041Y-89275612D01*
X170091045Y-89275618D01*
X170091047Y-89275620D01*
X170249940Y-89474866D01*
X170249951Y-89474878D01*
X170436776Y-89648226D01*
X170436778Y-89648227D01*
X170436783Y-89648232D01*
X170647366Y-89791805D01*
X170876996Y-89902389D01*
X171120542Y-89977513D01*
X171372565Y-90015500D01*
X171372570Y-90015500D01*
X171627430Y-90015500D01*
X171627435Y-90015500D01*
X171879458Y-89977513D01*
X172123004Y-89902389D01*
X172352634Y-89791805D01*
X172563217Y-89648232D01*
X172750050Y-89474877D01*
X172772907Y-89446216D01*
X172849226Y-89350514D01*
X172908959Y-89275612D01*
X173036393Y-89054888D01*
X173129508Y-88817637D01*
X173186222Y-88569157D01*
X173199992Y-88385404D01*
X173221058Y-88334003D01*
X173374957Y-88334003D01*
X173382931Y-88340762D01*
X173396818Y-88379516D01*
X173425925Y-88594387D01*
X173495483Y-88808466D01*
X173602148Y-89006681D01*
X173602148Y-89006682D01*
X173742491Y-89182665D01*
X173742492Y-89182666D01*
X173912004Y-89330765D01*
X174105236Y-89446215D01*
X174315976Y-89525307D01*
X174537453Y-89565500D01*
X174537457Y-89565500D01*
X174706151Y-89565500D01*
X174706155Y-89565500D01*
X174753560Y-89561233D01*
X174874180Y-89550378D01*
X174874183Y-89550377D01*
X174874188Y-89550377D01*
X175091170Y-89490493D01*
X175293973Y-89392829D01*
X175476078Y-89260522D01*
X175631632Y-89097825D01*
X175755635Y-88909968D01*
X175844103Y-88702988D01*
X175894191Y-88483537D01*
X175901760Y-88315002D01*
X176144732Y-88315002D01*
X176163777Y-88569152D01*
X176163779Y-88569161D01*
X176220492Y-88817639D01*
X176294687Y-89006681D01*
X176313607Y-89054888D01*
X176441041Y-89275612D01*
X176441045Y-89275618D01*
X176441047Y-89275620D01*
X176599940Y-89474866D01*
X176599951Y-89474878D01*
X176786776Y-89648226D01*
X176786778Y-89648227D01*
X176786783Y-89648232D01*
X176997366Y-89791805D01*
X177226996Y-89902389D01*
X177470542Y-89977513D01*
X177722565Y-90015500D01*
X177722570Y-90015500D01*
X177977430Y-90015500D01*
X177977435Y-90015500D01*
X178229458Y-89977513D01*
X178473004Y-89902389D01*
X178702634Y-89791805D01*
X178913217Y-89648232D01*
X179100050Y-89474877D01*
X179122907Y-89446216D01*
X179199226Y-89350514D01*
X179258959Y-89275612D01*
X179386393Y-89054888D01*
X179479508Y-88817637D01*
X179536222Y-88569157D01*
X179551047Y-88371330D01*
X179555268Y-88315002D01*
X179555268Y-88314997D01*
X179542426Y-88143629D01*
X179536222Y-88060843D01*
X179479508Y-87812363D01*
X179386393Y-87575112D01*
X179258959Y-87354388D01*
X179214976Y-87299235D01*
X179100059Y-87155133D01*
X179100048Y-87155121D01*
X178913223Y-86981773D01*
X178913220Y-86981771D01*
X178913217Y-86981768D01*
X178702634Y-86838195D01*
X178473004Y-86727611D01*
X178473003Y-86727610D01*
X178229462Y-86652488D01*
X178229459Y-86652487D01*
X178229458Y-86652487D01*
X178229453Y-86652486D01*
X178229452Y-86652486D01*
X177977438Y-86614500D01*
X177977435Y-86614500D01*
X177722565Y-86614500D01*
X177722561Y-86614500D01*
X177470547Y-86652486D01*
X177470537Y-86652488D01*
X177226995Y-86727611D01*
X176997373Y-86838191D01*
X176997369Y-86838193D01*
X176997366Y-86838195D01*
X176786783Y-86981768D01*
X176786776Y-86981773D01*
X176599951Y-87155121D01*
X176599940Y-87155133D01*
X176441047Y-87354379D01*
X176441043Y-87354384D01*
X176441041Y-87354388D01*
X176397958Y-87429011D01*
X176313608Y-87575109D01*
X176313604Y-87575118D01*
X176220492Y-87812360D01*
X176163779Y-88060838D01*
X176163777Y-88060847D01*
X176144732Y-88314997D01*
X176144732Y-88315002D01*
X175901760Y-88315002D01*
X175904290Y-88258670D01*
X175874075Y-88035613D01*
X175804517Y-87821536D01*
X175804516Y-87821535D01*
X175804516Y-87821533D01*
X175697851Y-87623318D01*
X175697851Y-87623317D01*
X175557508Y-87447334D01*
X175557507Y-87447333D01*
X175387997Y-87299236D01*
X175387996Y-87299235D01*
X175194764Y-87183785D01*
X175118394Y-87155123D01*
X174984032Y-87104696D01*
X174984031Y-87104695D01*
X174984024Y-87104693D01*
X174923920Y-87093785D01*
X174762551Y-87064500D01*
X174762547Y-87064500D01*
X174593845Y-87064500D01*
X174593842Y-87064500D01*
X174593823Y-87064501D01*
X174425819Y-87079621D01*
X174425808Y-87079623D01*
X174208831Y-87139506D01*
X174208824Y-87139509D01*
X174006029Y-87237169D01*
X173823920Y-87369479D01*
X173668371Y-87532170D01*
X173668371Y-87532171D01*
X173668369Y-87532173D01*
X173668368Y-87532175D01*
X173640028Y-87575109D01*
X173544363Y-87720035D01*
X173544362Y-87720036D01*
X173455896Y-87927012D01*
X173405810Y-88146459D01*
X173405808Y-88146474D01*
X173400065Y-88274338D01*
X173378566Y-88331622D01*
X173374957Y-88334003D01*
X173221058Y-88334003D01*
X173223194Y-88328792D01*
X173223651Y-88328509D01*
X173218542Y-88324434D01*
X173202442Y-88277294D01*
X173202220Y-88274338D01*
X173186222Y-88060843D01*
X173129508Y-87812363D01*
X173036393Y-87575112D01*
X172908959Y-87354388D01*
X172864976Y-87299235D01*
X172750059Y-87155133D01*
X172750048Y-87155121D01*
X172563223Y-86981773D01*
X172563220Y-86981771D01*
X172563217Y-86981768D01*
X172352634Y-86838195D01*
X172123004Y-86727611D01*
X172123003Y-86727611D01*
X171879462Y-86652488D01*
X171879459Y-86652487D01*
X171879458Y-86652487D01*
X171879453Y-86652486D01*
X171879452Y-86652486D01*
X171627438Y-86614500D01*
X171627435Y-86614500D01*
X171372565Y-86614500D01*
X171372561Y-86614500D01*
X171120547Y-86652486D01*
X171120537Y-86652488D01*
X170876995Y-86727611D01*
X170647373Y-86838191D01*
X170647369Y-86838193D01*
X170647366Y-86838195D01*
X170436783Y-86981768D01*
X170436776Y-86981773D01*
X170249951Y-87155121D01*
X170249940Y-87155133D01*
X170091047Y-87354379D01*
X170091043Y-87354384D01*
X170091041Y-87354388D01*
X170047958Y-87429011D01*
X169963608Y-87575109D01*
X169963604Y-87575118D01*
X169870492Y-87812360D01*
X169813779Y-88060838D01*
X169813777Y-88060847D01*
X169794732Y-88314997D01*
X169794732Y-88315002D01*
X166855268Y-88315002D01*
X166855268Y-88314997D01*
X166842426Y-88143629D01*
X166836222Y-88060843D01*
X166779508Y-87812363D01*
X166686393Y-87575112D01*
X166558959Y-87354388D01*
X166514976Y-87299235D01*
X166400059Y-87155133D01*
X166400048Y-87155121D01*
X166213223Y-86981773D01*
X166213220Y-86981771D01*
X166213217Y-86981768D01*
X166002634Y-86838195D01*
X165773004Y-86727611D01*
X165773003Y-86727610D01*
X165529462Y-86652488D01*
X165529459Y-86652487D01*
X165529458Y-86652487D01*
X165529453Y-86652486D01*
X165529452Y-86652486D01*
X165277438Y-86614500D01*
X165277435Y-86614500D01*
X165022565Y-86614500D01*
X165022561Y-86614500D01*
X164770547Y-86652486D01*
X164770537Y-86652488D01*
X164526995Y-86727611D01*
X164297373Y-86838191D01*
X164297369Y-86838193D01*
X164297366Y-86838195D01*
X164086783Y-86981768D01*
X164086776Y-86981773D01*
X163899951Y-87155121D01*
X163899940Y-87155133D01*
X163741047Y-87354379D01*
X163741043Y-87354384D01*
X163741041Y-87354388D01*
X163697958Y-87429011D01*
X163613608Y-87575109D01*
X163613604Y-87575118D01*
X163520492Y-87812360D01*
X163463779Y-88060838D01*
X163463777Y-88060847D01*
X163444732Y-88314997D01*
X163444732Y-88315002D01*
X143705500Y-88315002D01*
X143705500Y-74225002D01*
X163394732Y-74225002D01*
X163413777Y-74479152D01*
X163413779Y-74479161D01*
X163470492Y-74727639D01*
X163563604Y-74964881D01*
X163563607Y-74964888D01*
X163691041Y-75185612D01*
X163691045Y-75185618D01*
X163691047Y-75185620D01*
X163849940Y-75384866D01*
X163849951Y-75384878D01*
X164036776Y-75558226D01*
X164036778Y-75558227D01*
X164036783Y-75558232D01*
X164247366Y-75701805D01*
X164476996Y-75812389D01*
X164720542Y-75887513D01*
X164972565Y-75925500D01*
X164972570Y-75925500D01*
X165227430Y-75925500D01*
X165227435Y-75925500D01*
X165479458Y-75887513D01*
X165723004Y-75812389D01*
X165952634Y-75701805D01*
X166163217Y-75558232D01*
X166350050Y-75384877D01*
X166372907Y-75356216D01*
X166443523Y-75267666D01*
X166508959Y-75185612D01*
X166636393Y-74964888D01*
X166729508Y-74727637D01*
X166786222Y-74479157D01*
X166801980Y-74268877D01*
X166805268Y-74225002D01*
X169744732Y-74225002D01*
X169763777Y-74479152D01*
X169763779Y-74479161D01*
X169820492Y-74727639D01*
X169913604Y-74964881D01*
X169913607Y-74964888D01*
X170041041Y-75185612D01*
X170041045Y-75185618D01*
X170041047Y-75185620D01*
X170199940Y-75384866D01*
X170199951Y-75384878D01*
X170386776Y-75558226D01*
X170386778Y-75558227D01*
X170386783Y-75558232D01*
X170597366Y-75701805D01*
X170826996Y-75812389D01*
X171070542Y-75887513D01*
X171322565Y-75925500D01*
X171322570Y-75925500D01*
X171577430Y-75925500D01*
X171577435Y-75925500D01*
X171829458Y-75887513D01*
X172073004Y-75812389D01*
X172302634Y-75701805D01*
X172513217Y-75558232D01*
X172700050Y-75384877D01*
X172722907Y-75356216D01*
X172793523Y-75267666D01*
X172858959Y-75185612D01*
X172986393Y-74964888D01*
X173079508Y-74727637D01*
X173136222Y-74479157D01*
X173149992Y-74295404D01*
X173171058Y-74244003D01*
X173324957Y-74244003D01*
X173332931Y-74250762D01*
X173346818Y-74289516D01*
X173375925Y-74504387D01*
X173445483Y-74718466D01*
X173552148Y-74916681D01*
X173552148Y-74916682D01*
X173675467Y-75071318D01*
X173692492Y-75092666D01*
X173862004Y-75240765D01*
X174055236Y-75356215D01*
X174265976Y-75435307D01*
X174487453Y-75475500D01*
X174487457Y-75475500D01*
X174656151Y-75475500D01*
X174656155Y-75475500D01*
X174703560Y-75471233D01*
X174824180Y-75460378D01*
X174824183Y-75460377D01*
X174824188Y-75460377D01*
X175041170Y-75400493D01*
X175243973Y-75302829D01*
X175426078Y-75170522D01*
X175581632Y-75007825D01*
X175705635Y-74819968D01*
X175794103Y-74612988D01*
X175844191Y-74393537D01*
X175851760Y-74225002D01*
X176094732Y-74225002D01*
X176113777Y-74479152D01*
X176113779Y-74479161D01*
X176170492Y-74727639D01*
X176263604Y-74964881D01*
X176263607Y-74964888D01*
X176391041Y-75185612D01*
X176391045Y-75185618D01*
X176391047Y-75185620D01*
X176549940Y-75384866D01*
X176549951Y-75384878D01*
X176736776Y-75558226D01*
X176736778Y-75558227D01*
X176736783Y-75558232D01*
X176947366Y-75701805D01*
X177176996Y-75812389D01*
X177420542Y-75887513D01*
X177672565Y-75925500D01*
X177672570Y-75925500D01*
X177927430Y-75925500D01*
X177927435Y-75925500D01*
X178179458Y-75887513D01*
X178423004Y-75812389D01*
X178652634Y-75701805D01*
X178863217Y-75558232D01*
X179050050Y-75384877D01*
X179072907Y-75356216D01*
X179143523Y-75267666D01*
X179208959Y-75185612D01*
X179336393Y-74964888D01*
X179429508Y-74727637D01*
X179486222Y-74479157D01*
X179501980Y-74268877D01*
X179505268Y-74225002D01*
X179505268Y-74224997D01*
X179488842Y-74005802D01*
X179486222Y-73970843D01*
X179429508Y-73722363D01*
X179428729Y-73720379D01*
X179364534Y-73556814D01*
X179336393Y-73485112D01*
X179208959Y-73264388D01*
X179208952Y-73264379D01*
X179050059Y-73065133D01*
X179050048Y-73065121D01*
X178863223Y-72891773D01*
X178863220Y-72891771D01*
X178863217Y-72891768D01*
X178652634Y-72748195D01*
X178423004Y-72637611D01*
X178179462Y-72562488D01*
X178179459Y-72562487D01*
X178179458Y-72562487D01*
X178179453Y-72562486D01*
X178179452Y-72562486D01*
X177927438Y-72524500D01*
X177927435Y-72524500D01*
X177672565Y-72524500D01*
X177672561Y-72524500D01*
X177420547Y-72562486D01*
X177420537Y-72562488D01*
X177176995Y-72637611D01*
X176947373Y-72748191D01*
X176947369Y-72748193D01*
X176947366Y-72748195D01*
X176736783Y-72891768D01*
X176736776Y-72891773D01*
X176549951Y-73065121D01*
X176549940Y-73065133D01*
X176391047Y-73264379D01*
X176391043Y-73264384D01*
X176391041Y-73264388D01*
X176337380Y-73357333D01*
X176263608Y-73485109D01*
X176263604Y-73485118D01*
X176170492Y-73722360D01*
X176113779Y-73970838D01*
X176113777Y-73970847D01*
X176094732Y-74224997D01*
X176094732Y-74225002D01*
X175851760Y-74225002D01*
X175854290Y-74168670D01*
X175824075Y-73945613D01*
X175754517Y-73731536D01*
X175754516Y-73731535D01*
X175754516Y-73731533D01*
X175647851Y-73533318D01*
X175647851Y-73533317D01*
X175507508Y-73357334D01*
X175507507Y-73357333D01*
X175337997Y-73209236D01*
X175337996Y-73209235D01*
X175144764Y-73093785D01*
X175072777Y-73066768D01*
X174934032Y-73014696D01*
X174934031Y-73014695D01*
X174934024Y-73014693D01*
X174873920Y-73003785D01*
X174712551Y-72974500D01*
X174712547Y-72974500D01*
X174543845Y-72974500D01*
X174543842Y-72974500D01*
X174543823Y-72974501D01*
X174375819Y-72989621D01*
X174375808Y-72989623D01*
X174158831Y-73049506D01*
X174158824Y-73049509D01*
X173956029Y-73147169D01*
X173773920Y-73279479D01*
X173618371Y-73442170D01*
X173618371Y-73442171D01*
X173618369Y-73442173D01*
X173618368Y-73442175D01*
X173558855Y-73532334D01*
X173494363Y-73630035D01*
X173494362Y-73630036D01*
X173405896Y-73837012D01*
X173355810Y-74056459D01*
X173355808Y-74056474D01*
X173350065Y-74184338D01*
X173328566Y-74241622D01*
X173324957Y-74244003D01*
X173171058Y-74244003D01*
X173173194Y-74238792D01*
X173173651Y-74238509D01*
X173168542Y-74234434D01*
X173152442Y-74187294D01*
X173152220Y-74184338D01*
X173136222Y-73970843D01*
X173079508Y-73722363D01*
X173078729Y-73720379D01*
X173014534Y-73556814D01*
X172986393Y-73485112D01*
X172858959Y-73264388D01*
X172858952Y-73264379D01*
X172700059Y-73065133D01*
X172700048Y-73065121D01*
X172513223Y-72891773D01*
X172513220Y-72891771D01*
X172513217Y-72891768D01*
X172302634Y-72748195D01*
X172073004Y-72637611D01*
X172073003Y-72637611D01*
X171829462Y-72562488D01*
X171829459Y-72562487D01*
X171829458Y-72562487D01*
X171829453Y-72562486D01*
X171829452Y-72562486D01*
X171577438Y-72524500D01*
X171577435Y-72524500D01*
X171322565Y-72524500D01*
X171322561Y-72524500D01*
X171070547Y-72562486D01*
X171070537Y-72562488D01*
X170826995Y-72637611D01*
X170597373Y-72748191D01*
X170597369Y-72748193D01*
X170597366Y-72748195D01*
X170386783Y-72891768D01*
X170386776Y-72891773D01*
X170199951Y-73065121D01*
X170199940Y-73065133D01*
X170041047Y-73264379D01*
X170041043Y-73264384D01*
X170041041Y-73264388D01*
X169987380Y-73357333D01*
X169913608Y-73485109D01*
X169913604Y-73485118D01*
X169820492Y-73722360D01*
X169763779Y-73970838D01*
X169763777Y-73970847D01*
X169744732Y-74224997D01*
X169744732Y-74225002D01*
X166805268Y-74225002D01*
X166805268Y-74224997D01*
X166788842Y-74005802D01*
X166786222Y-73970843D01*
X166729508Y-73722363D01*
X166728729Y-73720379D01*
X166664534Y-73556814D01*
X166636393Y-73485112D01*
X166508959Y-73264388D01*
X166508952Y-73264379D01*
X166350059Y-73065133D01*
X166350048Y-73065121D01*
X166163223Y-72891773D01*
X166163220Y-72891771D01*
X166163217Y-72891768D01*
X165952634Y-72748195D01*
X165723004Y-72637611D01*
X165723003Y-72637611D01*
X165479462Y-72562488D01*
X165479459Y-72562487D01*
X165479458Y-72562487D01*
X165479453Y-72562486D01*
X165479452Y-72562486D01*
X165227438Y-72524500D01*
X165227435Y-72524500D01*
X164972565Y-72524500D01*
X164972561Y-72524500D01*
X164720547Y-72562486D01*
X164720537Y-72562488D01*
X164476995Y-72637611D01*
X164247373Y-72748191D01*
X164247369Y-72748193D01*
X164247366Y-72748195D01*
X164036783Y-72891768D01*
X164036776Y-72891773D01*
X163849951Y-73065121D01*
X163849940Y-73065133D01*
X163691047Y-73264379D01*
X163691043Y-73264384D01*
X163691041Y-73264388D01*
X163637380Y-73357333D01*
X163563608Y-73485109D01*
X163563604Y-73485118D01*
X163470492Y-73722360D01*
X163413779Y-73970838D01*
X163413777Y-73970847D01*
X163394732Y-74224997D01*
X163394732Y-74225002D01*
X143705500Y-74225002D01*
X143705500Y-71140002D01*
X157594732Y-71140002D01*
X157613777Y-71394152D01*
X157613779Y-71394161D01*
X157670492Y-71642639D01*
X157763604Y-71879881D01*
X157763607Y-71879888D01*
X157891041Y-72100612D01*
X157891045Y-72100618D01*
X157891047Y-72100620D01*
X158049940Y-72299866D01*
X158049951Y-72299878D01*
X158236776Y-72473226D01*
X158236778Y-72473227D01*
X158236783Y-72473232D01*
X158447366Y-72616805D01*
X158676996Y-72727389D01*
X158920542Y-72802513D01*
X159172565Y-72840500D01*
X159172570Y-72840500D01*
X159427430Y-72840500D01*
X159427435Y-72840500D01*
X159679458Y-72802513D01*
X159923004Y-72727389D01*
X160152634Y-72616805D01*
X160363217Y-72473232D01*
X160550050Y-72299877D01*
X160708959Y-72100612D01*
X160836393Y-71879888D01*
X160929508Y-71642637D01*
X160986222Y-71394157D01*
X161005268Y-71140000D01*
X160986222Y-70885843D01*
X160929508Y-70637363D01*
X160836393Y-70400112D01*
X160708959Y-70179388D01*
X160708952Y-70179379D01*
X160550059Y-69980133D01*
X160550048Y-69980121D01*
X160363223Y-69806773D01*
X160363220Y-69806771D01*
X160363217Y-69806768D01*
X160152634Y-69663195D01*
X159923004Y-69552611D01*
X159679462Y-69477488D01*
X159679459Y-69477487D01*
X159679458Y-69477487D01*
X159679453Y-69477486D01*
X159679452Y-69477486D01*
X159427438Y-69439500D01*
X159427435Y-69439500D01*
X159172565Y-69439500D01*
X159172561Y-69439500D01*
X158920547Y-69477486D01*
X158920537Y-69477488D01*
X158676995Y-69552611D01*
X158447373Y-69663191D01*
X158447369Y-69663193D01*
X158447366Y-69663195D01*
X158236783Y-69806768D01*
X158236776Y-69806773D01*
X158049951Y-69980121D01*
X158049940Y-69980133D01*
X157891047Y-70179379D01*
X157891043Y-70179384D01*
X157891041Y-70179388D01*
X157829181Y-70286533D01*
X157763608Y-70400109D01*
X157763604Y-70400118D01*
X157670492Y-70637360D01*
X157613779Y-70885838D01*
X157613777Y-70885847D01*
X157594732Y-71139997D01*
X157594732Y-71140002D01*
X143705500Y-71140002D01*
X143705500Y-67579746D01*
X157599500Y-67579746D01*
X157599501Y-67579758D01*
X157611132Y-67638227D01*
X157611133Y-67638231D01*
X157655448Y-67704552D01*
X157721769Y-67748867D01*
X157766231Y-67757711D01*
X157780241Y-67760498D01*
X157780246Y-67760498D01*
X157780252Y-67760500D01*
X157780253Y-67760500D01*
X160819747Y-67760500D01*
X160819748Y-67760500D01*
X160878231Y-67748867D01*
X160944552Y-67704552D01*
X160988867Y-67638231D01*
X161000500Y-67579748D01*
X161000500Y-65056185D01*
X166499500Y-65056185D01*
X166538603Y-65315609D01*
X166538605Y-65315619D01*
X166615937Y-65566325D01*
X166729768Y-65802696D01*
X166729772Y-65802704D01*
X166877567Y-66019479D01*
X166877570Y-66019482D01*
X166877572Y-66019485D01*
X167056017Y-66211803D01*
X167056029Y-66211814D01*
X167261134Y-66375379D01*
X167261143Y-66375386D01*
X167261147Y-66375388D01*
X167261148Y-66375389D01*
X167488344Y-66506561D01*
X167488348Y-66506563D01*
X167488357Y-66506568D01*
X167582072Y-66543348D01*
X167732580Y-66602419D01*
X167732583Y-66602419D01*
X167732584Y-66602420D01*
X167988370Y-66660802D01*
X168066824Y-66666681D01*
X168184500Y-66675500D01*
X168184506Y-66675500D01*
X168315500Y-66675500D01*
X168422477Y-66667482D01*
X168511630Y-66660802D01*
X168767416Y-66602420D01*
X169011643Y-66506568D01*
X169238857Y-66375386D01*
X169443981Y-66211805D01*
X169622433Y-66019479D01*
X169770228Y-65802704D01*
X169884063Y-65566323D01*
X169961396Y-65315615D01*
X170000500Y-65056182D01*
X170000500Y-64793818D01*
X169961396Y-64534385D01*
X169884063Y-64283677D01*
X169878347Y-64271808D01*
X169809997Y-64129877D01*
X169770228Y-64047296D01*
X169622433Y-63830521D01*
X169604102Y-63810765D01*
X169443982Y-63638196D01*
X169443970Y-63638185D01*
X169238865Y-63474620D01*
X169238851Y-63474610D01*
X169011655Y-63343438D01*
X169011646Y-63343433D01*
X169011643Y-63343432D01*
X169011639Y-63343430D01*
X169011636Y-63343429D01*
X168767419Y-63247580D01*
X168511631Y-63189198D01*
X168511625Y-63189197D01*
X168315500Y-63174500D01*
X168315494Y-63174500D01*
X168184506Y-63174500D01*
X168184500Y-63174500D01*
X167988374Y-63189197D01*
X167988368Y-63189198D01*
X167732580Y-63247580D01*
X167488363Y-63343429D01*
X167488344Y-63343438D01*
X167261148Y-63474610D01*
X167261134Y-63474620D01*
X167056029Y-63638185D01*
X167056017Y-63638196D01*
X166877572Y-63830514D01*
X166877567Y-63830520D01*
X166877567Y-63830521D01*
X166729772Y-64047296D01*
X166729770Y-64047299D01*
X166729768Y-64047303D01*
X166615937Y-64283674D01*
X166538605Y-64534380D01*
X166538603Y-64534390D01*
X166499500Y-64793814D01*
X166499500Y-65056185D01*
X161000500Y-65056185D01*
X161000500Y-64540252D01*
X160988867Y-64481769D01*
X160944552Y-64415448D01*
X160895077Y-64382389D01*
X160878233Y-64371134D01*
X160878231Y-64371133D01*
X160878228Y-64371132D01*
X160878227Y-64371132D01*
X160819758Y-64359501D01*
X160819748Y-64359500D01*
X157780252Y-64359500D01*
X157780251Y-64359500D01*
X157780241Y-64359501D01*
X157721772Y-64371132D01*
X157721766Y-64371134D01*
X157655451Y-64415445D01*
X157655445Y-64415451D01*
X157611134Y-64481766D01*
X157611132Y-64481772D01*
X157599501Y-64540241D01*
X157599500Y-64540253D01*
X157599500Y-67579746D01*
X143705500Y-67579746D01*
X143705500Y-67562500D01*
X143689857Y-67483858D01*
X143671551Y-67439664D01*
X143634924Y-67381373D01*
X143634922Y-67381371D01*
X143560336Y-67328449D01*
X143516145Y-67310144D01*
X143516139Y-67310142D01*
X143437502Y-67294500D01*
X143437500Y-67294500D01*
X139062500Y-67294500D01*
X139062497Y-67294500D01*
X138983860Y-67310142D01*
X138983854Y-67310144D01*
X138939662Y-67328449D01*
X138881373Y-67365075D01*
X138881371Y-67365077D01*
X138828449Y-67439663D01*
X138810144Y-67483854D01*
X138810142Y-67483860D01*
X138794500Y-67562497D01*
X138794500Y-92937502D01*
X99560500Y-92937502D01*
X99560500Y-88700002D01*
X102495233Y-88700002D01*
X102514273Y-88954076D01*
X102514275Y-88954086D01*
X102570970Y-89202487D01*
X102570970Y-89202489D01*
X102664055Y-89439664D01*
X102664064Y-89439683D01*
X102791451Y-89660322D01*
X102791461Y-89660337D01*
X102927567Y-89831009D01*
X103526600Y-89231977D01*
X103581117Y-89204200D01*
X103641549Y-89213771D01*
X103660268Y-89226167D01*
X103661322Y-89227051D01*
X103661809Y-89227460D01*
X103694210Y-89279363D01*
X103689915Y-89340397D01*
X103668144Y-89373274D01*
X103070432Y-89970986D01*
X103070433Y-89970987D01*
X103137092Y-90032838D01*
X103347624Y-90176375D01*
X103577176Y-90286922D01*
X103820649Y-90362023D01*
X103820659Y-90362025D01*
X104072599Y-90399999D01*
X104072608Y-90400000D01*
X104327392Y-90400000D01*
X104327400Y-90399999D01*
X104579340Y-90362025D01*
X104579350Y-90362023D01*
X104822823Y-90286921D01*
X105052376Y-90176375D01*
X105262900Y-90032843D01*
X105329565Y-89970986D01*
X104729897Y-89371318D01*
X104702120Y-89316801D01*
X104711691Y-89256369D01*
X104727887Y-89233382D01*
X104729273Y-89231912D01*
X104782956Y-89202569D01*
X104843641Y-89210384D01*
X104871277Y-89229856D01*
X105472431Y-89831009D01*
X105608543Y-89660330D01*
X105608548Y-89660322D01*
X105735935Y-89439683D01*
X105735944Y-89439664D01*
X105829029Y-89202489D01*
X105829029Y-89202487D01*
X105885724Y-88954086D01*
X105885726Y-88954076D01*
X105900546Y-88756328D01*
X106145709Y-88756328D01*
X106175925Y-88979387D01*
X106245483Y-89193466D01*
X106352148Y-89391681D01*
X106352148Y-89391682D01*
X106492491Y-89567665D01*
X106492492Y-89567666D01*
X106662004Y-89715765D01*
X106855236Y-89831215D01*
X107065976Y-89910307D01*
X107287453Y-89950500D01*
X107287457Y-89950500D01*
X107456151Y-89950500D01*
X107456155Y-89950500D01*
X107503560Y-89946233D01*
X107624180Y-89935378D01*
X107624183Y-89935377D01*
X107624188Y-89935377D01*
X107841170Y-89875493D01*
X108043973Y-89777829D01*
X108226078Y-89645522D01*
X108381632Y-89482825D01*
X108505635Y-89294968D01*
X108594103Y-89087988D01*
X108644191Y-88868537D01*
X108649933Y-88740662D01*
X108670265Y-88686489D01*
X108826347Y-88686489D01*
X108831457Y-88690564D01*
X108847557Y-88737705D01*
X108863777Y-88954151D01*
X108863779Y-88954161D01*
X108920492Y-89202639D01*
X109013604Y-89439881D01*
X109013607Y-89439888D01*
X109141041Y-89660612D01*
X109141045Y-89660618D01*
X109141047Y-89660620D01*
X109299940Y-89859866D01*
X109299951Y-89859878D01*
X109486776Y-90033226D01*
X109486778Y-90033227D01*
X109486783Y-90033232D01*
X109697366Y-90176805D01*
X109926996Y-90287389D01*
X110170542Y-90362513D01*
X110422565Y-90400500D01*
X110422570Y-90400500D01*
X110677430Y-90400500D01*
X110677435Y-90400500D01*
X110929458Y-90362513D01*
X111173004Y-90287389D01*
X111402634Y-90176805D01*
X111613217Y-90033232D01*
X111800050Y-89859877D01*
X111822907Y-89831216D01*
X111865481Y-89777829D01*
X111958959Y-89660612D01*
X112086393Y-89439888D01*
X112179508Y-89202637D01*
X112236222Y-88954157D01*
X112252221Y-88740662D01*
X112255268Y-88700002D01*
X115194732Y-88700002D01*
X115213777Y-88954152D01*
X115213779Y-88954161D01*
X115270492Y-89202639D01*
X115363604Y-89439881D01*
X115363607Y-89439888D01*
X115491041Y-89660612D01*
X115491045Y-89660618D01*
X115491047Y-89660620D01*
X115649940Y-89859866D01*
X115649951Y-89859878D01*
X115836776Y-90033226D01*
X115836778Y-90033227D01*
X115836783Y-90033232D01*
X116047366Y-90176805D01*
X116276996Y-90287389D01*
X116520542Y-90362513D01*
X116772565Y-90400500D01*
X116772570Y-90400500D01*
X117027430Y-90400500D01*
X117027435Y-90400500D01*
X117279458Y-90362513D01*
X117523004Y-90287389D01*
X117752634Y-90176805D01*
X117963217Y-90033232D01*
X118150050Y-89859877D01*
X118172907Y-89831216D01*
X118215481Y-89777829D01*
X118308959Y-89660612D01*
X118436393Y-89439888D01*
X118529508Y-89202637D01*
X118586222Y-88954157D01*
X118602221Y-88740662D01*
X118605268Y-88700002D01*
X118605268Y-88699997D01*
X118595463Y-88569157D01*
X118586222Y-88445843D01*
X118529508Y-88197363D01*
X118525137Y-88186227D01*
X118455313Y-88008319D01*
X118436393Y-87960112D01*
X118308959Y-87739388D01*
X118308952Y-87739379D01*
X118150059Y-87540133D01*
X118150048Y-87540121D01*
X117963223Y-87366773D01*
X117963220Y-87366771D01*
X117963217Y-87366768D01*
X117752634Y-87223195D01*
X117670798Y-87183785D01*
X117523004Y-87112611D01*
X117279462Y-87037488D01*
X117279459Y-87037487D01*
X117279458Y-87037487D01*
X117279453Y-87037486D01*
X117279452Y-87037486D01*
X117027438Y-86999500D01*
X117027435Y-86999500D01*
X116772565Y-86999500D01*
X116772561Y-86999500D01*
X116520547Y-87037486D01*
X116520537Y-87037488D01*
X116276995Y-87112611D01*
X116047373Y-87223191D01*
X116047369Y-87223193D01*
X116047366Y-87223195D01*
X115836783Y-87366768D01*
X115836776Y-87366773D01*
X115649951Y-87540121D01*
X115649940Y-87540133D01*
X115491047Y-87739379D01*
X115491043Y-87739384D01*
X115491041Y-87739388D01*
X115448911Y-87812360D01*
X115363608Y-87960109D01*
X115363604Y-87960118D01*
X115270492Y-88197360D01*
X115213779Y-88445838D01*
X115213777Y-88445847D01*
X115194732Y-88699997D01*
X115194732Y-88700002D01*
X112255268Y-88700002D01*
X112255268Y-88699997D01*
X112245463Y-88569157D01*
X112236222Y-88445843D01*
X112179508Y-88197363D01*
X112175137Y-88186227D01*
X112105313Y-88008319D01*
X112086393Y-87960112D01*
X111958959Y-87739388D01*
X111958952Y-87739379D01*
X111800059Y-87540133D01*
X111800048Y-87540121D01*
X111613223Y-87366773D01*
X111613220Y-87366771D01*
X111613217Y-87366768D01*
X111402634Y-87223195D01*
X111320798Y-87183785D01*
X111173004Y-87112611D01*
X110929462Y-87037488D01*
X110929459Y-87037487D01*
X110929458Y-87037487D01*
X110929453Y-87037486D01*
X110929452Y-87037486D01*
X110677438Y-86999500D01*
X110677435Y-86999500D01*
X110422565Y-86999500D01*
X110422561Y-86999500D01*
X110170547Y-87037486D01*
X110170537Y-87037488D01*
X109926995Y-87112611D01*
X109697373Y-87223191D01*
X109697369Y-87223193D01*
X109697366Y-87223195D01*
X109486783Y-87366768D01*
X109486776Y-87366773D01*
X109299951Y-87540121D01*
X109299940Y-87540133D01*
X109141047Y-87739379D01*
X109141043Y-87739384D01*
X109141041Y-87739388D01*
X109098911Y-87812360D01*
X109013608Y-87960109D01*
X109013604Y-87960118D01*
X108920492Y-88197360D01*
X108863779Y-88445838D01*
X108863777Y-88445847D01*
X108850008Y-88629592D01*
X108826805Y-88686207D01*
X108826347Y-88686489D01*
X108670265Y-88686489D01*
X108671433Y-88683378D01*
X108675041Y-88680995D01*
X108667068Y-88674237D01*
X108653181Y-88635483D01*
X108644197Y-88569161D01*
X108624075Y-88420613D01*
X108554517Y-88206536D01*
X108554516Y-88206535D01*
X108554516Y-88206533D01*
X108493627Y-88093383D01*
X108447852Y-88008319D01*
X108447851Y-88008317D01*
X108307508Y-87832334D01*
X108307507Y-87832333D01*
X108137997Y-87684236D01*
X108137996Y-87684235D01*
X107944764Y-87568785D01*
X107868394Y-87540123D01*
X107734032Y-87489696D01*
X107734031Y-87489695D01*
X107734024Y-87489693D01*
X107673920Y-87478785D01*
X107512551Y-87449500D01*
X107512547Y-87449500D01*
X107343845Y-87449500D01*
X107343842Y-87449500D01*
X107343823Y-87449501D01*
X107175819Y-87464621D01*
X107175808Y-87464623D01*
X106958831Y-87524506D01*
X106958824Y-87524509D01*
X106756029Y-87622169D01*
X106573920Y-87754479D01*
X106418371Y-87917170D01*
X106418371Y-87917171D01*
X106418369Y-87917173D01*
X106418368Y-87917175D01*
X106340189Y-88035612D01*
X106294363Y-88105035D01*
X106294362Y-88105036D01*
X106205896Y-88312012D01*
X106155810Y-88531459D01*
X106155808Y-88531473D01*
X106145709Y-88756328D01*
X105900546Y-88756328D01*
X105904767Y-88700002D01*
X105904767Y-88699997D01*
X105885726Y-88445923D01*
X105885724Y-88445913D01*
X105829029Y-88197512D01*
X105829029Y-88197510D01*
X105735944Y-87960335D01*
X105735935Y-87960316D01*
X105608548Y-87739677D01*
X105608538Y-87739662D01*
X105472431Y-87568989D01*
X105472430Y-87568988D01*
X104873397Y-88168021D01*
X104818881Y-88195798D01*
X104758449Y-88186227D01*
X104739749Y-88173848D01*
X104738212Y-88172558D01*
X104705795Y-88120666D01*
X104710070Y-88059630D01*
X104731853Y-88026723D01*
X105329565Y-87429011D01*
X105262907Y-87367161D01*
X105052376Y-87223624D01*
X104822823Y-87113078D01*
X104579350Y-87037976D01*
X104579340Y-87037974D01*
X104327400Y-87000000D01*
X104072599Y-87000000D01*
X103820659Y-87037974D01*
X103820649Y-87037976D01*
X103577176Y-87113077D01*
X103347624Y-87223624D01*
X103137092Y-87367161D01*
X103070433Y-87429011D01*
X103670101Y-88028680D01*
X103697878Y-88083197D01*
X103688307Y-88143629D01*
X103672102Y-88166628D01*
X103670730Y-88168082D01*
X103617042Y-88197429D01*
X103556357Y-88189614D01*
X103528721Y-88170142D01*
X102927567Y-87568989D01*
X102791455Y-87739670D01*
X102791451Y-87739677D01*
X102664064Y-87960316D01*
X102664055Y-87960335D01*
X102570970Y-88197510D01*
X102570970Y-88197512D01*
X102514275Y-88445913D01*
X102514273Y-88445923D01*
X102495233Y-88699997D01*
X102495233Y-88700002D01*
X99560500Y-88700002D01*
X99560500Y-85600000D01*
X121794318Y-85600000D01*
X121814955Y-85756758D01*
X121814957Y-85756766D01*
X121875462Y-85902838D01*
X121875462Y-85902839D01*
X121875464Y-85902841D01*
X121971718Y-86028282D01*
X122097159Y-86124536D01*
X122243238Y-86185044D01*
X122360809Y-86200522D01*
X122399999Y-86205682D01*
X122400000Y-86205682D01*
X122400001Y-86205682D01*
X122431352Y-86201554D01*
X122556762Y-86185044D01*
X122702841Y-86124536D01*
X122828282Y-86028282D01*
X122924536Y-85902841D01*
X122985044Y-85756762D01*
X123005682Y-85600000D01*
X122985044Y-85443238D01*
X122924537Y-85297161D01*
X122924537Y-85297160D01*
X122828286Y-85171723D01*
X122828285Y-85171722D01*
X122828282Y-85171718D01*
X122764231Y-85122570D01*
X122729576Y-85072145D01*
X122725499Y-85044028D01*
X122725499Y-82555970D01*
X122744406Y-82497779D01*
X122764229Y-82477430D01*
X122828282Y-82428282D01*
X122924536Y-82302841D01*
X122985044Y-82156762D01*
X123005682Y-82000000D01*
X122985044Y-81843238D01*
X122924537Y-81697161D01*
X122924537Y-81697160D01*
X122828286Y-81571723D01*
X122828285Y-81571722D01*
X122828282Y-81571718D01*
X122828277Y-81571714D01*
X122828276Y-81571713D01*
X122702838Y-81475462D01*
X122556766Y-81414957D01*
X122556758Y-81414955D01*
X122400001Y-81394318D01*
X122399999Y-81394318D01*
X122243241Y-81414955D01*
X122243233Y-81414957D01*
X122097161Y-81475462D01*
X122097160Y-81475462D01*
X121971723Y-81571713D01*
X121971713Y-81571723D01*
X121875462Y-81697160D01*
X121875462Y-81697161D01*
X121814957Y-81843233D01*
X121814955Y-81843241D01*
X121794318Y-81999999D01*
X121794318Y-82000000D01*
X121814955Y-82156758D01*
X121814957Y-82156766D01*
X121875462Y-82302838D01*
X121875462Y-82302839D01*
X121971713Y-82428276D01*
X121971718Y-82428282D01*
X122035765Y-82477427D01*
X122035767Y-82477428D01*
X122070423Y-82527852D01*
X122074500Y-82555970D01*
X122074500Y-85044028D01*
X122055593Y-85102219D01*
X122035768Y-85122570D01*
X121971718Y-85171717D01*
X121875462Y-85297160D01*
X121875462Y-85297161D01*
X121814957Y-85443233D01*
X121814955Y-85443241D01*
X121794318Y-85599999D01*
X121794318Y-85600000D01*
X99560500Y-85600000D01*
X99560500Y-84282500D01*
X109951150Y-84282500D01*
X109989334Y-84462143D01*
X109989336Y-84462151D01*
X110066278Y-84634967D01*
X110066282Y-84634974D01*
X110177489Y-84788038D01*
X110177490Y-84788039D01*
X110318077Y-84914623D01*
X110318083Y-84914627D01*
X110481911Y-85009214D01*
X110481925Y-85009220D01*
X110661841Y-85067680D01*
X110802834Y-85082499D01*
X110802839Y-85082500D01*
X111049999Y-85082500D01*
X111050000Y-85082498D01*
X111050000Y-84581500D01*
X111068907Y-84523309D01*
X111118407Y-84487345D01*
X111149000Y-84482500D01*
X111151000Y-84482500D01*
X111209191Y-84501407D01*
X111245155Y-84550907D01*
X111250000Y-84581500D01*
X111250000Y-85082499D01*
X111250001Y-85082500D01*
X111497161Y-85082500D01*
X111497165Y-85082499D01*
X111638156Y-85067680D01*
X111638159Y-85067680D01*
X111818074Y-85009220D01*
X111818088Y-85009214D01*
X111981916Y-84914627D01*
X111981922Y-84914623D01*
X112122509Y-84788039D01*
X112122510Y-84788037D01*
X112233717Y-84634975D01*
X112233721Y-84634968D01*
X112310662Y-84462153D01*
X112310665Y-84462143D01*
X112348850Y-84282500D01*
X111850802Y-84282500D01*
X111792611Y-84263593D01*
X111756647Y-84214093D01*
X111752223Y-84192619D01*
X111752038Y-84190619D01*
X111765505Y-84130934D01*
X111811482Y-84090563D01*
X111850617Y-84082500D01*
X112348850Y-84082500D01*
X112310665Y-83902856D01*
X112310663Y-83902848D01*
X112233721Y-83730032D01*
X112233717Y-83730025D01*
X112122510Y-83576961D01*
X112122509Y-83576960D01*
X111981922Y-83450376D01*
X111981916Y-83450372D01*
X111818088Y-83355785D01*
X111818074Y-83355779D01*
X111638158Y-83297319D01*
X111497165Y-83282500D01*
X111250001Y-83282500D01*
X111250000Y-83282501D01*
X111250000Y-83783500D01*
X111231093Y-83841691D01*
X111181593Y-83877655D01*
X111151000Y-83882500D01*
X111149000Y-83882500D01*
X111090809Y-83863593D01*
X111054845Y-83814093D01*
X111050000Y-83783500D01*
X111050000Y-83282501D01*
X111049999Y-83282500D01*
X110802834Y-83282500D01*
X110661843Y-83297319D01*
X110661840Y-83297319D01*
X110481925Y-83355779D01*
X110481911Y-83355785D01*
X110318083Y-83450372D01*
X110318077Y-83450376D01*
X110177490Y-83576960D01*
X110177489Y-83576962D01*
X110066282Y-83730024D01*
X110066278Y-83730031D01*
X109989337Y-83902846D01*
X109989334Y-83902856D01*
X109951150Y-84082500D01*
X110449198Y-84082500D01*
X110507389Y-84101407D01*
X110543353Y-84150907D01*
X110547777Y-84172381D01*
X110547962Y-84174381D01*
X110534495Y-84234066D01*
X110488518Y-84274437D01*
X110449383Y-84282500D01*
X109951150Y-84282500D01*
X99560500Y-84282500D01*
X99560500Y-81836183D01*
X100495740Y-81836183D01*
X100505755Y-82020907D01*
X100543474Y-82156758D01*
X100555247Y-82199161D01*
X100555250Y-82199167D01*
X100641899Y-82362603D01*
X100641900Y-82362604D01*
X100761661Y-82503598D01*
X100761666Y-82503603D01*
X100908932Y-82615552D01*
X100908934Y-82615553D01*
X100908935Y-82615553D01*
X100908936Y-82615554D01*
X101076833Y-82693232D01*
X101257503Y-82733000D01*
X101257507Y-82733000D01*
X101396112Y-82733000D01*
X101396113Y-82733000D01*
X101533910Y-82718014D01*
X101709221Y-82658944D01*
X101867736Y-82563570D01*
X102002041Y-82436349D01*
X102083829Y-82315719D01*
X102105857Y-82283232D01*
X102105858Y-82283230D01*
X102174331Y-82111375D01*
X102204260Y-81928817D01*
X102199238Y-81836183D01*
X107495740Y-81836183D01*
X107505755Y-82020907D01*
X107543474Y-82156758D01*
X107555247Y-82199161D01*
X107555250Y-82199167D01*
X107641899Y-82362603D01*
X107641900Y-82362604D01*
X107761661Y-82503598D01*
X107761666Y-82503603D01*
X107908932Y-82615552D01*
X107908934Y-82615553D01*
X107908935Y-82615553D01*
X107908936Y-82615554D01*
X108076833Y-82693232D01*
X108257503Y-82733000D01*
X108257507Y-82733000D01*
X108396112Y-82733000D01*
X108396113Y-82733000D01*
X108533910Y-82718014D01*
X108709221Y-82658944D01*
X108867736Y-82563570D01*
X109002041Y-82436349D01*
X109083829Y-82315719D01*
X109105857Y-82283232D01*
X109105858Y-82283230D01*
X109174331Y-82111375D01*
X109204260Y-81928817D01*
X109194245Y-81744093D01*
X109144754Y-81565841D01*
X109058100Y-81402396D01*
X108938337Y-81261400D01*
X108938333Y-81261396D01*
X108791067Y-81149447D01*
X108791065Y-81149446D01*
X108623170Y-81071769D01*
X108623168Y-81071768D01*
X108587033Y-81063814D01*
X108442497Y-81032000D01*
X108303887Y-81032000D01*
X108166090Y-81046986D01*
X108107021Y-81066888D01*
X107990780Y-81106055D01*
X107990777Y-81106056D01*
X107832266Y-81201427D01*
X107832262Y-81201431D01*
X107697960Y-81328649D01*
X107594142Y-81481767D01*
X107525669Y-81653624D01*
X107518532Y-81697161D01*
X107495740Y-81836183D01*
X102199238Y-81836183D01*
X102194245Y-81744093D01*
X102144754Y-81565841D01*
X102058100Y-81402396D01*
X101938337Y-81261400D01*
X101938333Y-81261396D01*
X101791067Y-81149447D01*
X101791065Y-81149446D01*
X101623170Y-81071769D01*
X101623168Y-81071768D01*
X101587033Y-81063814D01*
X101442497Y-81032000D01*
X101303887Y-81032000D01*
X101166090Y-81046986D01*
X101107021Y-81066888D01*
X100990780Y-81106055D01*
X100990777Y-81106056D01*
X100832266Y-81201427D01*
X100832262Y-81201431D01*
X100697960Y-81328649D01*
X100594142Y-81481767D01*
X100525669Y-81653624D01*
X100518532Y-81697161D01*
X100495740Y-81836183D01*
X99560500Y-81836183D01*
X99560500Y-79682500D01*
X101851150Y-79682500D01*
X101889334Y-79862143D01*
X101889336Y-79862151D01*
X101966278Y-80034967D01*
X101966282Y-80034974D01*
X102077489Y-80188038D01*
X102077490Y-80188039D01*
X102218077Y-80314623D01*
X102218083Y-80314627D01*
X102381911Y-80409214D01*
X102381925Y-80409220D01*
X102561841Y-80467680D01*
X102702834Y-80482499D01*
X102702839Y-80482500D01*
X102949999Y-80482500D01*
X102950000Y-80482499D01*
X102950000Y-79981500D01*
X102968907Y-79923309D01*
X103018407Y-79887345D01*
X103049000Y-79882500D01*
X103051000Y-79882500D01*
X103109191Y-79901407D01*
X103145155Y-79950907D01*
X103150000Y-79981500D01*
X103150000Y-80482499D01*
X103150001Y-80482500D01*
X103397161Y-80482500D01*
X103397165Y-80482499D01*
X103538156Y-80467680D01*
X103538159Y-80467680D01*
X103718074Y-80409220D01*
X103718088Y-80409214D01*
X103881916Y-80314627D01*
X103881922Y-80314623D01*
X104022509Y-80188039D01*
X104022510Y-80188037D01*
X104133717Y-80034975D01*
X104133721Y-80034968D01*
X104210662Y-79862153D01*
X104210665Y-79862143D01*
X104248850Y-79682500D01*
X103750802Y-79682500D01*
X103734324Y-79677146D01*
X104849500Y-79677146D01*
X104888856Y-79862303D01*
X104897848Y-79882500D01*
X104965731Y-80034967D01*
X104965849Y-80035230D01*
X105077112Y-80188371D01*
X105217784Y-80315033D01*
X105296928Y-80360727D01*
X105381706Y-80409674D01*
X105381711Y-80409676D01*
X105381716Y-80409679D01*
X105561744Y-80468174D01*
X105702808Y-80483000D01*
X105702811Y-80483000D01*
X106397189Y-80483000D01*
X106397192Y-80483000D01*
X106538256Y-80468174D01*
X106718284Y-80409679D01*
X106719090Y-80409214D01*
X106739648Y-80397344D01*
X106882216Y-80315033D01*
X106896417Y-80302246D01*
X108849500Y-80302246D01*
X108849501Y-80302258D01*
X108861132Y-80360727D01*
X108861134Y-80360733D01*
X108893840Y-80409680D01*
X108905448Y-80427052D01*
X108971769Y-80471367D01*
X109016231Y-80480211D01*
X109030241Y-80482998D01*
X109030246Y-80482998D01*
X109030252Y-80483000D01*
X109030253Y-80483000D01*
X111069747Y-80483000D01*
X111069748Y-80483000D01*
X111128231Y-80471367D01*
X111194552Y-80427052D01*
X111238867Y-80360731D01*
X111250500Y-80302248D01*
X111250500Y-78862752D01*
X111238867Y-78804269D01*
X111194552Y-78737948D01*
X111194548Y-78737945D01*
X111128233Y-78693634D01*
X111128231Y-78693633D01*
X111128228Y-78693632D01*
X111128227Y-78693632D01*
X111069758Y-78682001D01*
X111069748Y-78682000D01*
X109030252Y-78682000D01*
X109030251Y-78682000D01*
X109030241Y-78682001D01*
X108971772Y-78693632D01*
X108971766Y-78693634D01*
X108905451Y-78737945D01*
X108905445Y-78737951D01*
X108861134Y-78804266D01*
X108861132Y-78804272D01*
X108849501Y-78862741D01*
X108849500Y-78862753D01*
X108849500Y-80302246D01*
X106896417Y-80302246D01*
X107022888Y-80188371D01*
X107134151Y-80035230D01*
X107211144Y-79862303D01*
X107250500Y-79677146D01*
X107250500Y-79487854D01*
X107211144Y-79302697D01*
X107134151Y-79129770D01*
X107022888Y-78976629D01*
X107022883Y-78976624D01*
X106882218Y-78849969D01*
X106882216Y-78849967D01*
X106848525Y-78830515D01*
X106718293Y-78755325D01*
X106718279Y-78755319D01*
X106538261Y-78696827D01*
X106538258Y-78696826D01*
X106538256Y-78696826D01*
X106422773Y-78684688D01*
X106397193Y-78682000D01*
X106397192Y-78682000D01*
X105702808Y-78682000D01*
X105702806Y-78682000D01*
X105651644Y-78687377D01*
X105561744Y-78696826D01*
X105561742Y-78696826D01*
X105561738Y-78696827D01*
X105381720Y-78755319D01*
X105381706Y-78755325D01*
X105217787Y-78849965D01*
X105217781Y-78849969D01*
X105077116Y-78976624D01*
X105077111Y-78976629D01*
X104965850Y-79129768D01*
X104965845Y-79129777D01*
X104897848Y-79282500D01*
X104888856Y-79302697D01*
X104849500Y-79487854D01*
X104849500Y-79677146D01*
X103734324Y-79677146D01*
X103692611Y-79663593D01*
X103656647Y-79614093D01*
X103652223Y-79592619D01*
X103652038Y-79590619D01*
X103665505Y-79530934D01*
X103711482Y-79490563D01*
X103750617Y-79482500D01*
X104248850Y-79482500D01*
X104210665Y-79302856D01*
X104210663Y-79302848D01*
X104133721Y-79130032D01*
X104133717Y-79130025D01*
X104022510Y-78976961D01*
X104022509Y-78976960D01*
X103881922Y-78850376D01*
X103881916Y-78850372D01*
X103718088Y-78755785D01*
X103718074Y-78755779D01*
X103538158Y-78697319D01*
X103397165Y-78682500D01*
X103150001Y-78682500D01*
X103150000Y-78682501D01*
X103150000Y-79183500D01*
X103131093Y-79241691D01*
X103081593Y-79277655D01*
X103051000Y-79282500D01*
X103049000Y-79282500D01*
X102990809Y-79263593D01*
X102954845Y-79214093D01*
X102950000Y-79183500D01*
X102950000Y-78682501D01*
X102949999Y-78682500D01*
X102702834Y-78682500D01*
X102561843Y-78697319D01*
X102561840Y-78697319D01*
X102381925Y-78755779D01*
X102381911Y-78755785D01*
X102218083Y-78850372D01*
X102218077Y-78850376D01*
X102077490Y-78976960D01*
X102077489Y-78976962D01*
X101966282Y-79130024D01*
X101966278Y-79130031D01*
X101889337Y-79302846D01*
X101889334Y-79302856D01*
X101851150Y-79482500D01*
X102349198Y-79482500D01*
X102407389Y-79501407D01*
X102443353Y-79550907D01*
X102447777Y-79572381D01*
X102447962Y-79574381D01*
X102434495Y-79634066D01*
X102388518Y-79674437D01*
X102349383Y-79682500D01*
X101851150Y-79682500D01*
X99560500Y-79682500D01*
X99560500Y-77300000D01*
X124594318Y-77300000D01*
X124614955Y-77456758D01*
X124614957Y-77456766D01*
X124675462Y-77602838D01*
X124675462Y-77602839D01*
X124675464Y-77602841D01*
X124771718Y-77728282D01*
X124897159Y-77824536D01*
X125043238Y-77885044D01*
X125160809Y-77900522D01*
X125199999Y-77905682D01*
X125200000Y-77905682D01*
X125200001Y-77905682D01*
X125231352Y-77901554D01*
X125356762Y-77885044D01*
X125502841Y-77824536D01*
X125628282Y-77728282D01*
X125724536Y-77602841D01*
X125785044Y-77456762D01*
X125805682Y-77300000D01*
X125785044Y-77143238D01*
X125724537Y-76997161D01*
X125724537Y-76997160D01*
X125628281Y-76871717D01*
X125564232Y-76822570D01*
X125529577Y-76772145D01*
X125525500Y-76744028D01*
X125525500Y-74955970D01*
X125544407Y-74897779D01*
X125564233Y-74877428D01*
X125628282Y-74828282D01*
X125724536Y-74702841D01*
X125785044Y-74556762D01*
X125805682Y-74400000D01*
X125785044Y-74243238D01*
X125724537Y-74097161D01*
X125724537Y-74097160D01*
X125628286Y-73971723D01*
X125628285Y-73971722D01*
X125628282Y-73971718D01*
X125628277Y-73971714D01*
X125628276Y-73971713D01*
X125543331Y-73906533D01*
X125502841Y-73875464D01*
X125502840Y-73875463D01*
X125502838Y-73875462D01*
X125356766Y-73814957D01*
X125356758Y-73814955D01*
X125200001Y-73794318D01*
X125199999Y-73794318D01*
X125043241Y-73814955D01*
X125043233Y-73814957D01*
X124897161Y-73875462D01*
X124897160Y-73875462D01*
X124771723Y-73971713D01*
X124771713Y-73971723D01*
X124675462Y-74097160D01*
X124675462Y-74097161D01*
X124614957Y-74243233D01*
X124614955Y-74243241D01*
X124594318Y-74399999D01*
X124594318Y-74400000D01*
X124614955Y-74556758D01*
X124614957Y-74556766D01*
X124675462Y-74702838D01*
X124675462Y-74702839D01*
X124765335Y-74819964D01*
X124771718Y-74828282D01*
X124771722Y-74828285D01*
X124835767Y-74877428D01*
X124870423Y-74927852D01*
X124874500Y-74955970D01*
X124874500Y-76744028D01*
X124855593Y-76802219D01*
X124835768Y-76822570D01*
X124771718Y-76871717D01*
X124675462Y-76997160D01*
X124675462Y-76997161D01*
X124614957Y-77143233D01*
X124614955Y-77143241D01*
X124594318Y-77299999D01*
X124594318Y-77300000D01*
X99560500Y-77300000D01*
X99560500Y-74400002D01*
X102395233Y-74400002D01*
X102414273Y-74654076D01*
X102414275Y-74654086D01*
X102470970Y-74902487D01*
X102470970Y-74902489D01*
X102564055Y-75139664D01*
X102564064Y-75139683D01*
X102691451Y-75360322D01*
X102691461Y-75360337D01*
X102827567Y-75531009D01*
X103426600Y-74931977D01*
X103481117Y-74904200D01*
X103541549Y-74913771D01*
X103560268Y-74926167D01*
X103561322Y-74927051D01*
X103561809Y-74927460D01*
X103594210Y-74979363D01*
X103589915Y-75040397D01*
X103568144Y-75073274D01*
X102970432Y-75670986D01*
X102970433Y-75670987D01*
X103037092Y-75732838D01*
X103247624Y-75876375D01*
X103477176Y-75986922D01*
X103720649Y-76062023D01*
X103720659Y-76062025D01*
X103972599Y-76099999D01*
X103972608Y-76100000D01*
X104227392Y-76100000D01*
X104227400Y-76099999D01*
X104479340Y-76062025D01*
X104479350Y-76062023D01*
X104722823Y-75986921D01*
X104952376Y-75876375D01*
X105162900Y-75732843D01*
X105229565Y-75670986D01*
X104629897Y-75071318D01*
X104602120Y-75016801D01*
X104611691Y-74956369D01*
X104627887Y-74933382D01*
X104629273Y-74931912D01*
X104682956Y-74902569D01*
X104743641Y-74910384D01*
X104771277Y-74929856D01*
X105372431Y-75531009D01*
X105508543Y-75360330D01*
X105508548Y-75360322D01*
X105635935Y-75139683D01*
X105635944Y-75139664D01*
X105729029Y-74902489D01*
X105729029Y-74902487D01*
X105785724Y-74654086D01*
X105785726Y-74654076D01*
X105800546Y-74456328D01*
X106045709Y-74456328D01*
X106075925Y-74679387D01*
X106145483Y-74893466D01*
X106252148Y-75091681D01*
X106252148Y-75091682D01*
X106327058Y-75185615D01*
X106392492Y-75267666D01*
X106562004Y-75415765D01*
X106755236Y-75531215D01*
X106965976Y-75610307D01*
X107187453Y-75650500D01*
X107187457Y-75650500D01*
X107356151Y-75650500D01*
X107356155Y-75650500D01*
X107403560Y-75646233D01*
X107524180Y-75635378D01*
X107524183Y-75635377D01*
X107524188Y-75635377D01*
X107741170Y-75575493D01*
X107943973Y-75477829D01*
X108126078Y-75345522D01*
X108281632Y-75182825D01*
X108405635Y-74994968D01*
X108494103Y-74787988D01*
X108544191Y-74568537D01*
X108549933Y-74440662D01*
X108570265Y-74386489D01*
X108726347Y-74386489D01*
X108731457Y-74390564D01*
X108747557Y-74437705D01*
X108763777Y-74654151D01*
X108763779Y-74654161D01*
X108820492Y-74902639D01*
X108913604Y-75139881D01*
X108913607Y-75139888D01*
X109041041Y-75360612D01*
X109041045Y-75360618D01*
X109041047Y-75360620D01*
X109199940Y-75559866D01*
X109199951Y-75559878D01*
X109386776Y-75733226D01*
X109386778Y-75733227D01*
X109386783Y-75733232D01*
X109597366Y-75876805D01*
X109826996Y-75987389D01*
X110070542Y-76062513D01*
X110322565Y-76100500D01*
X110322570Y-76100500D01*
X110577430Y-76100500D01*
X110577435Y-76100500D01*
X110829458Y-76062513D01*
X111073004Y-75987389D01*
X111302634Y-75876805D01*
X111513217Y-75733232D01*
X111700050Y-75559877D01*
X111722907Y-75531216D01*
X111765481Y-75477829D01*
X111858959Y-75360612D01*
X111986393Y-75139888D01*
X112079508Y-74902637D01*
X112136222Y-74654157D01*
X112152221Y-74440662D01*
X112155268Y-74400002D01*
X115094732Y-74400002D01*
X115113777Y-74654152D01*
X115113779Y-74654161D01*
X115170492Y-74902639D01*
X115263604Y-75139881D01*
X115263607Y-75139888D01*
X115391041Y-75360612D01*
X115391045Y-75360618D01*
X115391047Y-75360620D01*
X115549940Y-75559866D01*
X115549951Y-75559878D01*
X115736776Y-75733226D01*
X115736778Y-75733227D01*
X115736783Y-75733232D01*
X115947366Y-75876805D01*
X116176996Y-75987389D01*
X116420542Y-76062513D01*
X116672565Y-76100500D01*
X116672570Y-76100500D01*
X116927430Y-76100500D01*
X116927435Y-76100500D01*
X117179458Y-76062513D01*
X117423004Y-75987389D01*
X117652634Y-75876805D01*
X117863217Y-75733232D01*
X118050050Y-75559877D01*
X118072907Y-75531216D01*
X118115481Y-75477829D01*
X118208959Y-75360612D01*
X118336393Y-75139888D01*
X118429508Y-74902637D01*
X118486222Y-74654157D01*
X118502221Y-74440662D01*
X118505268Y-74400002D01*
X118505268Y-74399997D01*
X118493521Y-74243241D01*
X118486222Y-74145843D01*
X118429508Y-73897363D01*
X118425137Y-73886227D01*
X118355313Y-73708319D01*
X118336393Y-73660112D01*
X118208959Y-73439388D01*
X118143523Y-73357334D01*
X118050059Y-73240133D01*
X118050048Y-73240121D01*
X117863223Y-73066773D01*
X117863220Y-73066771D01*
X117863217Y-73066768D01*
X117652634Y-72923195D01*
X117423004Y-72812611D01*
X117390261Y-72802511D01*
X117179462Y-72737488D01*
X117179459Y-72737487D01*
X117179458Y-72737487D01*
X117179453Y-72737486D01*
X117179452Y-72737486D01*
X116927438Y-72699500D01*
X116927435Y-72699500D01*
X116672565Y-72699500D01*
X116672561Y-72699500D01*
X116420547Y-72737486D01*
X116420537Y-72737488D01*
X116176995Y-72812611D01*
X115947373Y-72923191D01*
X115947369Y-72923193D01*
X115947366Y-72923195D01*
X115739199Y-73065121D01*
X115736776Y-73066773D01*
X115549951Y-73240121D01*
X115549940Y-73240133D01*
X115391047Y-73439379D01*
X115391043Y-73439384D01*
X115391041Y-73439388D01*
X115364639Y-73485118D01*
X115263608Y-73660109D01*
X115263604Y-73660118D01*
X115170492Y-73897360D01*
X115113779Y-74145838D01*
X115113777Y-74145847D01*
X115094732Y-74399997D01*
X115094732Y-74400002D01*
X112155268Y-74400002D01*
X112155268Y-74399997D01*
X112143521Y-74243241D01*
X112136222Y-74145843D01*
X112079508Y-73897363D01*
X112075137Y-73886227D01*
X112005313Y-73708319D01*
X111986393Y-73660112D01*
X111858959Y-73439388D01*
X111793523Y-73357334D01*
X111700059Y-73240133D01*
X111700048Y-73240121D01*
X111513223Y-73066773D01*
X111513220Y-73066771D01*
X111513217Y-73066768D01*
X111302634Y-72923195D01*
X111073004Y-72812611D01*
X111040261Y-72802511D01*
X110829462Y-72737488D01*
X110829459Y-72737487D01*
X110829458Y-72737487D01*
X110829453Y-72737486D01*
X110829452Y-72737486D01*
X110577438Y-72699500D01*
X110577435Y-72699500D01*
X110322565Y-72699500D01*
X110322561Y-72699500D01*
X110070547Y-72737486D01*
X110070537Y-72737488D01*
X109826995Y-72812611D01*
X109597373Y-72923191D01*
X109597369Y-72923193D01*
X109597366Y-72923195D01*
X109389199Y-73065121D01*
X109386776Y-73066773D01*
X109199951Y-73240121D01*
X109199940Y-73240133D01*
X109041047Y-73439379D01*
X109041043Y-73439384D01*
X109041041Y-73439388D01*
X109014639Y-73485118D01*
X108913608Y-73660109D01*
X108913604Y-73660118D01*
X108820492Y-73897360D01*
X108763779Y-74145838D01*
X108763777Y-74145847D01*
X108750008Y-74329592D01*
X108726805Y-74386207D01*
X108726347Y-74386489D01*
X108570265Y-74386489D01*
X108571433Y-74383378D01*
X108575041Y-74380995D01*
X108567068Y-74374237D01*
X108553181Y-74335483D01*
X108546954Y-74289516D01*
X108524075Y-74120613D01*
X108454517Y-73906536D01*
X108454516Y-73906535D01*
X108454516Y-73906533D01*
X108393626Y-73793383D01*
X108347852Y-73708319D01*
X108347851Y-73708317D01*
X108207508Y-73532334D01*
X108207507Y-73532333D01*
X108037997Y-73384236D01*
X108037996Y-73384235D01*
X107844764Y-73268785D01*
X107833048Y-73264388D01*
X107634032Y-73189696D01*
X107634031Y-73189695D01*
X107634024Y-73189693D01*
X107573920Y-73178785D01*
X107412551Y-73149500D01*
X107412547Y-73149500D01*
X107243845Y-73149500D01*
X107243842Y-73149500D01*
X107243823Y-73149501D01*
X107075819Y-73164621D01*
X107075808Y-73164623D01*
X106858831Y-73224506D01*
X106858824Y-73224509D01*
X106656029Y-73322169D01*
X106473920Y-73454479D01*
X106318371Y-73617170D01*
X106318371Y-73617171D01*
X106318369Y-73617173D01*
X106318368Y-73617175D01*
X106242881Y-73731533D01*
X106194363Y-73805035D01*
X106194362Y-73805036D01*
X106105896Y-74012012D01*
X106055810Y-74231459D01*
X106055808Y-74231473D01*
X106045709Y-74456328D01*
X105800546Y-74456328D01*
X105804767Y-74400002D01*
X105804767Y-74399997D01*
X105785726Y-74145923D01*
X105785724Y-74145913D01*
X105729029Y-73897512D01*
X105729029Y-73897510D01*
X105635944Y-73660335D01*
X105635935Y-73660316D01*
X105508548Y-73439677D01*
X105508538Y-73439662D01*
X105372431Y-73268989D01*
X105372430Y-73268988D01*
X104773397Y-73868021D01*
X104718881Y-73895798D01*
X104658449Y-73886227D01*
X104639749Y-73873848D01*
X104638212Y-73872558D01*
X104605795Y-73820666D01*
X104610070Y-73759630D01*
X104631853Y-73726723D01*
X105229565Y-73129011D01*
X105162907Y-73067161D01*
X104952376Y-72923624D01*
X104722823Y-72813078D01*
X104479350Y-72737976D01*
X104479340Y-72737974D01*
X104227400Y-72700000D01*
X103972599Y-72700000D01*
X103720659Y-72737974D01*
X103720649Y-72737976D01*
X103477176Y-72813077D01*
X103247624Y-72923624D01*
X103037092Y-73067161D01*
X102970433Y-73129011D01*
X103570101Y-73728680D01*
X103597878Y-73783197D01*
X103588307Y-73843629D01*
X103572102Y-73866628D01*
X103570730Y-73868082D01*
X103517042Y-73897429D01*
X103456357Y-73889614D01*
X103428721Y-73870142D01*
X102827567Y-73268989D01*
X102691455Y-73439670D01*
X102691451Y-73439677D01*
X102564064Y-73660316D01*
X102564055Y-73660335D01*
X102470970Y-73897510D01*
X102470970Y-73897512D01*
X102414275Y-74145913D01*
X102414273Y-74145923D01*
X102395233Y-74399997D01*
X102395233Y-74400002D01*
X99560500Y-74400002D01*
X99560500Y-72401185D01*
X111899500Y-72401185D01*
X111938603Y-72660609D01*
X111938605Y-72660619D01*
X112015937Y-72911325D01*
X112103805Y-73093783D01*
X112129772Y-73147704D01*
X112277567Y-73364479D01*
X112277570Y-73364482D01*
X112277572Y-73364485D01*
X112456017Y-73556803D01*
X112456029Y-73556814D01*
X112646009Y-73708317D01*
X112661143Y-73720386D01*
X112661147Y-73720388D01*
X112661148Y-73720389D01*
X112888344Y-73851561D01*
X112888348Y-73851563D01*
X112888357Y-73851568D01*
X112930279Y-73868021D01*
X113132580Y-73947419D01*
X113132583Y-73947419D01*
X113132584Y-73947420D01*
X113388370Y-74005802D01*
X113466824Y-74011681D01*
X113584500Y-74020500D01*
X113584506Y-74020500D01*
X113715500Y-74020500D01*
X113828761Y-74012012D01*
X113911630Y-74005802D01*
X114167416Y-73947420D01*
X114172021Y-73945613D01*
X114214273Y-73929029D01*
X114411643Y-73851568D01*
X114638857Y-73720386D01*
X114843981Y-73556805D01*
X115022433Y-73364479D01*
X115170228Y-73147704D01*
X115284063Y-72911323D01*
X115361396Y-72660615D01*
X115400500Y-72401182D01*
X115400500Y-72138818D01*
X115361396Y-71879385D01*
X115284063Y-71628677D01*
X115170228Y-71392296D01*
X115022433Y-71175521D01*
X114989476Y-71140002D01*
X114843982Y-70983196D01*
X114843970Y-70983185D01*
X114638865Y-70819620D01*
X114638851Y-70819610D01*
X114411655Y-70688438D01*
X114411646Y-70688433D01*
X114411643Y-70688432D01*
X114411639Y-70688430D01*
X114411636Y-70688429D01*
X114167419Y-70592580D01*
X113911631Y-70534198D01*
X113911625Y-70534197D01*
X113715500Y-70519500D01*
X113715494Y-70519500D01*
X113584506Y-70519500D01*
X113584500Y-70519500D01*
X113388374Y-70534197D01*
X113388368Y-70534198D01*
X113132580Y-70592580D01*
X112888363Y-70688429D01*
X112888344Y-70688438D01*
X112661148Y-70819610D01*
X112661134Y-70819620D01*
X112456029Y-70983185D01*
X112456017Y-70983196D01*
X112277572Y-71175514D01*
X112277567Y-71175520D01*
X112277567Y-71175521D01*
X112129772Y-71392296D01*
X112129770Y-71392299D01*
X112129768Y-71392303D01*
X112015937Y-71628674D01*
X111938605Y-71879380D01*
X111938603Y-71879390D01*
X111899500Y-72138814D01*
X111899500Y-72401185D01*
X99560500Y-72401185D01*
X99560500Y-62970002D01*
X102395233Y-62970002D01*
X102414273Y-63224076D01*
X102414275Y-63224086D01*
X102470970Y-63472487D01*
X102470970Y-63472489D01*
X102564055Y-63709664D01*
X102564064Y-63709683D01*
X102691451Y-63930322D01*
X102691461Y-63930337D01*
X102827567Y-64101009D01*
X103426600Y-63501977D01*
X103481117Y-63474200D01*
X103541549Y-63483771D01*
X103560268Y-63496167D01*
X103561322Y-63497051D01*
X103561809Y-63497460D01*
X103594210Y-63549363D01*
X103589915Y-63610397D01*
X103568144Y-63643274D01*
X102970432Y-64240986D01*
X102970433Y-64240987D01*
X103037092Y-64302838D01*
X103247624Y-64446375D01*
X103477176Y-64556922D01*
X103720649Y-64632023D01*
X103720659Y-64632025D01*
X103972599Y-64669999D01*
X103972608Y-64670000D01*
X104227392Y-64670000D01*
X104227400Y-64669999D01*
X104479340Y-64632025D01*
X104479350Y-64632023D01*
X104722823Y-64556921D01*
X104952376Y-64446375D01*
X105162900Y-64302843D01*
X105229565Y-64240986D01*
X104629897Y-63641318D01*
X104602120Y-63586801D01*
X104611691Y-63526369D01*
X104627887Y-63503382D01*
X104629273Y-63501912D01*
X104682956Y-63472569D01*
X104743641Y-63480384D01*
X104771277Y-63499856D01*
X105372431Y-64101009D01*
X105508543Y-63930330D01*
X105508548Y-63930322D01*
X105635935Y-63709683D01*
X105635944Y-63709664D01*
X105729029Y-63472489D01*
X105729029Y-63472487D01*
X105785724Y-63224086D01*
X105785726Y-63224076D01*
X105800546Y-63026328D01*
X106045709Y-63026328D01*
X106075925Y-63249387D01*
X106145483Y-63463466D01*
X106252148Y-63661681D01*
X106252148Y-63661682D01*
X106327058Y-63755615D01*
X106392492Y-63837666D01*
X106562004Y-63985765D01*
X106755236Y-64101215D01*
X106965976Y-64180307D01*
X107187453Y-64220500D01*
X107187457Y-64220500D01*
X107356151Y-64220500D01*
X107356155Y-64220500D01*
X107403560Y-64216233D01*
X107524180Y-64205378D01*
X107524183Y-64205377D01*
X107524188Y-64205377D01*
X107741170Y-64145493D01*
X107943973Y-64047829D01*
X108126078Y-63915522D01*
X108281632Y-63752825D01*
X108405635Y-63564968D01*
X108494103Y-63357988D01*
X108544191Y-63138537D01*
X108549933Y-63010662D01*
X108570265Y-62956489D01*
X108726347Y-62956489D01*
X108731457Y-62960564D01*
X108747557Y-63007705D01*
X108763777Y-63224151D01*
X108763779Y-63224161D01*
X108820492Y-63472639D01*
X108913604Y-63709881D01*
X108913607Y-63709888D01*
X109041041Y-63930612D01*
X109041045Y-63930618D01*
X109041047Y-63930620D01*
X109199940Y-64129866D01*
X109199951Y-64129878D01*
X109386776Y-64303226D01*
X109386778Y-64303227D01*
X109386783Y-64303232D01*
X109597366Y-64446805D01*
X109826996Y-64557389D01*
X110070542Y-64632513D01*
X110322565Y-64670500D01*
X110322570Y-64670500D01*
X110577430Y-64670500D01*
X110577435Y-64670500D01*
X110829458Y-64632513D01*
X111073004Y-64557389D01*
X111302634Y-64446805D01*
X111513217Y-64303232D01*
X111700050Y-64129877D01*
X111722907Y-64101216D01*
X111765906Y-64047296D01*
X111858959Y-63930612D01*
X111986393Y-63709888D01*
X112079508Y-63472637D01*
X112136222Y-63224157D01*
X112152221Y-63010662D01*
X112155268Y-62970002D01*
X115094732Y-62970002D01*
X115113777Y-63224152D01*
X115113779Y-63224161D01*
X115170492Y-63472639D01*
X115263604Y-63709881D01*
X115263607Y-63709888D01*
X115391041Y-63930612D01*
X115391045Y-63930618D01*
X115391047Y-63930620D01*
X115549940Y-64129866D01*
X115549951Y-64129878D01*
X115736776Y-64303226D01*
X115736778Y-64303227D01*
X115736783Y-64303232D01*
X115947366Y-64446805D01*
X116176996Y-64557389D01*
X116420542Y-64632513D01*
X116672565Y-64670500D01*
X116672570Y-64670500D01*
X116927430Y-64670500D01*
X116927435Y-64670500D01*
X117179458Y-64632513D01*
X117423004Y-64557389D01*
X117652634Y-64446805D01*
X117863217Y-64303232D01*
X118050050Y-64129877D01*
X118072907Y-64101216D01*
X118115906Y-64047296D01*
X118208959Y-63930612D01*
X118336393Y-63709888D01*
X118429508Y-63472637D01*
X118486222Y-63224157D01*
X118502221Y-63010662D01*
X118505268Y-62970002D01*
X118505268Y-62969997D01*
X118492154Y-62795002D01*
X163394732Y-62795002D01*
X163413777Y-63049152D01*
X163413779Y-63049161D01*
X163470492Y-63297639D01*
X163563604Y-63534881D01*
X163563607Y-63534888D01*
X163691041Y-63755612D01*
X163691045Y-63755618D01*
X163691047Y-63755620D01*
X163849940Y-63954866D01*
X163849951Y-63954878D01*
X164036776Y-64128226D01*
X164036778Y-64128227D01*
X164036783Y-64128232D01*
X164247366Y-64271805D01*
X164476996Y-64382389D01*
X164720542Y-64457513D01*
X164972565Y-64495500D01*
X164972570Y-64495500D01*
X165227430Y-64495500D01*
X165227435Y-64495500D01*
X165479458Y-64457513D01*
X165723004Y-64382389D01*
X165952634Y-64271805D01*
X166163217Y-64128232D01*
X166350050Y-63954877D01*
X166372907Y-63926216D01*
X166443523Y-63837666D01*
X166508959Y-63755612D01*
X166636393Y-63534888D01*
X166729508Y-63297637D01*
X166786222Y-63049157D01*
X166801980Y-62838877D01*
X166805268Y-62795002D01*
X169744732Y-62795002D01*
X169763777Y-63049152D01*
X169763779Y-63049161D01*
X169820492Y-63297639D01*
X169913604Y-63534881D01*
X169913607Y-63534888D01*
X170041041Y-63755612D01*
X170041045Y-63755618D01*
X170041047Y-63755620D01*
X170199940Y-63954866D01*
X170199951Y-63954878D01*
X170386776Y-64128226D01*
X170386778Y-64128227D01*
X170386783Y-64128232D01*
X170597366Y-64271805D01*
X170826996Y-64382389D01*
X171070542Y-64457513D01*
X171322565Y-64495500D01*
X171322570Y-64495500D01*
X171577430Y-64495500D01*
X171577435Y-64495500D01*
X171829458Y-64457513D01*
X172073004Y-64382389D01*
X172302634Y-64271805D01*
X172513217Y-64128232D01*
X172700050Y-63954877D01*
X172722907Y-63926216D01*
X172793523Y-63837666D01*
X172858959Y-63755612D01*
X172986393Y-63534888D01*
X173079508Y-63297637D01*
X173136222Y-63049157D01*
X173149992Y-62865404D01*
X173171058Y-62814003D01*
X173324957Y-62814003D01*
X173332931Y-62820762D01*
X173346818Y-62859516D01*
X173375925Y-63074387D01*
X173445483Y-63288466D01*
X173552148Y-63486681D01*
X173552148Y-63486682D01*
X173675467Y-63641318D01*
X173692492Y-63662666D01*
X173862004Y-63810765D01*
X174055236Y-63926215D01*
X174265976Y-64005307D01*
X174487453Y-64045500D01*
X174487457Y-64045500D01*
X174656151Y-64045500D01*
X174656155Y-64045500D01*
X174703560Y-64041233D01*
X174824180Y-64030378D01*
X174824183Y-64030377D01*
X174824188Y-64030377D01*
X175041170Y-63970493D01*
X175243973Y-63872829D01*
X175426078Y-63740522D01*
X175581632Y-63577825D01*
X175705635Y-63389968D01*
X175794103Y-63182988D01*
X175844191Y-62963537D01*
X175851760Y-62795002D01*
X176094732Y-62795002D01*
X176113777Y-63049152D01*
X176113779Y-63049161D01*
X176170492Y-63297639D01*
X176263604Y-63534881D01*
X176263607Y-63534888D01*
X176391041Y-63755612D01*
X176391045Y-63755618D01*
X176391047Y-63755620D01*
X176549940Y-63954866D01*
X176549951Y-63954878D01*
X176736776Y-64128226D01*
X176736778Y-64128227D01*
X176736783Y-64128232D01*
X176947366Y-64271805D01*
X177176996Y-64382389D01*
X177420542Y-64457513D01*
X177672565Y-64495500D01*
X177672570Y-64495500D01*
X177927430Y-64495500D01*
X177927435Y-64495500D01*
X178179458Y-64457513D01*
X178423004Y-64382389D01*
X178652634Y-64271805D01*
X178863217Y-64128232D01*
X179050050Y-63954877D01*
X179072907Y-63926216D01*
X179143523Y-63837666D01*
X179208959Y-63755612D01*
X179336393Y-63534888D01*
X179429508Y-63297637D01*
X179486222Y-63049157D01*
X179501980Y-62838877D01*
X179505268Y-62795002D01*
X179505268Y-62794997D01*
X179486222Y-62540847D01*
X179486222Y-62540843D01*
X179429508Y-62292363D01*
X179336393Y-62055112D01*
X179208959Y-61834388D01*
X179208952Y-61834379D01*
X179050059Y-61635133D01*
X179050048Y-61635121D01*
X178863223Y-61461773D01*
X178863220Y-61461771D01*
X178863217Y-61461768D01*
X178652634Y-61318195D01*
X178423004Y-61207611D01*
X178423004Y-61207610D01*
X178179462Y-61132488D01*
X178179459Y-61132487D01*
X178179458Y-61132487D01*
X178179453Y-61132486D01*
X178179452Y-61132486D01*
X177927438Y-61094500D01*
X177927435Y-61094500D01*
X177672565Y-61094500D01*
X177672561Y-61094500D01*
X177420547Y-61132486D01*
X177420537Y-61132488D01*
X177176995Y-61207611D01*
X176947373Y-61318191D01*
X176947369Y-61318193D01*
X176947366Y-61318195D01*
X176736783Y-61461768D01*
X176736776Y-61461773D01*
X176549951Y-61635121D01*
X176549940Y-61635133D01*
X176391047Y-61834379D01*
X176391043Y-61834384D01*
X176391041Y-61834388D01*
X176337380Y-61927333D01*
X176263608Y-62055109D01*
X176263604Y-62055118D01*
X176170492Y-62292360D01*
X176113779Y-62540838D01*
X176113777Y-62540847D01*
X176094732Y-62794997D01*
X176094732Y-62795002D01*
X175851760Y-62795002D01*
X175854290Y-62738670D01*
X175824075Y-62515613D01*
X175754517Y-62301536D01*
X175754516Y-62301535D01*
X175754516Y-62301533D01*
X175647851Y-62103318D01*
X175647851Y-62103317D01*
X175507508Y-61927334D01*
X175507507Y-61927333D01*
X175337997Y-61779236D01*
X175337996Y-61779235D01*
X175144764Y-61663785D01*
X175072777Y-61636768D01*
X174934032Y-61584696D01*
X174934031Y-61584695D01*
X174934024Y-61584693D01*
X174873920Y-61573785D01*
X174712551Y-61544500D01*
X174712547Y-61544500D01*
X174543845Y-61544500D01*
X174543842Y-61544500D01*
X174543823Y-61544501D01*
X174375819Y-61559621D01*
X174375808Y-61559623D01*
X174158831Y-61619506D01*
X174158824Y-61619509D01*
X173956029Y-61717169D01*
X173773920Y-61849479D01*
X173618371Y-62012170D01*
X173618371Y-62012171D01*
X173618369Y-62012173D01*
X173618368Y-62012175D01*
X173558855Y-62102334D01*
X173494363Y-62200035D01*
X173494362Y-62200036D01*
X173405896Y-62407012D01*
X173355810Y-62626459D01*
X173355808Y-62626474D01*
X173350065Y-62754338D01*
X173328566Y-62811622D01*
X173324957Y-62814003D01*
X173171058Y-62814003D01*
X173173194Y-62808792D01*
X173173651Y-62808509D01*
X173168542Y-62804434D01*
X173152442Y-62757294D01*
X173152220Y-62754338D01*
X173136222Y-62540843D01*
X173079508Y-62292363D01*
X172986393Y-62055112D01*
X172858959Y-61834388D01*
X172858952Y-61834379D01*
X172700059Y-61635133D01*
X172700048Y-61635121D01*
X172513223Y-61461773D01*
X172513220Y-61461771D01*
X172513217Y-61461768D01*
X172302634Y-61318195D01*
X172073004Y-61207611D01*
X172073003Y-61207610D01*
X171829462Y-61132488D01*
X171829459Y-61132487D01*
X171829458Y-61132487D01*
X171829453Y-61132486D01*
X171829452Y-61132486D01*
X171577438Y-61094500D01*
X171577435Y-61094500D01*
X171322565Y-61094500D01*
X171322561Y-61094500D01*
X171070547Y-61132486D01*
X171070537Y-61132488D01*
X170826995Y-61207611D01*
X170597373Y-61318191D01*
X170597369Y-61318193D01*
X170597366Y-61318195D01*
X170386783Y-61461768D01*
X170386776Y-61461773D01*
X170199951Y-61635121D01*
X170199940Y-61635133D01*
X170041047Y-61834379D01*
X170041043Y-61834384D01*
X170041041Y-61834388D01*
X169987380Y-61927333D01*
X169913608Y-62055109D01*
X169913604Y-62055118D01*
X169820492Y-62292360D01*
X169763779Y-62540838D01*
X169763777Y-62540847D01*
X169744732Y-62794997D01*
X169744732Y-62795002D01*
X166805268Y-62795002D01*
X166805268Y-62794997D01*
X166786222Y-62540847D01*
X166786222Y-62540843D01*
X166729508Y-62292363D01*
X166636393Y-62055112D01*
X166508959Y-61834388D01*
X166508952Y-61834379D01*
X166350059Y-61635133D01*
X166350048Y-61635121D01*
X166163223Y-61461773D01*
X166163220Y-61461771D01*
X166163217Y-61461768D01*
X165952634Y-61318195D01*
X165723004Y-61207611D01*
X165723003Y-61207610D01*
X165479462Y-61132488D01*
X165479459Y-61132487D01*
X165479458Y-61132487D01*
X165479453Y-61132486D01*
X165479452Y-61132486D01*
X165227438Y-61094500D01*
X165227435Y-61094500D01*
X164972565Y-61094500D01*
X164972561Y-61094500D01*
X164720547Y-61132486D01*
X164720537Y-61132488D01*
X164476995Y-61207611D01*
X164247373Y-61318191D01*
X164247369Y-61318193D01*
X164247366Y-61318195D01*
X164036783Y-61461768D01*
X164036776Y-61461773D01*
X163849951Y-61635121D01*
X163849940Y-61635133D01*
X163691047Y-61834379D01*
X163691043Y-61834384D01*
X163691041Y-61834388D01*
X163637380Y-61927333D01*
X163563608Y-62055109D01*
X163563604Y-62055118D01*
X163470492Y-62292360D01*
X163413779Y-62540838D01*
X163413777Y-62540847D01*
X163394732Y-62794997D01*
X163394732Y-62795002D01*
X118492154Y-62795002D01*
X118489039Y-62753433D01*
X118486222Y-62715843D01*
X118429508Y-62467363D01*
X118425137Y-62456227D01*
X118355313Y-62278319D01*
X118336393Y-62230112D01*
X118208959Y-62009388D01*
X118143523Y-61927334D01*
X118050059Y-61810133D01*
X118050048Y-61810121D01*
X117863223Y-61636773D01*
X117863220Y-61636771D01*
X117863217Y-61636768D01*
X117652634Y-61493195D01*
X117423004Y-61382611D01*
X117423004Y-61382610D01*
X117179462Y-61307488D01*
X117179459Y-61307487D01*
X117179458Y-61307487D01*
X117179453Y-61307486D01*
X117179452Y-61307486D01*
X116927438Y-61269500D01*
X116927435Y-61269500D01*
X116672565Y-61269500D01*
X116672561Y-61269500D01*
X116420547Y-61307486D01*
X116420537Y-61307488D01*
X116176995Y-61382611D01*
X115947373Y-61493191D01*
X115947369Y-61493193D01*
X115947366Y-61493195D01*
X115739199Y-61635121D01*
X115736776Y-61636773D01*
X115549951Y-61810121D01*
X115549940Y-61810133D01*
X115391047Y-62009379D01*
X115391043Y-62009384D01*
X115391041Y-62009388D01*
X115364639Y-62055118D01*
X115263608Y-62230109D01*
X115263604Y-62230118D01*
X115170492Y-62467360D01*
X115113779Y-62715838D01*
X115113777Y-62715847D01*
X115094732Y-62969997D01*
X115094732Y-62970002D01*
X112155268Y-62970002D01*
X112155268Y-62969997D01*
X112139039Y-62753433D01*
X112136222Y-62715843D01*
X112079508Y-62467363D01*
X112075137Y-62456227D01*
X112005313Y-62278319D01*
X111986393Y-62230112D01*
X111858959Y-62009388D01*
X111793523Y-61927334D01*
X111700059Y-61810133D01*
X111700048Y-61810121D01*
X111513223Y-61636773D01*
X111513220Y-61636771D01*
X111513217Y-61636768D01*
X111302634Y-61493195D01*
X111073004Y-61382611D01*
X111073004Y-61382610D01*
X110829462Y-61307488D01*
X110829459Y-61307487D01*
X110829458Y-61307487D01*
X110829453Y-61307486D01*
X110829452Y-61307486D01*
X110577438Y-61269500D01*
X110577435Y-61269500D01*
X110322565Y-61269500D01*
X110322561Y-61269500D01*
X110070547Y-61307486D01*
X110070537Y-61307488D01*
X109826995Y-61382611D01*
X109597373Y-61493191D01*
X109597369Y-61493193D01*
X109597366Y-61493195D01*
X109389199Y-61635121D01*
X109386776Y-61636773D01*
X109199951Y-61810121D01*
X109199940Y-61810133D01*
X109041047Y-62009379D01*
X109041043Y-62009384D01*
X109041041Y-62009388D01*
X109014639Y-62055118D01*
X108913608Y-62230109D01*
X108913604Y-62230118D01*
X108820492Y-62467360D01*
X108763779Y-62715838D01*
X108763777Y-62715847D01*
X108750008Y-62899592D01*
X108726805Y-62956207D01*
X108726347Y-62956489D01*
X108570265Y-62956489D01*
X108571433Y-62953378D01*
X108575041Y-62950995D01*
X108567068Y-62944237D01*
X108553181Y-62905483D01*
X108546954Y-62859516D01*
X108524075Y-62690613D01*
X108454517Y-62476536D01*
X108454516Y-62476535D01*
X108454516Y-62476533D01*
X108393627Y-62363383D01*
X108347852Y-62278319D01*
X108347851Y-62278317D01*
X108207508Y-62102334D01*
X108207507Y-62102333D01*
X108037997Y-61954236D01*
X108037996Y-61954235D01*
X107844764Y-61838785D01*
X107833048Y-61834388D01*
X107634032Y-61759696D01*
X107634031Y-61759695D01*
X107634024Y-61759693D01*
X107573920Y-61748785D01*
X107412551Y-61719500D01*
X107412547Y-61719500D01*
X107243845Y-61719500D01*
X107243842Y-61719500D01*
X107243823Y-61719501D01*
X107075819Y-61734621D01*
X107075808Y-61734623D01*
X106858831Y-61794506D01*
X106858824Y-61794509D01*
X106656029Y-61892169D01*
X106473920Y-62024479D01*
X106318371Y-62187170D01*
X106318371Y-62187171D01*
X106318369Y-62187173D01*
X106318368Y-62187175D01*
X106242881Y-62301533D01*
X106194363Y-62375035D01*
X106194362Y-62375036D01*
X106105896Y-62582012D01*
X106055810Y-62801459D01*
X106055808Y-62801473D01*
X106045709Y-63026328D01*
X105800546Y-63026328D01*
X105804767Y-62970002D01*
X105804767Y-62969997D01*
X105785726Y-62715923D01*
X105785724Y-62715913D01*
X105729029Y-62467512D01*
X105729029Y-62467510D01*
X105635944Y-62230335D01*
X105635935Y-62230316D01*
X105508548Y-62009677D01*
X105508538Y-62009662D01*
X105372431Y-61838989D01*
X105372430Y-61838988D01*
X104773397Y-62438021D01*
X104718881Y-62465798D01*
X104658449Y-62456227D01*
X104639749Y-62443848D01*
X104638212Y-62442558D01*
X104605795Y-62390666D01*
X104610070Y-62329630D01*
X104631853Y-62296723D01*
X105229565Y-61699011D01*
X105162907Y-61637161D01*
X104952376Y-61493624D01*
X104722823Y-61383078D01*
X104479350Y-61307976D01*
X104479340Y-61307974D01*
X104227400Y-61270000D01*
X103972599Y-61270000D01*
X103720659Y-61307974D01*
X103720649Y-61307976D01*
X103477176Y-61383077D01*
X103247624Y-61493624D01*
X103037092Y-61637161D01*
X102970433Y-61699011D01*
X103570101Y-62298680D01*
X103597878Y-62353197D01*
X103588307Y-62413629D01*
X103572102Y-62436628D01*
X103570730Y-62438082D01*
X103517042Y-62467429D01*
X103456357Y-62459614D01*
X103428721Y-62440142D01*
X102827567Y-61838989D01*
X102691455Y-62009670D01*
X102691451Y-62009677D01*
X102564064Y-62230316D01*
X102564055Y-62230335D01*
X102470970Y-62467510D01*
X102470970Y-62467512D01*
X102414275Y-62715913D01*
X102414273Y-62715923D01*
X102395233Y-62969997D01*
X102395233Y-62970002D01*
X99560500Y-62970002D01*
X99560500Y-54999999D01*
X102994415Y-54999999D01*
X103014738Y-55348929D01*
X103075430Y-55693133D01*
X103075430Y-55693134D01*
X103075431Y-55693136D01*
X103175674Y-56027971D01*
X103314111Y-56348904D01*
X103488870Y-56651596D01*
X103697588Y-56931953D01*
X103937442Y-57186183D01*
X104205189Y-57410849D01*
X104497207Y-57602913D01*
X104809549Y-57759777D01*
X105137989Y-57879319D01*
X105137992Y-57879319D01*
X105137993Y-57879320D01*
X105478075Y-57959921D01*
X105478080Y-57959921D01*
X105478086Y-57959923D01*
X105825241Y-58000500D01*
X105825244Y-58000500D01*
X106174756Y-58000500D01*
X106174759Y-58000500D01*
X106521914Y-57959923D01*
X106521920Y-57959921D01*
X106521924Y-57959921D01*
X106748645Y-57906187D01*
X106862011Y-57879319D01*
X107190451Y-57759777D01*
X107502793Y-57602913D01*
X107794811Y-57410849D01*
X108062558Y-57186183D01*
X108302412Y-56931953D01*
X108511130Y-56651596D01*
X108685889Y-56348904D01*
X108824326Y-56027971D01*
X108924569Y-55693136D01*
X108985262Y-55348927D01*
X109005585Y-55000000D01*
X109005585Y-54999999D01*
X173494415Y-54999999D01*
X173514738Y-55348929D01*
X173575430Y-55693133D01*
X173575430Y-55693134D01*
X173575431Y-55693136D01*
X173675674Y-56027971D01*
X173814111Y-56348904D01*
X173988870Y-56651596D01*
X174197588Y-56931953D01*
X174437442Y-57186183D01*
X174705189Y-57410849D01*
X174997207Y-57602913D01*
X175309549Y-57759777D01*
X175637989Y-57879319D01*
X175637992Y-57879319D01*
X175637993Y-57879320D01*
X175978075Y-57959921D01*
X175978080Y-57959921D01*
X175978086Y-57959923D01*
X176325241Y-58000500D01*
X176325244Y-58000500D01*
X176674756Y-58000500D01*
X176674759Y-58000500D01*
X177021914Y-57959923D01*
X177021920Y-57959921D01*
X177021924Y-57959921D01*
X177248645Y-57906187D01*
X177362011Y-57879319D01*
X177690451Y-57759777D01*
X178002793Y-57602913D01*
X178294811Y-57410849D01*
X178562558Y-57186183D01*
X178802412Y-56931953D01*
X179011130Y-56651596D01*
X179185889Y-56348904D01*
X179324326Y-56027971D01*
X179424569Y-55693136D01*
X179485262Y-55348927D01*
X179505585Y-55000000D01*
X179485262Y-54651073D01*
X179424569Y-54306864D01*
X179324326Y-53972029D01*
X179185889Y-53651096D01*
X179011130Y-53348404D01*
X178802412Y-53068047D01*
X178562558Y-52813817D01*
X178294811Y-52589151D01*
X178039168Y-52421011D01*
X178002794Y-52397087D01*
X177690453Y-52240224D01*
X177690452Y-52240223D01*
X177690451Y-52240223D01*
X177362011Y-52120681D01*
X177362012Y-52120681D01*
X177362006Y-52120679D01*
X177021924Y-52040078D01*
X176909089Y-52026889D01*
X176674759Y-51999500D01*
X176325241Y-51999500D01*
X176133950Y-52021858D01*
X175978075Y-52040078D01*
X175637993Y-52120679D01*
X175469601Y-52181969D01*
X175309549Y-52240223D01*
X175309548Y-52240223D01*
X175309546Y-52240224D01*
X174997205Y-52397087D01*
X174705190Y-52589150D01*
X174437443Y-52813815D01*
X174197591Y-53068043D01*
X173988871Y-53348402D01*
X173988869Y-53348405D01*
X173814111Y-53651095D01*
X173814108Y-53651102D01*
X173675674Y-53972027D01*
X173675672Y-53972034D01*
X173575430Y-54306865D01*
X173575430Y-54306866D01*
X173514738Y-54651070D01*
X173494415Y-54999999D01*
X109005585Y-54999999D01*
X108985262Y-54651073D01*
X108924569Y-54306864D01*
X108824326Y-53972029D01*
X108685889Y-53651096D01*
X108511130Y-53348404D01*
X108302412Y-53068047D01*
X108062558Y-52813817D01*
X107794811Y-52589151D01*
X107539168Y-52421011D01*
X107502794Y-52397087D01*
X107190453Y-52240224D01*
X107190452Y-52240223D01*
X107190451Y-52240223D01*
X106862011Y-52120681D01*
X106862012Y-52120681D01*
X106862006Y-52120679D01*
X106521924Y-52040078D01*
X106409089Y-52026889D01*
X106174759Y-51999500D01*
X105825241Y-51999500D01*
X105633950Y-52021858D01*
X105478075Y-52040078D01*
X105137993Y-52120679D01*
X104969601Y-52181969D01*
X104809549Y-52240223D01*
X104809548Y-52240223D01*
X104809546Y-52240224D01*
X104497205Y-52397087D01*
X104205190Y-52589150D01*
X103937443Y-52813815D01*
X103697591Y-53068043D01*
X103488871Y-53348402D01*
X103488869Y-53348405D01*
X103314111Y-53651095D01*
X103314108Y-53651102D01*
X103175674Y-53972027D01*
X103175672Y-53972034D01*
X103075430Y-54306865D01*
X103075430Y-54306866D01*
X103014738Y-54651070D01*
X102994415Y-54999999D01*
X99560500Y-54999999D01*
X99577528Y-54609981D01*
X99577902Y-54605710D01*
X99628577Y-54220800D01*
X99629321Y-54216578D01*
X99713352Y-53837540D01*
X99714460Y-53833404D01*
X99831203Y-53463142D01*
X99832675Y-53459093D01*
X99981243Y-53100420D01*
X99983067Y-53096509D01*
X100162326Y-52752156D01*
X100164478Y-52748431D01*
X100373067Y-52421011D01*
X100375531Y-52417490D01*
X100611881Y-52109472D01*
X100614621Y-52106206D01*
X100876938Y-51819938D01*
X100879938Y-51816938D01*
X101166206Y-51554621D01*
X101169472Y-51551881D01*
X101477490Y-51315531D01*
X101481011Y-51313067D01*
X101808431Y-51104478D01*
X101812156Y-51102326D01*
X102156518Y-50923062D01*
X102160420Y-50921243D01*
X102519093Y-50772675D01*
X102523142Y-50771203D01*
X102574873Y-50754892D01*
X102893404Y-50654460D01*
X102897540Y-50653352D01*
X103276578Y-50569321D01*
X103280800Y-50568577D01*
X103665710Y-50517902D01*
X103669981Y-50517528D01*
X104060000Y-50500500D01*
X104125892Y-50500500D01*
X177434108Y-50500500D01*
X177500000Y-50500500D01*
X177890016Y-50517528D01*
G37*
%TD.AperFunction*%
%TD*%
M02*
